<svg width="1258" height="974" viewBox="0 0 1258 974" fill="none" xmlns="http://www.w3.org/2000/svg">
<path d="M598.831 502.982C598.831 509.093 608.078 511.64 615.19 507.566C621.591 504.001 621.591 503.746 613.412 505.528C608.078 506.547 603.81 505.783 602.032 503.746C600.254 501.709 598.831 501.454 598.831 502.982Z" fill="#98D73C" fill-opacity="0.969"/>
<path d="M701.963 521.061C701.963 526.408 711.209 529.719 720.1 527.172L728.635 524.626H719.744C714.41 524.371 708.72 523.098 706.23 521.316C703.385 519.279 701.963 519.279 701.963 521.061Z" fill="#98D73C" fill-opacity="0.969"/>
<path d="M490.721 529.21C489.299 530.737 486.098 531.247 483.253 530.228C479.341 529.21 478.63 529.973 480.052 533.029C481.119 535.321 483.609 537.103 485.031 537.103C488.943 537.103 497.122 529.464 494.633 527.936C493.566 527.172 491.788 527.682 490.721 529.21Z" fill="#98D73C" fill-opacity="0.969"/>
<path d="M570.737 538.885C570.381 546.27 575.004 548.052 583.184 543.214C589.585 539.394 589.585 539.394 582.117 540.922C576.782 541.941 573.937 541.177 572.87 537.867C571.448 534.302 571.092 534.302 570.737 538.885Z" fill="#98D73C" fill-opacity="0.969"/>
<path d="M638.662 549.58C640.084 557.473 645.063 558.747 653.954 553.654C661.066 549.58 661.066 549.58 653.242 551.108C647.908 552.126 644.352 551.108 641.507 548.052C638.306 543.978 637.95 544.233 638.662 549.58Z" fill="#98D73C" fill-opacity="0.969"/>
<path d="M435.955 560.02C436.666 566.895 438.8 569.187 444.49 569.696C448.402 570.205 454.092 568.423 456.937 566.131C461.56 562.057 461.204 562.057 453.736 564.858C446.268 567.659 445.201 567.15 440.578 559.511L435.244 551.108L435.955 560.02Z" fill="#98D73C" fill-opacity="0.969"/>
<path d="M374.787 559.256C374.787 566.386 380.122 568.677 387.945 565.367C392.569 563.585 392.924 562.821 389.368 562.566C386.523 562.566 382.255 560.529 379.766 557.983C375.499 553.909 375.143 554.163 374.787 559.256Z" fill="#98D73C" fill-opacity="0.969"/>
<path d="M711.565 569.951C713.699 576.317 717.255 576.571 723.656 570.969C727.212 567.914 727.568 567.15 724.012 568.678C721.522 569.696 717.255 569.442 714.41 567.659C710.498 565.367 710.142 565.877 711.565 569.951Z" fill="#98D73C" fill-opacity="0.969"/>
<path d="M325 571.224C325 575.298 331.401 579.118 334.602 576.826C335.669 576.062 333.891 573.77 330.69 571.479C325.711 567.914 325 567.914 325 571.224Z" fill="#98D73C" fill-opacity="0.969"/>
<path d="M780.556 574.534C780.2 581.664 784.468 583.446 795.136 580.645C803.316 578.099 803.316 578.099 793.714 578.099C788.024 577.844 783.756 576.062 782.69 573.261C781.267 569.951 780.911 570.205 780.556 574.534Z" fill="#98D73C" fill-opacity="0.969"/>
<path d="M517.038 579.372C517.038 581.409 520.238 582.937 523.794 582.937C534.463 582.937 535.886 578.608 525.928 577.335C519.883 576.317 517.038 577.081 517.038 579.372Z" fill="#98D73C" fill-opacity="0.969"/>
<path d="M592.43 588.539C593.497 590.322 597.765 592.104 602.743 592.359C607.722 592.613 608.789 592.359 605.233 591.595C601.677 590.831 598.832 589.049 598.832 587.775C598.832 586.502 597.053 585.484 594.92 585.484C592.786 585.484 591.719 587.011 592.43 588.539Z" fill="#98D73C" fill-opacity="0.969"/>
<path d="M389.012 591.595C389.012 595.669 395.414 599.488 398.614 597.196C399.681 596.433 397.903 594.141 394.702 591.849C389.724 588.284 389.012 588.284 389.012 591.595Z" fill="#98D73C" fill-opacity="0.969"/>
<path d="M453.38 598.724C453.025 604.836 454.447 605.854 462.982 605.599C470.806 605.599 471.517 605.09 465.827 603.562C461.915 602.544 457.648 599.488 456.225 596.687C454.092 592.613 453.38 593.122 453.38 598.724Z" fill="#98D73C" fill-opacity="0.969"/>
<path d="M648.619 605.09C648.619 612.984 653.953 614.257 665.333 609.673L675.291 605.599L665.689 607.127C658.932 608.146 655.02 607.127 652.531 604.071C649.33 599.997 648.975 599.997 648.619 605.09Z" fill="#98D73C" fill-opacity="0.969"/>
<path d="M563.624 606.363C563.269 611.456 569.314 612.22 577.494 608.146C581.761 605.854 581.406 605.599 575.004 606.618C570.737 607.382 566.469 606.618 565.403 604.835C564.691 603.308 563.624 604.072 563.624 606.363Z" fill="#98D73C" fill-opacity="0.969"/>
<path d="M329.623 609.164C331.401 613.493 337.091 613.748 343.848 610.437C349.182 607.382 348.827 607.127 339.225 606.872C333.179 606.618 328.912 607.636 329.623 609.164Z" fill="#98D73C" fill-opacity="0.969"/>
<path d="M509.925 617.313C509.925 621.387 520.594 624.697 524.506 621.896C525.928 620.878 523.439 618.586 518.46 616.804C511.703 614.512 509.925 614.767 509.925 617.313Z" fill="#98D73C" fill-opacity="0.969"/>
<path d="M830.699 618.585C832.121 625.97 844.213 628.516 850.969 622.66C854.526 619.604 854.17 619.095 847.413 620.368C842.079 621.386 837.811 620.368 834.611 617.058C829.632 612.474 829.632 612.474 830.699 618.585Z" fill="#98D73C" fill-opacity="0.969"/>
<path d="M730.413 621.896C730.413 625.716 741.793 626.734 746.416 623.424C750.683 620.368 749.972 619.859 741.081 619.859C735.036 619.859 730.413 620.878 730.413 621.896Z" fill="#98D73C" fill-opacity="0.969"/>
<path d="M389.012 633.355C389.012 638.193 399.326 645.322 402.882 642.776C405.016 640.994 403.237 638.702 397.547 635.646C392.924 633.1 389.012 632.081 389.012 633.355Z" fill="#98D73C" fill-opacity="0.969"/>
<path d="M453.025 637.429C453.025 642.012 469.028 643.285 472.584 638.957C473.651 637.429 472.229 637.174 469.028 637.938C466.183 638.957 461.204 638.193 458.359 636.41C454.092 633.864 453.025 634.119 453.025 637.429Z" fill="#98D73C" fill-opacity="0.969"/>
<path d="M570.737 639.975C572.516 646.596 578.206 647.36 586.385 642.776C592.431 639.466 592.431 639.211 587.096 640.485C583.896 641.248 578.561 640.485 575.361 638.702C570.382 635.647 569.671 635.901 570.737 639.975Z" fill="#98D73C" fill-opacity="0.969"/>
<path d="M667.467 645.068C658.221 648.123 656.799 651.688 664.267 651.688C668.89 651.688 679.559 644.558 676.714 643.285C676.002 642.776 671.735 643.795 667.467 645.068Z" fill="#98D73C" fill-opacity="0.969"/>
<path d="M776.644 655.253C776.644 658.054 779.489 659.327 786.601 659.073C791.936 659.073 794.069 658.309 790.869 657.545C788.024 656.781 783.401 654.998 781.267 653.471C778.066 651.688 776.644 652.197 776.644 655.253Z" fill="#98D73C" fill-opacity="0.969"/>
<path d="M506.369 658.054C506.369 663.401 515.259 665.438 523.083 662.128C528.773 659.836 528.773 659.582 521.661 659.327C517.037 659.327 513.481 658.054 513.481 656.781C513.481 655.253 512.059 654.234 509.925 654.234C508.147 654.234 506.369 656.017 506.369 658.054Z" fill="#98D73C" fill-opacity="0.969"/>
<path d="M591.719 667.73C591.719 673.587 600.254 675.878 608.433 672.314C614.479 669.767 614.479 669.767 607.722 669.513C603.454 669.513 598.476 668.239 595.986 666.457C592.786 664.165 591.719 664.42 591.719 667.73Z" fill="#98D73C" fill-opacity="0.969"/>
<path d="M446.268 669.767C445.913 676.388 454.092 682.499 460.138 679.698C464.761 677.661 464.761 677.152 459.782 677.152C456.581 677.152 452.314 674.605 450.18 671.295C447.691 667.73 446.268 666.966 446.268 669.767Z" fill="#98D73C" fill-opacity="0.969"/>
<path d="M694.85 674.605C694.85 682.244 700.54 685.555 708.719 682.499C717.966 678.68 718.677 676.388 709.431 678.425C704.807 679.443 701.251 678.425 698.762 675.369C695.917 671.804 695.206 671.55 694.85 674.605Z" fill="#98D73C" fill-opacity="0.969"/>
<path d="M531.618 688.61C531.262 697.522 536.241 701.087 545.487 697.522C549.755 695.995 552.244 693.957 551.177 692.939C549.755 692.175 546.91 692.939 544.776 694.467C541.576 696.758 539.442 695.995 536.241 690.393C532.685 684.791 531.974 684.536 531.618 688.61Z" fill="#98D73C" fill-opacity="0.969"/>
<path d="M800.827 695.485C796.915 702.615 806.517 706.18 818.252 701.596L828.21 697.777L816.83 699.05C807.939 700.323 805.45 699.814 804.383 695.994C803.316 691.666 802.96 691.666 800.827 695.485Z" fill="#98D73C" fill-opacity="0.969"/>
<path d="M635.105 700.323C636.172 706.943 646.84 709.999 653.242 705.416C655.731 703.633 654.309 703.379 648.974 704.397C643.64 705.416 641.506 704.652 641.506 701.851C641.506 699.559 639.728 697.013 637.594 695.994C635.105 694.976 634.394 696.503 635.105 700.323Z" fill="#98D73C" fill-opacity="0.969"/>
<path d="M727.568 715.856C729.701 720.185 744.282 721.712 749.261 718.147C751.75 716.365 750.328 716.11 745.705 716.874C741.437 717.638 737.17 717.129 736.103 715.601C732.546 711.782 725.79 712.036 727.568 715.856Z" fill="#98D73C" fill-opacity="0.969"/>
<path d="M588.874 722.222C590.296 728.333 600.61 729.352 610.211 724.259C618.391 720.44 618.391 720.44 607.011 721.967C599.187 722.986 595.275 722.731 595.275 720.694C595.275 719.166 593.497 717.893 591.363 717.893C589.23 717.893 588.163 719.93 588.874 722.222Z" fill="#98D73C" fill-opacity="0.969"/>
<path d="M677.425 729.861C677.069 736.99 688.805 742.083 697.695 738.518C703.03 736.227 703.03 735.972 696.273 735.717C692.005 735.717 685.96 733.171 683.115 729.861L677.425 724.259V729.861Z" fill="#98D73C" fill-opacity="0.969"/>
<path d="M525.928 735.717C526.639 739.282 527.706 742.847 527.706 743.611C527.706 746.921 538.375 748.194 546.199 745.903C553.667 743.865 553.311 743.611 542.998 743.611C534.107 743.356 530.907 741.828 528.062 736.226C524.505 729.861 524.15 729.861 525.928 735.717Z" fill="#98D73C" fill-opacity="0.969"/>
<path d="M773.799 745.903C774.51 751.25 777 752.268 787.313 752.778C794.07 752.778 796.203 752.523 791.936 751.759C787.313 751.25 781.267 748.194 778.066 745.139L772.732 739.537L773.799 745.903Z" fill="#98D73C" fill-opacity="0.969"/>
<path d="M620.169 761.18C620.169 770.347 634.749 774.167 646.841 768.056C652.531 764.745 652.175 764.491 641.862 765.764C633.682 766.528 629.059 765.509 625.503 762.199C621.236 758.379 620.524 758.125 620.169 761.18Z" fill="#98D73C" fill-opacity="0.969"/>
<path d="M716.899 768.819C717.966 774.421 719.388 775.185 733.257 774.93C741.437 774.93 749.972 773.657 751.75 772.384C753.884 770.856 749.616 770.347 740.37 770.856C728.99 771.875 724.367 770.856 720.455 767.291C715.832 762.708 715.832 762.708 716.899 768.819Z" fill="#98D73C" fill-opacity="0.969"/>
<path d="M5.2 349V345L30 339.8L137.2 65.8H167.6L273.2 339.8L297.6 345V349H195.6V345.8L224 340.2L133.2 103H128.8L79.2 235C74.4 247 70.6667 258.467 68 269.4C65.6 280.333 64.4 289.933 64.4 298.2C64.4 307.267 66 315.4 69.2 322.6C72.6667 329.8 78.1333 335.4 85.6 339.4C93.0667 343.133 102.8 345 114.8 345V349H5.2ZM74 233.8V229.8L185.6 225.4V233.8H74ZM320.734 349V345L342.734 340.2V161H318.334V156.6L386.734 143V206.6L389.934 209.8C393.934 200.733 397.801 192.6 401.534 185.4C405.268 178.2 409.001 172.2 412.734 167.4C419.401 158.867 426.334 152.733 433.534 149C441.001 145 449.134 143 457.934 143C464.068 143 469.668 144.2 474.734 146.6C480.068 149 484.334 152.6 487.534 157.4C491.001 161.933 492.734 167.8 492.734 175C492.734 180.333 491.268 185.267 488.334 189.8C485.668 194.333 481.801 198.067 476.734 201C471.668 203.667 465.534 205 458.334 205C451.934 205 446.201 203.933 441.134 201.8C436.068 199.4 432.068 196.2 429.134 192.2C426.468 188.2 425.134 183.8 425.134 179C425.134 176.867 425.268 175.133 425.534 173.8C426.068 172.2 426.468 170.733 426.734 169.4C427.001 167.8 427.134 166.6 427.134 165.8C427.134 163.933 426.468 163 425.134 163C422.468 163 419.268 165.4 415.534 170.2C412.068 174.733 408.068 181.533 403.534 190.6C400.601 195.933 397.668 202.333 394.734 209.8C391.801 217.267 389.134 225 386.734 233V340.2L409.134 345V349H320.734ZM616.866 355C597.132 355 579.532 350.6 564.066 341.8C548.866 333 536.866 320.733 528.066 305C519.532 289.267 515.266 271.267 515.266 251C515.266 234.733 517.932 220.067 523.266 207C528.866 193.667 536.599 182.2 546.466 172.6C556.599 163 568.599 155.667 582.466 150.6C596.599 145.533 612.332 143 629.666 143C640.066 143 650.199 144.2 660.066 146.6C669.932 148.733 678.866 152.067 686.866 156.6C694.866 160.867 701.132 166.2 705.666 172.6C710.199 178.733 712.466 185.8 712.466 193.8C712.466 199.4 710.866 204.067 707.666 207.8C704.732 211.267 700.599 213.933 695.266 215.8C689.932 217.667 684.066 218.6 677.666 218.6C668.066 218.6 659.666 216.6 652.466 212.6C645.532 208.6 642.066 202.6 642.066 194.6C642.066 189.267 643.799 184.6 647.266 180.6C650.999 176.6 656.199 173.667 662.866 171.8C672.999 168.333 678.066 165.267 678.066 162.6C678.066 160.467 676.332 158.333 672.866 156.2C669.399 153.8 664.466 151.933 658.066 150.6C651.666 149 643.932 148.2 634.866 148.2C623.666 148.2 613.399 150.733 604.066 155.8C594.999 160.6 587.132 167.4 580.466 176.2C573.799 184.733 568.599 194.733 564.866 206.2C561.399 217.667 559.666 230.067 559.666 243.4C559.666 258.067 561.532 271.4 565.266 283.4C568.999 295.133 574.199 305.267 580.866 313.8C587.532 322.067 595.666 328.467 605.266 333C614.866 337.533 625.532 339.8 637.266 339.8C648.199 339.8 658.599 337.933 668.466 334.2C678.332 330.467 687.266 325 695.266 317.8C703.266 310.6 709.799 301.667 714.866 291L718.866 295C712.732 307 705.799 317 698.066 325C690.599 332.733 682.466 338.867 673.666 343.4C664.866 347.667 655.666 350.6 646.066 352.2C636.466 354.067 626.732 355 616.866 355ZM988.803 345V349H902.003V345L922.403 341V207.4C922.403 191.4 919.603 179.4 914.003 171.4C908.403 163.4 900.27 159.4 889.603 159.4C882.403 159.4 875.203 161.667 868.003 166.2C861.07 170.733 854.27 176.6 847.603 183.8C841.203 191 835.336 198.733 830.003 207C824.67 215.267 820.403 223.133 817.203 230.6V341L837.603 345V349H750.803V345L773.203 341V69H748.403V64.6L817.203 51V208.6L820.403 211.4C827.603 197.533 835.736 185.533 844.803 175.4C853.87 165 863.736 157 874.403 151.4C885.07 145.8 896.536 143 908.803 143C919.47 143 928.403 144.733 935.603 148.2C943.07 151.4 948.936 156.067 953.203 162.2C957.736 168.333 961.07 175.667 963.203 184.2C965.336 192.733 966.403 202.467 966.403 213.4V341L988.803 345ZM1058.82 110.6C1051.89 110.6 1045.75 109.533 1040.42 107.4C1035.09 105.267 1030.95 102.333 1028.02 98.6C1025.09 94.8666 1023.62 90.6 1023.62 85.8C1023.62 80.7333 1025.09 76.4666 1028.02 73C1030.95 69.2666 1035.09 66.3333 1040.42 64.2C1045.75 62.0667 1051.89 61 1058.82 61C1065.75 61 1071.89 62.0667 1077.22 64.2C1082.55 66.3333 1086.69 69.2666 1089.62 73C1092.82 76.4666 1094.42 80.7333 1094.42 85.8C1094.42 90.6 1092.82 94.8666 1089.62 98.6C1086.69 102.333 1082.55 105.267 1077.22 107.4C1071.89 109.533 1065.75 110.6 1058.82 110.6ZM1016.82 349V345L1039.22 341V161H1014.42V156.6L1083.22 143V341L1105.22 345V349H1016.82ZM1196.66 355C1182.52 355 1172.26 350.867 1165.86 342.6C1159.72 334.067 1156.66 321.133 1156.66 303.8V157H1128.26V153L1157.06 149L1195.06 83.4H1200.66V146.2L1243.46 153V157H1200.66V317.8C1200.66 327.133 1201.99 333.8 1204.66 337.8C1207.32 341.8 1210.92 343.8 1215.46 343.8C1220.26 343.8 1224.79 342.2 1229.06 339C1233.59 335.533 1238.12 331.267 1242.66 326.2L1244.26 331C1241.59 333.933 1238.39 336.867 1234.66 339.8C1231.19 342.467 1227.32 345 1223.06 347.4C1219.06 349.8 1214.79 351.667 1210.26 353C1205.99 354.333 1201.46 355 1196.66 355ZM87.6 755C71.0667 755 57.0667 752.333 45.6 747C34.1333 741.667 25.3333 734.867 19.2 726.6C13.3333 718.333 10.4 709.8 10.4 701C10.4 695.4 11.3333 690.467 13.2 686.2C15.3333 681.933 18.1333 678.333 21.6 675.4C25.3333 672.2 29.6 669.933 34.4 668.6C39.2 667 44.4 666.2 50 666.2C55.3333 666.2 60.2667 667 64.8 668.6C69.6 670.2 73.4667 672.6 76.4 675.8C79.3333 678.733 80.8 682.6 80.8 687.4C80.8 693 79.6 697.533 77.2 701C75.0667 704.467 72.2667 707.133 68.8 709C65.3333 710.867 61.6 712.333 57.6 713.4C53.6 714.2 49.7333 715.133 46 716.2C42.5333 717.267 39.6 718.733 37.2 720.6C35.0667 722.2 34 724.733 34 728.2C34 729.533 35.4667 731.933 38.4 735.4C41.6 738.867 46.1333 742.067 52 745C58.1333 747.667 65.3333 749 73.6 749C81.3333 749 88.2667 747.533 94.4 744.6C100.8 741.4 106 736.2 110 729C114.267 721.8 117.2 712.067 118.8 699.8C120.4 687.533 120.4 672.067 118.8 653.4V475L80.4 469.8V465.8H164.4V659.8C165.2 683 162.8 701.667 157.2 715.8C151.867 729.933 143.333 740.067 131.6 746.2C120.133 752.067 105.467 755 87.6 755ZM319.359 543C334.826 543 348.026 544.867 358.959 548.6C370.159 552.067 379.359 557.533 386.559 565C393.759 572.467 398.959 581.933 402.159 593.4C405.359 604.6 406.959 617.933 406.959 633.4V735C406.959 739 407.759 741.933 409.359 743.8C411.226 745.667 413.626 746.6 416.559 746.6C419.759 746.6 423.359 745.667 427.359 743.8C431.626 741.933 435.759 739.533 439.759 736.6V741C436.559 743.933 432.693 746.467 428.159 748.6C423.893 750.733 419.359 752.333 414.559 753.4C409.759 754.467 405.093 755 400.559 755C388.826 755 379.626 751.933 372.959 745.8C366.293 739.4 362.959 729.133 362.959 715C362.959 709.667 362.959 705.8 362.959 703.4C362.959 700.733 362.959 698.733 362.959 697.4C362.959 696.067 362.959 694.6 362.959 693L359.759 690.6C354.693 700.733 348.559 709.8 341.359 717.8C334.426 725.8 326.559 732.6 317.759 738.2C309.226 743.533 300.426 747.667 291.359 750.6C282.293 753.533 273.226 755 264.159 755C254.293 755 245.359 753.267 237.359 749.8C229.359 746.6 222.959 741.8 218.159 735.4C213.359 728.733 210.959 720.6 210.959 711C210.959 688.333 223.893 671.133 249.759 659.4C275.626 647.4 313.359 641.4 362.959 641.4C362.959 618.733 361.226 600.867 357.759 587.8C354.293 574.467 348.293 564.867 339.759 559C331.226 553.133 319.493 550.2 304.559 550.2C294.693 550.2 285.893 551.133 278.159 553C270.693 554.6 264.826 556.6 260.559 559C256.559 561.4 254.559 563.533 254.559 565.4C254.559 566.733 255.759 568.2 258.159 569.8C260.826 571.133 265.493 573.133 272.159 575.8C284.426 580.6 290.559 587.4 290.559 596.2C290.559 604.2 287.093 610.333 280.159 614.6C273.226 618.6 264.826 620.6 254.959 620.6C245.359 620.6 237.093 618.467 230.159 614.2C223.493 609.933 220.159 603.8 220.159 595.8C220.159 589.4 222.826 583.133 228.159 577C233.759 570.6 241.093 564.867 250.159 559.8C259.493 554.733 270.026 550.733 281.759 547.8C293.759 544.6 306.293 543 319.359 543ZM362.959 646.2C337.626 646.2 316.693 649 300.159 654.6C283.626 659.933 271.359 667.267 263.359 676.6C255.359 685.933 251.359 696.333 251.359 707.8C251.359 714.733 252.693 720.467 255.359 725C258.293 729.267 262.159 732.467 266.959 734.6C271.759 736.733 277.226 737.8 283.359 737.8C290.026 737.8 297.093 736.6 304.559 734.2C312.293 731.533 319.893 727.533 327.359 722.2C334.826 716.867 341.626 710.2 347.759 702.2C354.159 693.933 359.226 684.2 362.959 673V646.2ZM507.256 510.6C500.323 510.6 494.19 509.533 488.856 507.4C483.523 505.267 479.39 502.333 476.456 498.6C473.523 494.867 472.056 490.6 472.056 485.8C472.056 480.733 473.523 476.467 476.456 473C479.39 469.267 483.523 466.333 488.856 464.2C494.19 462.067 500.323 461 507.256 461C514.19 461 520.323 462.067 525.656 464.2C530.99 466.333 535.123 469.267 538.056 473C541.256 476.467 542.856 480.733 542.856 485.8C542.856 490.6 541.256 494.867 538.056 498.6C535.123 502.333 530.99 505.267 525.656 507.4C520.323 509.533 514.19 510.6 507.256 510.6ZM465.256 749V745L487.656 741V561H462.856V556.6L531.656 543V741L553.656 745V749H465.256ZM829.094 745V749H737.894V745L760.694 741V607.4C760.694 591.4 757.894 579.4 752.294 571.4C746.694 563.4 738.56 559.4 727.894 559.4C720.694 559.4 713.494 561.667 706.294 566.2C699.36 570.733 692.56 576.6 685.894 583.8C679.494 591 673.627 598.733 668.294 607C662.96 615.267 658.56 623.133 655.094 630.6V741L677.894 745V749H589.094V745L611.094 741V561H586.694V556.6L655.094 543V608.6L658.294 611.4C665.76 597.533 673.894 585.533 682.694 575.4C691.76 565 701.627 557 712.294 551.4C723.227 545.8 734.827 543 747.094 543C757.76 543 766.694 544.733 773.894 548.2C781.094 551.4 786.96 556.067 791.494 562.2C796.027 568.333 799.36 575.667 801.494 584.2C803.627 592.733 804.694 602.467 804.694 613.4V741L829.094 745Z" fill="#231F20"/>
<path d="M15.08 825V845.04H38.64V851.36H15.08V876H7.32V818.68H42.64V825H15.08ZM54.1969 843.6C55.4769 840.827 57.0502 838.667 58.9169 837.12C60.7835 835.547 63.0635 834.76 65.7569 834.76C66.6102 834.76 67.4235 834.853 68.1969 835.04C68.9969 835.227 69.7035 835.52 70.3169 835.92L69.7969 841.24C69.6369 841.907 69.2369 842.24 68.5969 842.24C68.2235 842.24 67.6769 842.16 66.9569 842C66.2369 841.84 65.4235 841.76 64.5169 841.76C63.2369 841.76 62.0902 841.947 61.0769 842.32C60.0902 842.693 59.1969 843.253 58.3969 844C57.6235 844.72 56.9169 845.627 56.2769 846.72C55.6635 847.787 55.1035 849.013 54.5969 850.4V876H47.4369V835.48H51.5169C52.2902 835.48 52.8235 835.627 53.1169 835.92C53.4102 836.213 53.6102 836.72 53.7169 837.44L54.1969 843.6ZM92.0169 834.84C94.9769 834.84 97.6435 835.333 100.017 836.32C102.39 837.307 104.417 838.707 106.097 840.52C107.777 842.333 109.057 844.533 109.937 847.12C110.844 849.68 111.297 852.547 111.297 855.72C111.297 858.92 110.844 861.8 109.937 864.36C109.057 866.92 107.777 869.107 106.097 870.92C104.417 872.733 102.39 874.133 100.017 875.12C97.6435 876.08 94.9769 876.56 92.0169 876.56C89.0302 876.56 86.3369 876.08 83.9369 875.12C81.5635 874.133 79.5369 872.733 77.8569 870.92C76.1769 869.107 74.8835 866.92 73.9769 864.36C73.0969 861.8 72.6569 858.92 72.6569 855.72C72.6569 852.547 73.0969 849.68 73.9769 847.12C74.8835 844.533 76.1769 842.333 77.8569 840.52C79.5369 838.707 81.5635 837.307 83.9369 836.32C86.3369 835.333 89.0302 834.84 92.0169 834.84ZM92.0169 871C96.0169 871 99.0035 869.667 100.977 867C102.95 864.307 103.937 860.56 103.937 855.76C103.937 850.933 102.95 847.173 100.977 844.48C99.0035 841.787 96.0169 840.44 92.0169 840.44C89.9902 840.44 88.2169 840.787 86.6969 841.48C85.2035 842.173 83.9502 843.173 82.9369 844.48C81.9502 845.787 81.2035 847.4 80.6969 849.32C80.2169 851.213 79.9769 853.36 79.9769 855.76C79.9769 860.56 80.9635 864.307 82.9369 867C84.9369 869.667 87.9635 871 92.0169 871ZM127.048 841.36C127.928 840.373 128.861 839.48 129.848 838.68C130.834 837.88 131.874 837.2 132.968 836.64C134.088 836.053 135.261 835.613 136.488 835.32C137.741 835 139.088 834.84 140.528 834.84C142.741 834.84 144.688 835.213 146.368 835.96C148.074 836.68 149.488 837.72 150.608 839.08C151.754 840.413 152.621 842.027 153.208 843.92C153.794 845.813 154.088 847.907 154.088 850.2V876H146.928V850.2C146.928 847.133 146.221 844.76 144.808 843.08C143.421 841.373 141.301 840.52 138.448 840.52C136.341 840.52 134.368 841.027 132.528 842.04C130.714 843.053 129.034 844.427 127.488 846.16V876H120.328V835.48H124.608C125.621 835.48 126.248 835.973 126.488 836.96L127.048 841.36ZM176.83 876.64C173.63 876.64 171.163 875.747 169.43 873.96C167.723 872.173 166.87 869.6 166.87 866.24V841.44H161.99C161.563 841.44 161.203 841.32 160.91 841.08C160.617 840.813 160.47 840.413 160.47 839.88V837.04L167.11 836.2L168.75 823.68C168.83 823.28 169.003 822.96 169.27 822.72C169.563 822.453 169.937 822.32 170.39 822.32H173.99V836.28H185.71V841.44H173.99V865.76C173.99 867.467 174.403 868.733 175.23 869.56C176.057 870.387 177.123 870.8 178.43 870.8C179.177 870.8 179.817 870.707 180.35 870.52C180.91 870.307 181.39 870.08 181.79 869.84C182.19 869.6 182.523 869.387 182.79 869.2C183.083 868.987 183.337 868.88 183.55 868.88C183.923 868.88 184.257 869.107 184.55 869.56L186.63 872.96C185.403 874.107 183.923 875.013 182.19 875.68C180.457 876.32 178.67 876.64 176.83 876.64ZM219.948 851.32C219.948 849.667 219.708 848.16 219.228 846.8C218.774 845.413 218.094 844.227 217.188 843.24C216.308 842.227 215.228 841.453 213.948 840.92C212.668 840.36 211.214 840.08 209.588 840.08C206.174 840.08 203.468 841.08 201.468 843.08C199.494 845.053 198.268 847.8 197.788 851.32H219.948ZM225.708 870.32C224.828 871.387 223.774 872.32 222.548 873.12C221.321 873.893 220.001 874.533 218.588 875.04C217.201 875.547 215.761 875.92 214.268 876.16C212.774 876.427 211.294 876.56 209.828 876.56C207.028 876.56 204.441 876.093 202.068 875.16C199.721 874.2 197.681 872.813 195.948 871C194.241 869.16 192.908 866.893 191.948 864.2C190.988 861.507 190.508 858.413 190.508 854.92C190.508 852.093 190.934 849.453 191.788 847C192.668 844.547 193.921 842.427 195.548 840.64C197.174 838.827 199.161 837.413 201.508 836.4C203.854 835.36 206.494 834.84 209.428 834.84C211.854 834.84 214.094 835.253 216.148 836.08C218.228 836.88 220.014 838.053 221.508 839.6C223.028 841.12 224.214 843.013 225.068 845.28C225.921 847.52 226.348 850.08 226.348 852.96C226.348 854.08 226.228 854.827 225.988 855.2C225.748 855.573 225.294 855.76 224.628 855.76H197.548C197.628 858.32 197.974 860.547 198.588 862.44C199.228 864.333 200.108 865.92 201.228 867.2C202.348 868.453 203.681 869.4 205.228 870.04C206.774 870.653 208.508 870.96 210.428 870.96C212.214 870.96 213.748 870.76 215.028 870.36C216.334 869.933 217.454 869.48 218.388 869C219.321 868.52 220.094 868.08 220.708 867.68C221.348 867.253 221.894 867.04 222.348 867.04C222.934 867.04 223.388 867.267 223.708 867.72L225.708 870.32ZM241.813 841.36C242.693 840.373 243.626 839.48 244.613 838.68C245.6 837.88 246.64 837.2 247.733 836.64C248.853 836.053 250.026 835.613 251.253 835.32C252.506 835 253.853 834.84 255.293 834.84C257.506 834.84 259.453 835.213 261.133 835.96C262.84 836.68 264.253 837.72 265.373 839.08C266.52 840.413 267.386 842.027 267.973 843.92C268.56 845.813 268.853 847.907 268.853 850.2V876H261.693V850.2C261.693 847.133 260.986 844.76 259.573 843.08C258.186 841.373 256.066 840.52 253.213 840.52C251.106 840.52 249.133 841.027 247.293 842.04C245.48 843.053 243.8 844.427 242.253 846.16V876H235.093V835.48H239.373C240.386 835.48 241.013 835.973 241.253 836.96L241.813 841.36ZM306.103 845.12C304.769 843.333 303.329 842.093 301.783 841.4C300.236 840.68 298.503 840.32 296.583 840.32C292.823 840.32 289.929 841.667 287.903 844.36C285.876 847.053 284.863 850.893 284.863 855.88C284.863 858.52 285.089 860.787 285.543 862.68C285.996 864.547 286.663 866.093 287.543 867.32C288.423 868.52 289.503 869.4 290.783 869.96C292.063 870.52 293.516 870.8 295.143 870.8C297.489 870.8 299.529 870.267 301.263 869.2C303.023 868.133 304.636 866.627 306.103 864.68V845.12ZM313.223 817.08V876H308.983C307.969 876 307.329 875.507 307.063 874.52L306.423 869.6C304.689 871.68 302.716 873.36 300.503 874.64C298.289 875.92 295.729 876.56 292.823 876.56C290.503 876.56 288.396 876.12 286.503 875.24C284.609 874.333 282.996 873.013 281.663 871.28C280.329 869.547 279.303 867.387 278.583 864.8C277.863 862.213 277.503 859.24 277.503 855.88C277.503 852.893 277.903 850.12 278.703 847.56C279.503 844.973 280.649 842.733 282.143 840.84C283.636 838.947 285.463 837.467 287.623 836.4C289.809 835.307 292.263 834.76 294.983 834.76C297.463 834.76 299.583 835.187 301.343 836.04C303.129 836.867 304.716 838.027 306.103 839.52V817.08H313.223ZM396.297 847.36C396.297 851.653 395.617 855.56 394.257 859.08C392.897 862.6 390.977 865.613 388.497 868.12C386.017 870.627 383.03 872.573 379.537 873.96C376.07 875.32 372.23 876 368.017 876H346.617V818.68H368.017C372.23 818.68 376.07 819.373 379.537 820.76C383.03 822.12 386.017 824.067 388.497 826.6C390.977 829.107 392.897 832.12 394.257 835.64C395.617 839.16 396.297 843.067 396.297 847.36ZM388.337 847.36C388.337 843.84 387.857 840.693 386.897 837.92C385.937 835.147 384.577 832.8 382.817 830.88C381.057 828.96 378.924 827.493 376.417 826.48C373.91 825.467 371.11 824.96 368.017 824.96H354.377V869.72H368.017C371.11 869.72 373.91 869.213 376.417 868.2C378.924 867.187 381.057 865.733 382.817 863.84C384.577 861.92 385.937 859.573 386.897 856.8C387.857 854.027 388.337 850.88 388.337 847.36ZM432.369 851.32C432.369 849.667 432.129 848.16 431.649 846.8C431.196 845.413 430.516 844.227 429.609 843.24C428.729 842.227 427.649 841.453 426.369 840.92C425.089 840.36 423.636 840.08 422.009 840.08C418.596 840.08 415.889 841.08 413.889 843.08C411.916 845.053 410.689 847.8 410.209 851.32H432.369ZM438.129 870.32C437.249 871.387 436.196 872.32 434.969 873.12C433.743 873.893 432.423 874.533 431.009 875.04C429.623 875.547 428.183 875.92 426.689 876.16C425.196 876.427 423.716 876.56 422.249 876.56C419.449 876.56 416.863 876.093 414.489 875.16C412.143 874.2 410.103 872.813 408.369 871C406.663 869.16 405.329 866.893 404.369 864.2C403.409 861.507 402.929 858.413 402.929 854.92C402.929 852.093 403.356 849.453 404.209 847C405.089 844.547 406.343 842.427 407.969 840.64C409.596 838.827 411.583 837.413 413.929 836.4C416.276 835.36 418.916 834.84 421.849 834.84C424.276 834.84 426.516 835.253 428.569 836.08C430.649 836.88 432.436 838.053 433.929 839.6C435.449 841.12 436.636 843.013 437.489 845.28C438.343 847.52 438.769 850.08 438.769 852.96C438.769 854.08 438.649 854.827 438.409 855.2C438.169 855.573 437.716 855.76 437.049 855.76H409.969C410.049 858.32 410.396 860.547 411.009 862.44C411.649 864.333 412.529 865.92 413.649 867.2C414.769 868.453 416.103 869.4 417.649 870.04C419.196 870.653 420.929 870.96 422.849 870.96C424.636 870.96 426.169 870.76 427.449 870.36C428.756 869.933 429.876 869.48 430.809 869C431.743 868.52 432.516 868.08 433.129 867.68C433.769 867.253 434.316 867.04 434.769 867.04C435.356 867.04 435.809 867.267 436.129 867.72L438.129 870.32ZM481.376 835.48L464.856 876H458.456L441.936 835.48H447.736C448.322 835.48 448.802 835.627 449.176 835.92C449.549 836.213 449.802 836.56 449.936 836.96L460.216 863.04C460.536 864.027 460.816 864.987 461.056 865.92C461.296 866.853 461.522 867.787 461.736 868.72C461.949 867.787 462.176 866.853 462.416 865.92C462.656 864.987 462.949 864.027 463.296 863.04L473.696 836.96C473.856 836.533 474.122 836.187 474.496 835.92C474.869 835.627 475.309 835.48 475.816 835.48H481.376ZM513.932 851.32C513.932 849.667 513.692 848.16 513.212 846.8C512.759 845.413 512.079 844.227 511.172 843.24C510.292 842.227 509.212 841.453 507.932 840.92C506.652 840.36 505.199 840.08 503.572 840.08C500.159 840.08 497.452 841.08 495.452 843.08C493.479 845.053 492.252 847.8 491.772 851.32H513.932ZM519.692 870.32C518.812 871.387 517.759 872.32 516.532 873.12C515.305 873.893 513.985 874.533 512.572 875.04C511.185 875.547 509.745 875.92 508.252 876.16C506.759 876.427 505.279 876.56 503.812 876.56C501.012 876.56 498.425 876.093 496.052 875.16C493.705 874.2 491.665 872.813 489.932 871C488.225 869.16 486.892 866.893 485.932 864.2C484.972 861.507 484.492 858.413 484.492 854.92C484.492 852.093 484.919 849.453 485.772 847C486.652 844.547 487.905 842.427 489.532 840.64C491.159 838.827 493.145 837.413 495.492 836.4C497.839 835.36 500.479 834.84 503.412 834.84C505.839 834.84 508.079 835.253 510.132 836.08C512.212 836.88 513.999 838.053 515.492 839.6C517.012 841.12 518.199 843.013 519.052 845.28C519.905 847.52 520.332 850.08 520.332 852.96C520.332 854.08 520.212 854.827 519.972 855.2C519.732 855.573 519.279 855.76 518.612 855.76H491.532C491.612 858.32 491.959 860.547 492.572 862.44C493.212 864.333 494.092 865.92 495.212 867.2C496.332 868.453 497.665 869.4 499.212 870.04C500.759 870.653 502.492 870.96 504.412 870.96C506.199 870.96 507.732 870.76 509.012 870.36C510.319 869.933 511.439 869.48 512.372 869C513.305 868.52 514.079 868.08 514.692 867.68C515.332 867.253 515.879 867.04 516.332 867.04C516.919 867.04 517.372 867.267 517.692 867.72L519.692 870.32ZM536.438 817.08V876H529.317V817.08H536.438ZM565.064 834.84C568.024 834.84 570.69 835.333 573.064 836.32C575.437 837.307 577.464 838.707 579.144 840.52C580.824 842.333 582.104 844.533 582.984 847.12C583.89 849.68 584.344 852.547 584.344 855.72C584.344 858.92 583.89 861.8 582.984 864.36C582.104 866.92 580.824 869.107 579.144 870.92C577.464 872.733 575.437 874.133 573.064 875.12C570.69 876.08 568.024 876.56 565.064 876.56C562.077 876.56 559.384 876.08 556.984 875.12C554.61 874.133 552.584 872.733 550.904 870.92C549.224 869.107 547.93 866.92 547.024 864.36C546.144 861.8 545.704 858.92 545.704 855.72C545.704 852.547 546.144 849.68 547.024 847.12C547.93 844.533 549.224 842.333 550.904 840.52C552.584 838.707 554.61 837.307 556.984 836.32C559.384 835.333 562.077 834.84 565.064 834.84ZM565.064 871C569.064 871 572.05 869.667 574.024 867C575.997 864.307 576.984 860.56 576.984 855.76C576.984 850.933 575.997 847.173 574.024 844.48C572.05 841.787 569.064 840.44 565.064 840.44C563.037 840.44 561.264 840.787 559.744 841.48C558.25 842.173 556.997 843.173 555.984 844.48C554.997 845.787 554.25 847.4 553.744 849.32C553.264 851.213 553.024 853.36 553.024 855.76C553.024 860.56 554.01 864.307 555.984 867C557.984 869.667 561.01 871 565.064 871ZM600.534 866.24C601.841 868 603.268 869.24 604.814 869.96C606.361 870.68 608.094 871.04 610.014 871.04C613.801 871.04 616.708 869.693 618.734 867C620.761 864.307 621.774 860.467 621.774 855.48C621.774 852.84 621.534 850.573 621.054 848.68C620.601 846.787 619.934 845.24 619.054 844.04C618.174 842.813 617.094 841.92 615.814 841.36C614.534 840.8 613.081 840.52 611.454 840.52C609.134 840.52 607.094 841.053 605.334 842.12C603.601 843.187 602.001 844.693 600.534 846.64V866.24ZM600.174 841.76C601.881 839.653 603.854 837.96 606.094 836.68C608.334 835.4 610.894 834.76 613.774 834.76C616.121 834.76 618.241 835.213 620.134 836.12C622.028 837 623.641 838.32 624.974 840.08C626.308 841.813 627.334 843.973 628.054 846.56C628.774 849.147 629.134 852.12 629.134 855.48C629.134 858.467 628.734 861.253 627.934 863.84C627.134 866.4 625.974 868.627 624.454 870.52C622.961 872.387 621.121 873.867 618.934 874.96C616.774 876.027 614.334 876.56 611.614 876.56C609.134 876.56 607.001 876.147 605.214 875.32C603.454 874.467 601.894 873.293 600.534 871.8V889.72H593.374V835.48H597.654C598.668 835.48 599.294 835.973 599.534 836.96L600.174 841.76ZM665.338 851.32C665.338 849.667 665.098 848.16 664.618 846.8C664.165 845.413 663.485 844.227 662.578 843.24C661.698 842.227 660.618 841.453 659.338 840.92C658.058 840.36 656.605 840.08 654.978 840.08C651.565 840.08 648.858 841.08 646.858 843.08C644.885 845.053 643.658 847.8 643.178 851.32H665.338ZM671.098 870.32C670.218 871.387 669.165 872.32 667.938 873.12C666.711 873.893 665.391 874.533 663.978 875.04C662.591 875.547 661.151 875.92 659.658 876.16C658.165 876.427 656.685 876.56 655.218 876.56C652.418 876.56 649.831 876.093 647.458 875.16C645.111 874.2 643.071 872.813 641.338 871C639.631 869.16 638.298 866.893 637.338 864.2C636.378 861.507 635.898 858.413 635.898 854.92C635.898 852.093 636.325 849.453 637.178 847C638.058 844.547 639.311 842.427 640.938 840.64C642.565 838.827 644.551 837.413 646.898 836.4C649.245 835.36 651.885 834.84 654.818 834.84C657.245 834.84 659.485 835.253 661.538 836.08C663.618 836.88 665.405 838.053 666.898 839.6C668.418 841.12 669.605 843.013 670.458 845.28C671.311 847.52 671.738 850.08 671.738 852.96C671.738 854.08 671.618 854.827 671.378 855.2C671.138 855.573 670.685 855.76 670.018 855.76H642.938C643.018 858.32 643.365 860.547 643.978 862.44C644.618 864.333 645.498 865.92 646.618 867.2C647.738 868.453 649.071 869.4 650.618 870.04C652.165 870.653 653.898 870.96 655.818 870.96C657.605 870.96 659.138 870.76 660.418 870.36C661.725 869.933 662.845 869.48 663.778 869C664.711 868.52 665.485 868.08 666.098 867.68C666.738 867.253 667.285 867.04 667.738 867.04C668.325 867.04 668.778 867.267 669.098 867.72L671.098 870.32ZM687.244 843.6C688.524 840.827 690.097 838.667 691.964 837.12C693.83 835.547 696.11 834.76 698.804 834.76C699.657 834.76 700.47 834.853 701.244 835.04C702.044 835.227 702.75 835.52 703.364 835.92L702.844 841.24C702.684 841.907 702.284 842.24 701.644 842.24C701.27 842.24 700.724 842.16 700.004 842C699.284 841.84 698.47 841.76 697.564 841.76C696.284 841.76 695.137 841.947 694.124 842.32C693.137 842.693 692.244 843.253 691.444 844C690.67 844.72 689.964 845.627 689.324 846.72C688.71 847.787 688.15 849.013 687.644 850.4V876H680.484V835.48H684.564C685.337 835.48 685.87 835.627 686.164 835.92C686.457 836.213 686.657 836.72 686.764 837.44L687.244 843.6Z" fill="#231F20"/>
<ellipse cx="1065" cy="75.5" rx="51" ry="45.5" fill="#EFEFEF"/>
<path d="M1044.4 20.8317C1041.82 21.9094 1038.42 23.7333 1036.93 24.8939C1035.52 25.9716 1031.37 28.21 1027.8 29.868C1005.23 40.3136 997.678 65.7645 1009.63 91.2982C1012.12 96.6039 1019.5 106.303 1022.16 107.879C1022.99 108.376 1026.22 110.2 1029.29 112.024C1036.35 116.169 1044.56 118.739 1055.02 120.148C1072.36 122.469 1081.66 120.148 1088.46 111.941C1090.12 109.868 1094.35 104.894 1097.84 100.915C1105.64 92.0443 1108.04 87.9822 1109.87 81.0184C1112.03 72.5624 1111.11 64.9355 1106.97 56.5624C1104.06 50.6763 1102.24 48.5209 1091.2 37.7437C1080.58 27.298 1077.92 25.1426 1072.28 22.4897C1066.3 19.5882 1065.14 19.2566 1057.51 19.0908C1050.21 18.8421 1048.63 19.0079 1044.4 20.8317ZM1065.47 20.9975C1067.96 21.7436 1071.62 23.2359 1073.69 24.3965C1077.92 26.8006 1086.39 33.7644 1085.81 34.3447C1085.64 34.5105 1083.32 33.1841 1080.58 31.4431C1069.96 24.1478 1058.01 21.9923 1047.3 25.3913C1044.15 26.469 1040.33 27.1322 1038.75 26.9664L1035.93 26.7177L1039.92 24.3136C1047.8 19.6711 1056.76 18.4276 1065.47 20.9975ZM1070.62 27.5468C1075.52 29.2877 1075.76 30.5312 1071.03 29.4535C1069.04 29.039 1064.48 28.8732 1060.83 29.2048C1053.69 29.7851 1045.48 28.4587 1046.97 26.9664C1049.29 24.6452 1063.32 24.9768 1070.62 27.5468ZM1038.75 29.1219C1035.85 31.7747 1027.72 37.8266 1027.39 37.495C1026.89 36.9975 1028.88 34.0131 1031.62 31.0286C1033.11 29.5364 1034.61 28.7903 1036.43 28.7903C1037.92 28.7903 1038.92 28.9561 1038.75 29.1219ZM1048.38 29.6193C1049.71 30.1167 1049.79 30.3654 1048.8 30.697C1048.13 30.9457 1045.72 31.7747 1043.48 32.5209C1038.26 34.4276 1033.86 35.4224 1033.86 34.6763C1033.86 34.4276 1035.6 32.9354 1037.84 31.526C1041.74 28.8732 1045.14 28.21 1048.38 29.6193ZM1027.39 34.7592C1025.73 37.1634 1021.83 41.4742 1018.84 44.3758C1012.45 50.4276 1008.8 56.7282 1006.56 65.4329L1004.98 71.4847L1004.9 66.9251C1004.73 57.3914 1008.88 47.1945 1015.93 39.7333C1019.92 35.5053 1027.22 30.4483 1029.46 30.4483C1030.04 30.4483 1029.13 32.438 1027.39 34.7592ZM1057.92 33.0183C1057.92 33.4328 1056.68 33.7644 1055.1 33.7644C1053.53 33.7644 1051.7 34.0131 1050.95 34.2618C1050.21 34.5105 1049.63 34.4276 1049.63 34.0131C1049.63 32.9354 1054.6 31.4431 1056.51 31.9405C1057.26 32.1063 1057.92 32.6038 1057.92 33.0183ZM1065.81 32.438C1072.45 34.1789 1079.17 37.8266 1084.48 42.7178C1088.88 46.6142 1094.44 53.495 1094.44 54.8214C1094.44 55.153 1091.95 52.666 1088.88 49.4328C1082.24 42.3862 1077.42 39.153 1068.05 35.4224C1064.31 33.9302 1060.99 32.3551 1060.74 32.0234C1060.16 31.0286 1060.91 31.1115 1065.81 32.438ZM1081.57 33.8473C1082.82 35.0079 1080.99 34.6763 1078.67 33.267L1076.59 32.0234L1078.67 32.6038C1079.83 32.8525 1081.08 33.4328 1081.57 33.8473ZM1089.12 41.723C1092.28 45.7851 1091.45 45.868 1087.13 41.9717C1084.98 39.982 1082.07 37.495 1080.74 36.4172C1078.59 34.7592 1078.83 34.8421 1082.73 36.8317C1085.14 38.0753 1088.05 40.3136 1089.12 41.723ZM1039.17 36.9146C1035.27 39.4846 1029.71 44.9561 1026.22 49.6815C1023.9 52.7489 1021.83 55.3188 1021.66 55.3188C1021.49 55.3188 1022.32 53.495 1023.57 51.1738C1026.72 45.3706 1038.17 34.4276 1039.58 35.9198C1039.83 36.1685 1039.67 36.583 1039.17 36.9146ZM1063.48 36.6659C1065.81 37.3292 1068.63 38.6556 1069.71 39.6504L1071.62 41.3084L1068.3 40.811C1064.89 40.2307 1057.34 37.4121 1055.93 36.0856C1054.6 35.0079 1058.92 35.3395 1063.48 36.6659ZM1030.46 40.9768C1027.88 43.6297 1024.98 47.0287 1023.9 48.5209C1021.25 52.5002 1020.91 51.1738 1023.57 46.8629C1026.64 41.9717 1029.54 38.4898 1031.7 37.3292C1035.27 35.2566 1034.94 36.4172 1030.46 40.9768ZM1054.85 37.5779C1057.01 38.324 1058.75 39.153 1058.75 39.5675C1058.75 39.8991 1056.93 40.3965 1054.77 40.6452C1049.21 41.3084 1040.5 43.9613 1040.5 44.9561C1040.5 45.4535 1038.67 47.1945 1036.51 48.9354C1034.36 50.6763 1031.87 53.1634 1030.95 54.5727C1028.22 58.552 1027.8 57.3085 1030.21 52.7489C1031.54 50.4276 1033.61 48.0235 1034.85 47.3603C1037.43 46.0338 1038.01 45.1219 1035.77 45.9509C1033.36 46.78 1041.49 38.7385 1044.23 37.495C1047.63 36.0027 1050.29 36.0027 1054.85 37.5779ZM1025.73 41.3913C1025.15 41.9717 1024.73 42.0546 1024.73 41.5571C1024.73 40.3965 1025.73 39.4017 1026.31 39.982C1026.47 40.2307 1026.22 40.8939 1025.73 41.3913ZM1078.75 42.552C1080.66 43.7126 1081.99 44.8732 1081.74 45.039C1081.32 45.4535 1074.52 41.3084 1074.52 40.7281C1074.52 40.0649 1075.52 40.4794 1078.75 42.552ZM1020.33 50.0131C1018.76 54.0753 1017.18 58.3033 1016.85 59.381C1016.52 60.4588 1014.94 62.4484 1013.36 63.8577C1011.79 65.1842 1009.63 68.0857 1008.47 70.1583L1006.39 73.9717L1006.89 69.4951C1007.55 63.5261 1009.46 58.3033 1012.78 53.0805C1015.52 48.7696 1022.16 41.723 1022.82 42.3862C1022.99 42.552 1021.91 46.0338 1020.33 50.0131ZM1064.98 43.7955C1067.47 44.7074 1069.54 45.7851 1069.54 46.1167C1069.54 46.4484 1068.21 47.1945 1066.64 47.7748C1064.06 48.6867 1063.4 48.6038 1061.57 47.4432C1058.42 45.4535 1052.7 43.5468 1052.2 44.4587C1051.95 44.7903 1050.37 45.3706 1048.8 45.5364C1047.22 45.7851 1045.14 46.1996 1044.23 46.5313C1042.82 47.1116 1042.82 46.9458 1044.56 45.4535C1045.64 44.4587 1047.55 43.7126 1048.88 43.7126C1050.21 43.7126 1051.28 43.2981 1051.28 42.8836C1051.28 41.3913 1060.16 41.9717 1064.98 43.7955ZM1076.18 45.039C1077.18 46.0338 1077.01 46.1996 1074.93 46.1996C1072.78 46.1167 1068.71 43.7955 1068.71 42.6349C1068.71 41.8059 1074.93 43.8784 1076.18 45.039ZM1099.83 47.609C1109.95 59.8784 1112.44 71.8992 1107.55 84.9977C1105.55 90.3863 1104.56 90.1376 1106.3 84.5832C1110.45 71.7334 1107.88 58.8836 1099.17 48.9354C1093.94 43.0494 1093.27 42.0546 1094.35 42.0546C1094.85 42.0546 1097.34 44.5416 1099.83 47.609ZM1058.59 47.8577C1061.91 49.3499 1062.9 50.5934 1061.41 51.5054C1060.99 51.7541 1058.92 51.008 1056.6 50.0131C1054.36 48.9354 1051.62 47.6919 1050.45 47.1945C1048.55 46.3655 1048.63 46.2825 1051.7 46.2825C1053.53 46.2825 1056.6 46.9458 1058.59 47.8577ZM1082.15 51.5054C1084.98 55.4017 1088.88 62.78 1088.38 63.2774C1088.21 63.4432 1086.72 61.6194 1085.06 59.2981C1083.4 56.894 1080.58 53.4121 1078.67 51.5883C1074.77 47.7748 1074.6 47.1116 1077.51 47.6919C1078.75 47.9406 1080.66 49.4328 1082.15 51.5054ZM1049.63 48.7696C1054.77 49.8473 1055.02 51.1738 1050.04 51.1738C1045.72 51.1738 1041.74 52.666 1039.09 55.2359C1034.69 59.381 1036.51 55.2359 1041 50.7592C1044.23 47.4432 1043.98 47.5261 1049.63 48.7696ZM1075.68 51.3396C1077.26 53.3292 1078.5 54.9872 1078.34 55.0701C1078.17 55.3188 1070.12 52.9976 1067.3 51.9199C1066.22 51.5054 1065.39 50.9251 1065.39 50.5105C1065.39 49.5157 1068.71 48.0235 1070.95 47.9406C1072.03 47.8577 1073.77 49.1012 1075.68 51.3396ZM1100 51.4225C1105.97 59.381 1108.38 68.9147 1106.8 78.3655C1105.8 84.1687 1102.48 92.5417 1099.41 96.7697C1096.1 101.412 1096.18 99.2568 1099.66 91.1324C1102.9 83.4226 1103.07 82.7593 1103.07 74.3863C1103.07 66.6764 1102.82 65.0184 1100.74 60.293C1097.84 53.4121 1096.01 47.8577 1096.76 47.8577C1097.09 47.8577 1098.58 49.5157 1100 51.4225ZM1027.63 51.0909C1026.47 53.495 1024.73 55.153 1024.73 54.0753C1024.73 53.3292 1028.05 48.6867 1028.55 48.6867C1028.71 48.6867 1028.38 49.7644 1027.63 51.0909ZM1037.01 53.7437C1034.11 58.3033 1033.03 59.381 1033.03 57.5572C1033.03 56.065 1037.76 49.5157 1038.84 49.5157C1039.25 49.5157 1038.42 51.4225 1037.01 53.7437ZM1048.8 52.4173C1048.8 53.5779 1041.41 59.4639 1039.92 59.4639C1037.51 59.4639 1037.51 58.552 1039.92 56.3137C1042.32 53.9924 1048.8 51.1738 1048.8 52.4173ZM1089.71 54.2411C1093.11 57.8888 1095.51 64.1064 1094.93 67.837C1094.27 71.8992 1092.86 75.5469 1092.19 74.9666C1091.95 74.635 1091.45 71.4847 1091.12 67.9199C1090.78 63.6919 1089.79 59.7955 1088.38 56.7282C1085.97 51.5054 1086.39 50.8421 1089.71 54.2411ZM1054.36 53.3292C1054.11 53.5779 1053.36 53.6608 1052.78 53.4121C1052.11 53.1634 1052.36 52.9147 1053.28 52.9147C1054.19 52.8318 1054.69 53.0805 1054.36 53.3292ZM1066.8 54.1582C1066.55 54.4069 1065.81 54.4898 1065.23 54.2411C1064.56 53.9924 1064.81 53.7437 1065.72 53.7437C1066.64 53.6608 1067.13 53.9095 1066.8 54.1582ZM1076.68 56.3966C1080.41 58.3033 1081.66 60.2101 1083.32 66.6764C1085.56 75.7127 1083.4 76.2101 1080.83 67.3396C1079.58 63.1945 1076.59 59.6297 1071.86 56.7282C1066.89 53.5779 1070.79 53.3292 1076.68 56.3966ZM1054.6 54.8214C1054.6 54.9872 1052.36 56.5624 1049.71 58.2204C1046.47 60.293 1044.56 62.1168 1044.15 63.5261C1043.9 64.6867 1043.4 65.1842 1043.24 64.6038C1042.74 63.3603 1044.98 58.3862 1046.47 57.2256C1048.38 55.7334 1054.6 53.9095 1054.6 54.8214ZM1081.57 56.7282L1083.07 59.0494L1081.32 57.4743C1080.33 56.5624 1079.5 55.5676 1079.5 55.153C1079.5 53.9924 1080.08 54.4069 1081.57 56.7282ZM1019 58.7178C1018.59 59.7955 1018.17 60.293 1018.17 59.7126C1018.09 58.4691 1019 55.9821 1019.42 56.3966C1019.67 56.5624 1019.42 57.6401 1019 58.7178ZM1024.07 57.9717C1023.49 58.552 1023.07 58.6349 1023.07 58.1375C1023.07 56.9769 1024.07 55.9821 1024.65 56.5624C1024.81 56.8111 1024.56 57.4743 1024.07 57.9717ZM1069.62 58.3862C1070.7 59.6297 1070.62 59.6297 1068.96 58.7178C1066.97 57.723 1066.55 56.9769 1067.8 56.9769C1068.21 56.9769 1069.04 57.5572 1069.62 58.3862ZM1057.34 61.2878C1057.09 63.2774 1056.76 64.9355 1056.68 65.1013C1056.51 65.2671 1055.27 64.7696 1053.86 64.0235L1051.2 62.6971L1052.94 60.293C1053.94 58.8836 1055.43 57.8059 1056.26 57.8059C1057.59 57.8059 1057.67 58.3033 1057.34 61.2878ZM1064.73 58.8007C1065.47 59.381 1066.64 60.8733 1067.47 62.1168C1068.88 64.3551 1068.88 64.3551 1066.47 64.8526C1065.23 65.1842 1063.15 65.7645 1061.91 66.2619C1058.67 67.5054 1057.67 66.5106 1058.34 62.4484C1058.67 60.6246 1059.09 58.8007 1059.33 58.3862C1059.91 57.4743 1063.32 57.723 1064.73 58.8007ZM1026.97 64.0235C1026.22 67.1738 1025.98 67.6712 1025.73 66.0132C1025.48 63.9406 1026.97 58.8836 1027.63 59.5468C1027.8 59.7126 1027.47 61.7852 1026.97 64.0235ZM1033.53 60.7904C1032.45 63.6919 1032.03 73.4743 1032.86 76.0443C1033.69 78.3655 1033.61 78.6142 1032.36 78.3655C1031.2 78.1168 1030.87 76.8733 1030.54 70.9044C1030.29 67.008 1030.37 63.9406 1030.79 64.1893C1031.12 64.3551 1031.37 63.609 1031.37 62.5313C1031.37 60.4588 1031.95 59.4639 1033.28 59.4639C1033.69 59.4639 1033.78 60.0442 1033.53 60.7904ZM1050.45 60.2101C1050.45 61.2049 1048.8 62.2826 1048.21 61.7023C1047.63 61.122 1048.71 59.4639 1049.71 59.4639C1050.12 59.4639 1050.45 59.7955 1050.45 60.2101ZM1101.16 64.6038C1102.57 70.1583 1102.57 81.6816 1101.16 83.92C1100.33 85.3293 1100.24 84.8319 1100.66 80.9355C1100.99 78.1997 1100.66 73.0598 1099.91 68.3344C1098.34 58.8836 1098.42 59.2152 1099.33 59.7955C1099.75 60.0442 1100.58 62.2826 1101.16 64.6038ZM1023.4 63.4432C1023.07 64.9355 1022.57 66.0961 1022.16 66.0961C1021.16 66.0961 1021.25 65.0184 1022.24 62.2826C1023.4 59.381 1024.07 60.1271 1023.4 63.4432ZM1040.5 61.122C1040.5 61.5365 1040.17 61.951 1039.75 61.951C1039.25 61.951 1038.67 61.5365 1038.42 61.122C1038.17 60.6246 1038.51 60.293 1039.17 60.293C1039.92 60.293 1040.5 60.6246 1040.5 61.122ZM1038.01 61.951C1039.42 62.6971 1039.42 63.0287 1038.26 66.9251C1037.59 69.2463 1037.18 73.2256 1037.34 75.7127C1037.59 80.7697 1036.51 81.2671 1034.94 76.7904C1033.69 73.2256 1033.61 67.0909 1034.77 63.6919C1035.77 60.7904 1035.85 60.7904 1038.01 61.951ZM1017.35 67.7541L1016.52 69.8267V67.7541C1016.43 66.5935 1016.76 64.7696 1017.1 63.609L1017.68 61.5365L1017.93 63.609C1018.09 64.7696 1017.76 66.6764 1017.35 67.7541ZM1048.55 62.8629C1049.13 63.4432 1049.29 65.5158 1049.04 68.2515C1048.71 71.236 1049.04 73.9717 1049.96 76.9562C1050.79 79.2775 1051.2 81.35 1051.04 81.5158C1050.87 81.7645 1049.54 80.6039 1048.21 79.1117C1046.22 76.7904 1045.64 75.2153 1045.14 70.7386C1044.48 63.7748 1045.97 60.293 1048.55 62.8629ZM1084.89 66.0961L1085.31 68.9976L1084.15 66.0961C1082.65 62.6142 1082.49 61.2878 1083.65 62.4484C1084.06 62.8629 1084.64 64.5209 1084.89 66.0961ZM1015.1 71.236C1014.69 77.7852 1014.86 79.7749 1016.35 84.2516C1017.26 87.1531 1017.93 89.7231 1017.76 89.8889C1017.59 90.0547 1016.02 89.5573 1014.27 88.7283C1008.13 85.8267 1005.98 79.7749 1008.55 73.0598C1009.79 69.8267 1014.19 63.609 1015.27 63.609C1015.52 63.609 1015.44 67.0909 1015.1 71.236ZM1078.34 67.5883C1077.59 68.2515 1074.52 65.9303 1074.52 64.6867C1074.52 63.609 1074.93 63.6919 1076.59 65.2671C1077.76 66.3448 1078.5 67.3396 1078.34 67.5883ZM1041.58 68.3344C1041.82 70.5728 1042.32 73.8059 1042.57 75.6298C1042.9 77.8681 1042.65 79.4433 1041.82 80.521C1040.17 82.5935 1039 81.5987 1038.42 77.3707C1037.84 73.6401 1039.25 64.438 1040.41 64.438C1040.83 64.438 1041.33 66.179 1041.58 68.3344ZM1055.02 65.7645C1057.51 67.3396 1057.67 69.4951 1055.52 71.4018C1054.36 72.4795 1053.86 72.5624 1053.19 71.7334C1052.45 70.8215 1050.45 65.5987 1050.45 64.7696C1050.45 63.9406 1053.19 64.6038 1055.02 65.7645ZM1089.12 70.4899C1090.87 75.8785 1090.12 79.6091 1086.8 81.9303L1084.23 83.8371L1084.81 79.692C1085.14 77.4536 1085.64 73.0598 1085.89 69.9925C1086.39 63.8577 1086.88 63.9406 1089.12 70.4899ZM1029.54 74.1376C1029.29 76.5417 1029.05 76.9562 1028.55 75.7956C1028.13 75.0495 1028.13 72.2308 1028.55 69.578C1029.21 65.2671 1029.29 65.1013 1029.54 67.9199C1029.71 69.6609 1029.71 72.4795 1029.54 74.1376ZM1020.58 70.7386C1020.58 72.8111 1021.16 77.0391 1021.91 80.2723C1023.57 87.6505 1022.99 89.6402 1021 83.0909C1019.17 76.9562 1018.26 65.5987 1019.67 66.4277C1020.17 66.7593 1020.58 68.666 1020.58 70.7386ZM1068.55 67.0909C1068.3 67.6712 1066.55 68.2515 1064.48 68.4173C1061.08 68.5831 1060.91 68.5002 1062.4 67.3396C1064.4 65.7645 1068.96 65.6816 1068.55 67.0909ZM1072.86 69.0805C1072.86 69.7438 1072.53 70.0754 1072.03 69.8267C1071.62 69.578 1071.2 68.7489 1071.2 68.0857C1071.2 67.4225 1071.62 67.0909 1072.03 67.3396C1072.53 67.5883 1072.86 68.4173 1072.86 69.0805ZM1078.5 69.578C1079.91 70.9873 1079.75 72.7282 1078.25 72.7282C1077.26 72.7282 1075.35 70.407 1075.35 69.0805C1075.35 68.1686 1077.51 68.5831 1078.5 69.578ZM1066.72 70.3241C1067.63 71.8163 1065.64 73.1427 1064.15 71.8992C1063.48 71.3189 1062.9 70.5728 1062.9 70.1583C1062.9 69.0805 1066.06 69.2463 1066.72 70.3241ZM1052.11 72.6453C1052.61 73.9717 1052.94 76.1272 1052.78 77.3707L1052.45 79.7749L1051.53 77.7023C1050.29 74.5521 1049.54 70.2412 1050.37 70.2412C1050.79 70.2412 1051.53 71.3189 1052.11 72.6453ZM1063.32 71.8992C1064.73 73.4743 1064.73 73.6401 1063.32 75.2153L1061.74 76.9562L1060.66 75.0495C1058.34 70.8215 1060.25 68.5002 1063.32 71.8992ZM1069.71 76.6246C1069.21 79.1946 1068.38 81.6816 1068.05 82.0132C1067.22 82.8422 1062.9 79.692 1062.9 78.1168C1062.9 77.5365 1063.48 76.6246 1064.15 76.0443C1065.14 75.2153 1065.56 75.3811 1066.22 76.9562C1067.05 78.7801 1067.05 78.7801 1066.64 76.5417C1066.06 73.6401 1068.38 69.578 1069.79 70.9873C1070.45 71.6505 1070.45 73.1427 1069.71 76.6246ZM1073.27 76.3759C1072.78 80.4381 1071.7 82.6764 1070.29 82.6764C1069.87 82.6764 1069.96 81.6816 1070.37 80.521C1070.87 79.3604 1071.2 77.0391 1071.2 75.2982C1071.2 71.9821 1071.78 70.8215 1073.11 71.6505C1073.52 71.8992 1073.61 73.8888 1073.27 76.3759ZM1059.33 74.8008C1061.08 78.4484 1060.16 79.4433 1057.43 76.7904C1056.1 75.464 1055.52 74.2205 1055.93 73.3085C1056.76 71.1531 1057.84 71.6505 1059.33 74.8008ZM1098.34 77.2049C1097.75 83.008 1095.76 88.977 1092.28 94.863C1089.29 100.003 1088.96 98.5107 1091.45 91.2982C1097.09 74.9666 1098.17 71.8992 1098.5 71.8992C1098.67 71.8992 1098.58 74.3034 1098.34 77.2049ZM1077.67 75.3811C1077.51 76.3759 1077.01 77.2878 1076.51 77.4536C1075.93 77.6194 1075.68 76.9562 1075.93 75.6298C1076.43 73.1427 1078.09 72.8111 1077.67 75.3811ZM1026.64 79.0288C1027.47 81.5987 1027.88 83.92 1027.63 84.1687C1027.14 84.749 1023.98 77.7023 1023.9 75.7956C1023.9 72.894 1025.23 74.5521 1026.64 79.0288ZM1080.33 76.5417C1080.33 77.951 1077.59 82.4277 1076.18 83.3397C1073.69 84.8319 1074.02 82.7593 1076.84 79.1117C1078.92 76.3759 1080.33 75.2982 1080.33 76.5417ZM1057.43 79.5262C1056.6 80.8526 1054.6 80.1065 1054.6 78.5313C1054.6 77.122 1054.85 76.9562 1056.18 77.8681C1057.09 78.4484 1057.59 79.1946 1057.43 79.5262ZM1030.62 80.4381C1030.62 82.179 1030.71 82.179 1031.29 80.6039C1031.95 79.0288 1032.12 79.1117 1034.61 81.7645C1037.68 84.9977 1037.76 85.6609 1035.44 86.9044C1033.44 87.8992 1032.2 86.8215 1032.2 84.0858C1032.2 83.2567 1031.87 82.7593 1031.45 83.0909C1030.54 83.5884 1028.88 80.9355 1028.88 78.9459C1028.88 76.9562 1030.54 78.3655 1030.62 80.4381ZM1045.89 81.9303C1045.39 82.6764 1042.99 82.0132 1042.99 81.1013C1042.99 80.7697 1043.24 80.1894 1043.57 79.9407C1044.23 79.1946 1046.39 81.0184 1045.89 81.9303ZM1020.91 85.4951C1022.49 90.3034 1022.49 90.1376 1021.49 90.1376C1020.75 90.1376 1019.59 87.1531 1018.51 82.2619C1017.68 78.5313 1019.34 80.6868 1020.91 85.4951ZM1048.38 81.0184C1048.63 81.4329 1048.46 81.8474 1048.05 81.8474C1047.55 81.8474 1047.14 81.4329 1047.14 81.0184C1047.14 80.521 1047.3 80.1894 1047.47 80.1894C1047.72 80.1894 1048.13 80.521 1048.38 81.0184ZM1062.4 82.179C1066.3 84.5003 1065.31 85.578 1060 84.749C1055.68 84.1687 1054.69 83.008 1056.76 81.4329C1058.75 79.8578 1058.67 79.8578 1062.4 82.179ZM1082.32 82.0132C1081.74 83.8371 1080.58 85.1635 1079.33 85.1635C1078.34 85.1635 1078.5 84.5003 1080 82.2619C1081.66 79.692 1083.15 79.5262 1082.32 82.0132ZM1051.2 86.5728C1053.53 88.3138 1055.1 89.806 1054.6 89.9718C1053.44 90.3863 1044.73 87.7334 1042.49 86.2412C1039.58 84.4174 1040.08 83.5055 1043.73 83.5055C1046.22 83.5055 1048.05 84.2516 1051.2 86.5728ZM1053.86 85.2464C1054.77 86.1583 1055.35 87.1531 1055.1 87.4018C1054.69 87.8163 1049.63 84.5832 1049.63 83.8371C1049.63 82.8422 1052.36 83.7542 1053.86 85.2464ZM1087.38 85.0806C1087.13 85.578 1086.14 86.407 1085.22 86.8215C1084.06 87.4847 1083.65 87.4018 1083.65 86.5728C1083.65 85.9096 1084.48 84.9977 1085.56 84.5832C1087.63 83.5884 1088.21 83.7542 1087.38 85.0806ZM1064.31 87.4018C1063.07 88.7283 1062.74 88.7283 1060.25 87.4847L1057.51 86.0754H1061.66C1065.47 85.9925 1065.64 86.0754 1064.31 87.4018ZM1069.54 86.7386C1069.54 87.1531 1068.96 87.7334 1068.21 87.9822C1066.22 88.7283 1065.89 88.5625 1067.05 87.236C1068.21 85.8267 1069.54 85.578 1069.54 86.7386ZM1079.42 87.6505C1078.92 88.0651 1077.84 88.148 1077.18 87.8163C1076.1 87.4847 1076.18 87.236 1077.51 86.8215C1079.42 86.0754 1080.91 86.7386 1079.42 87.6505ZM1043.48 92.293C1048.63 98.1791 1048.05 98.7594 1040.91 94.6972C1036.02 91.8785 1034.19 89.6402 1035.52 88.0651C1037.26 85.9925 1038.42 86.5728 1043.48 92.293ZM1095.85 94.034C1094.68 96.1894 1093.02 98.7594 1092.03 99.5884C1089.71 101.744 1089.79 100.583 1092.28 97.3501C1093.36 95.8578 1094.93 93.0392 1095.76 90.9666C1096.68 88.7283 1097.42 87.8163 1097.59 88.6454C1097.75 89.3915 1096.92 91.7956 1095.85 94.034ZM1013.94 91.6298C1013.94 92.7076 1014.11 92.7905 1014.69 91.9614C1015.93 89.8889 1018.34 91.2982 1020.83 95.5262C1022.16 97.8475 1024.9 101.329 1026.89 103.402C1028.88 105.474 1030.54 107.464 1030.54 107.796C1030.54 108.708 1023.32 103.651 1019.17 99.8371C1017.18 98.0133 1015.6 96.0236 1015.6 95.4433C1015.6 94.7801 1015.1 94.2827 1014.52 94.2827C1013.53 94.2827 1012.62 92.9563 1010.79 89.0599C1010.54 88.6454 1011.2 88.7283 1012.2 89.2257C1013.11 89.806 1013.94 90.8008 1013.94 91.6298ZM1046.72 89.7231C1048.55 90.3863 1051.45 90.8837 1053.11 90.9666C1054.77 90.9666 1056.43 91.2982 1056.68 91.7956C1057.59 93.2879 1050.21 92.7076 1046.55 90.9666C1044.56 90.1376 1042.99 89.2257 1042.99 88.8941C1042.99 88.3138 1042.9 88.3138 1046.72 89.7231ZM1076.51 89.2257C1077.92 89.806 1077.92 89.9718 1075.76 91.6298C1073.61 93.3708 1069.54 94.1169 1069.54 92.8734C1069.54 91.8785 1073.11 88.4796 1074.02 88.5625C1074.52 88.5625 1075.68 88.8941 1076.51 89.2257ZM1085.31 89.2257C1085.31 90.5521 1078.09 98.0133 1075.27 99.5884C1072.61 101.081 1072.69 100.915 1076.43 97.1842C1078.59 94.9459 1080.33 92.8734 1080.33 92.4588C1080.33 91.5469 1083.48 88.4796 1084.48 88.4796C1084.98 88.4796 1085.31 88.8112 1085.31 89.2257ZM1084.15 95.4433C1082.4 98.262 1079.17 101.578 1076.1 103.816C1071.62 107.132 1070.54 107.547 1066.72 107.464C1064.4 107.464 1061.74 107.132 1060.83 106.801C1059.5 106.221 1060.08 105.889 1063.65 105.143C1072.78 103.153 1080.74 98.1791 1084.56 92.0443C1085.64 90.3863 1086.64 89.4744 1086.8 89.9718C1086.97 90.4692 1085.72 92.9563 1084.15 95.4433ZM1040.5 103.816C1047.55 108.956 1052.94 111.029 1059.33 111.195C1061.74 111.195 1063.73 111.443 1063.73 111.775C1063.73 112.687 1058.84 113.35 1051.95 113.35C1046.06 113.35 1044.98 113.101 1041.91 110.946C1035.02 106.221 1026.39 95.4433 1026.39 91.6298C1026.39 91.1324 1028.13 92.6247 1030.37 94.9459C1032.53 97.3501 1037.09 101.329 1040.5 103.816ZM1034.69 93.0392C1035.77 94.1998 1036.43 95.1117 1036.18 95.1117C1036.02 95.1117 1034.94 94.1998 1033.86 93.0392C1032.78 91.8785 1032.12 90.9666 1032.36 90.9666C1032.53 90.9666 1033.61 91.8785 1034.69 93.0392ZM1026.81 96.9355C1031.78 104.645 1031.78 104.811 1029.29 102.573C1026.97 100.5 1022.24 93.7024 1022.24 92.4588C1022.24 90.7179 1023.73 92.2101 1026.81 96.9355ZM1075.6 96.7697C1070.2 101.744 1063.9 104.231 1056.84 104.231C1051.2 104.231 1046.89 102.656 1052.11 102.49C1053.69 102.49 1055.77 102.158 1056.68 101.744C1057.76 101.329 1056.76 101.246 1054.11 101.495C1050.87 101.827 1048.96 101.495 1045.89 100.169C1041.33 98.1791 1040 98.4278 1043.73 100.583C1045.14 101.412 1046.31 102.407 1046.31 102.822C1046.31 103.816 1043.73 102.241 1040.41 99.091C1038.84 97.5988 1038.09 96.8526 1038.84 97.3501C1040.66 98.7594 1041.74 98.6765 1040.58 97.2672C1039.83 96.3552 1040.66 96.4381 1043.73 97.6817C1046.47 98.6765 1050.04 99.2568 1053.86 99.2568C1057.51 99.2568 1059.5 99.5884 1059.17 100.086C1058.26 101.661 1060.16 100.915 1063.4 98.5936C1065.23 97.2672 1068.55 95.7749 1070.79 95.1946C1073.11 94.6143 1075.85 93.7024 1077.01 93.0392C1080.66 91.0495 1080.08 92.7076 1075.6 96.7697ZM1056.68 93.7024C1059 93.205 1060.74 93.205 1061.74 93.7024C1062.99 94.4485 1062.82 94.6972 1060.33 96.0236C1056.43 98.0962 1052.36 98.0133 1049.04 95.692C1045.39 93.205 1045.56 92.6247 1049.71 93.7024C1051.95 94.2827 1054.27 94.2827 1056.68 93.7024ZM1086.97 99.5055C1084.89 103.982 1083.23 105.557 1079.91 106.386C1077.59 106.967 1077.76 106.635 1082.65 101.329C1085.47 98.262 1087.8 95.2775 1087.88 94.7801C1087.88 94.1998 1088.05 94.1998 1088.29 94.863C1088.54 95.3604 1087.88 97.433 1086.97 99.5055ZM1025.73 106.635C1027.88 108.044 1032.53 110.366 1036.1 111.775C1044.15 115.008 1047.38 116.666 1046.89 117.246C1046.22 117.91 1038.34 115.174 1032.61 112.272C1027.14 109.537 1017.26 102.075 1017.26 100.666C1017.26 100.169 1018.26 100.749 1019.59 101.91C1020.83 103.07 1023.57 105.143 1025.73 106.635ZM1049.29 106.469C1051.95 107.63 1053.69 108.791 1053.19 108.956C1052.28 109.288 1043.82 105.392 1043.82 104.645C1043.82 103.982 1044.15 104.148 1049.29 106.469ZM1084.15 109.702C1079.91 113.35 1078.92 112.438 1083.07 108.625C1084.81 107.05 1086.55 105.972 1086.8 106.303C1087.13 106.635 1085.89 108.127 1084.15 109.702ZM1079.5 110.449C1076.51 113.599 1071.37 115.588 1065.23 116.086C1062.07 116.335 1059.58 116.252 1059.58 115.92C1059.58 115.506 1078.75 108.708 1080.66 108.459C1081.08 108.376 1080.58 109.288 1079.5 110.449ZM1085.22 113.018C1082.15 116.335 1075.68 119.236 1070.45 119.651L1065.81 120.065L1070.37 118.49C1072.86 117.661 1077.59 115.588 1080.74 113.93C1087.8 110.283 1087.8 110.283 1085.22 113.018ZM1062.82 117.993C1062.99 118.158 1061.24 118.324 1058.92 118.324C1056.6 118.324 1054.52 117.993 1054.19 117.495C1053.77 116.832 1061.99 117.246 1062.82 117.993Z" fill="#98D73C" fill-opacity="0.969"/>
</svg>
