<svg width="2391" height="607" viewBox="0 0 2391 607" fill="none" xmlns="http://www.w3.org/2000/svg">
<path d="M1954.83 149.982C1954.83 156.093 1964.08 158.64 1971.19 154.566C1977.59 151.001 1977.59 150.746 1969.41 152.528C1964.08 153.547 1959.81 152.783 1958.03 150.746C1956.25 148.709 1954.83 148.454 1954.83 149.982Z" fill="#98D73C" fill-opacity="0.969"/>
<path d="M2057.96 168.061C2057.96 173.408 2067.21 176.719 2076.1 174.172L2084.63 171.626H2075.74C2070.41 171.371 2064.72 170.098 2062.23 168.316C2059.39 166.279 2057.96 166.279 2057.96 168.061Z" fill="#98D73C" fill-opacity="0.969"/>
<path d="M1846.72 176.21C1845.3 177.737 1842.1 178.247 1839.25 177.228C1835.34 176.21 1834.63 176.973 1836.05 180.029C1837.12 182.321 1839.61 184.103 1841.03 184.103C1844.94 184.103 1853.12 176.464 1850.63 174.936C1849.57 174.172 1847.79 174.682 1846.72 176.21Z" fill="#98D73C" fill-opacity="0.969"/>
<path d="M1926.74 185.885C1926.38 193.27 1931 195.052 1939.18 190.214C1945.58 186.395 1945.58 186.395 1938.12 187.922C1932.78 188.941 1929.94 188.177 1928.87 184.867C1927.45 181.302 1927.09 181.302 1926.74 185.885Z" fill="#98D73C" fill-opacity="0.969"/>
<path d="M1994.66 196.58C1996.08 204.473 2001.06 205.747 2009.95 200.654C2017.07 196.58 2017.07 196.58 2009.24 198.108C2003.91 199.126 2000.35 198.108 1997.51 195.052C1994.31 190.978 1993.95 191.233 1994.66 196.58Z" fill="#98D73C" fill-opacity="0.969"/>
<path d="M1791.96 207.02C1792.67 213.895 1794.8 216.187 1800.49 216.696C1804.4 217.205 1810.09 215.423 1812.94 213.131C1817.56 209.057 1817.2 209.057 1809.74 211.858C1802.27 214.659 1801.2 214.15 1796.58 206.511L1791.24 198.108L1791.96 207.02Z" fill="#98D73C" fill-opacity="0.969"/>
<path d="M1730.79 206.256C1730.79 213.386 1736.12 215.677 1743.95 212.367C1748.57 210.585 1748.92 209.821 1745.37 209.566C1742.52 209.566 1738.26 207.529 1735.77 204.983C1731.5 200.909 1731.14 201.163 1730.79 206.256Z" fill="#98D73C" fill-opacity="0.969"/>
<path d="M2067.56 216.951C2069.7 223.317 2073.25 223.571 2079.66 217.969C2083.21 214.914 2083.57 214.15 2080.01 215.678C2077.52 216.696 2073.25 216.441 2070.41 214.659C2066.5 212.367 2066.14 212.877 2067.56 216.951Z" fill="#98D73C" fill-opacity="0.969"/>
<path d="M1681 218.224C1681 222.298 1687.4 226.118 1690.6 223.826C1691.67 223.062 1689.89 220.77 1686.69 218.479C1681.71 214.914 1681 214.914 1681 218.224Z" fill="#98D73C" fill-opacity="0.969"/>
<path d="M2136.56 221.534C2136.2 228.664 2140.47 230.446 2151.14 227.645C2159.32 225.099 2159.32 225.099 2149.71 225.099C2144.02 224.844 2139.76 223.062 2138.69 220.261C2137.27 216.951 2136.91 217.205 2136.56 221.534Z" fill="#98D73C" fill-opacity="0.969"/>
<path d="M1873.04 226.372C1873.04 228.409 1876.24 229.937 1879.79 229.937C1890.46 229.937 1891.89 225.608 1881.93 224.335C1875.88 223.317 1873.04 224.081 1873.04 226.372Z" fill="#98D73C" fill-opacity="0.969"/>
<path d="M1948.43 235.539C1949.5 237.322 1953.76 239.104 1958.74 239.359C1963.72 239.613 1964.79 239.359 1961.23 238.595C1957.68 237.831 1954.83 236.049 1954.83 234.775C1954.83 233.502 1953.05 232.484 1950.92 232.484C1948.79 232.484 1947.72 234.011 1948.43 235.539Z" fill="#98D73C" fill-opacity="0.969"/>
<path d="M1745.01 238.595C1745.01 242.669 1751.41 246.488 1754.61 244.196C1755.68 243.433 1753.9 241.141 1750.7 238.849C1745.72 235.284 1745.01 235.284 1745.01 238.595Z" fill="#98D73C" fill-opacity="0.969"/>
<path d="M1809.38 245.724C1809.02 251.836 1810.45 252.854 1818.98 252.6C1826.81 252.6 1827.52 252.09 1821.83 250.562C1817.92 249.544 1813.65 246.488 1812.23 243.687C1810.09 239.613 1809.38 240.122 1809.38 245.724Z" fill="#98D73C" fill-opacity="0.969"/>
<path d="M2004.62 252.09C2004.62 259.984 2009.95 261.257 2021.33 256.673L2031.29 252.599L2021.69 254.127C2014.93 255.146 2011.02 254.127 2008.53 251.072C2005.33 246.997 2004.97 246.997 2004.62 252.09Z" fill="#98D73C" fill-opacity="0.969"/>
<path d="M1919.62 253.363C1919.27 258.456 1925.31 259.22 1933.49 255.146C1937.76 252.854 1937.41 252.599 1931 253.618C1926.74 254.382 1922.47 253.618 1921.4 251.835C1920.69 250.308 1919.62 251.072 1919.62 253.363Z" fill="#98D73C" fill-opacity="0.969"/>
<path d="M1685.62 256.164C1687.4 260.493 1693.09 260.748 1699.85 257.437C1705.18 254.382 1704.83 254.127 1695.22 253.872C1689.18 253.618 1684.91 254.636 1685.62 256.164Z" fill="#98D73C" fill-opacity="0.969"/>
<path d="M1865.93 264.313C1865.93 268.387 1876.59 271.697 1880.51 268.896C1881.93 267.878 1879.44 265.586 1874.46 263.804C1867.7 261.512 1865.93 261.767 1865.93 264.313Z" fill="#98D73C" fill-opacity="0.969"/>
<path d="M2186.7 265.586C2188.12 272.97 2200.21 275.516 2206.97 269.66C2210.53 266.604 2210.17 266.095 2203.41 267.368C2198.08 268.387 2193.81 267.368 2190.61 264.058C2185.63 259.474 2185.63 259.474 2186.7 265.586Z" fill="#98D73C" fill-opacity="0.969"/>
<path d="M2086.41 268.896C2086.41 272.716 2097.79 273.734 2102.42 270.424C2106.68 267.368 2105.97 266.859 2097.08 266.859C2091.04 266.859 2086.41 267.878 2086.41 268.896Z" fill="#98D73C" fill-opacity="0.969"/>
<path d="M1745.01 280.354C1745.01 285.193 1755.33 292.322 1758.88 289.776C1761.02 287.993 1759.24 285.702 1753.55 282.646C1748.92 280.1 1745.01 279.081 1745.01 280.354Z" fill="#98D73C" fill-opacity="0.969"/>
<path d="M1809.03 284.429C1809.03 289.012 1825.03 290.285 1828.58 285.957C1829.65 284.429 1828.23 284.174 1825.03 284.938C1822.18 285.957 1817.2 285.193 1814.36 283.41C1810.09 280.864 1809.03 281.119 1809.03 284.429Z" fill="#98D73C" fill-opacity="0.969"/>
<path d="M1926.74 286.975C1928.52 293.596 1934.21 294.36 1942.38 289.776C1948.43 286.466 1948.43 286.211 1943.1 287.485C1939.9 288.249 1934.56 287.485 1931.36 285.702C1926.38 282.647 1925.67 282.901 1926.74 286.975Z" fill="#98D73C" fill-opacity="0.969"/>
<path d="M2023.47 292.068C2014.22 295.123 2012.8 298.688 2020.27 298.688C2024.89 298.688 2035.56 291.558 2032.71 290.285C2032 289.776 2027.73 290.795 2023.47 292.068Z" fill="#98D73C" fill-opacity="0.969"/>
<path d="M2132.64 302.253C2132.64 305.054 2135.49 306.327 2142.6 306.073C2147.94 306.073 2150.07 305.309 2146.87 304.545C2144.02 303.781 2139.4 301.998 2137.27 300.471C2134.07 298.688 2132.64 299.197 2132.64 302.253Z" fill="#98D73C" fill-opacity="0.969"/>
<path d="M1862.37 305.054C1862.37 310.401 1871.26 312.438 1879.08 309.128C1884.77 306.836 1884.77 306.582 1877.66 306.327C1873.04 306.327 1869.48 305.054 1869.48 303.781C1869.48 302.253 1868.06 301.234 1865.93 301.234C1864.15 301.234 1862.37 303.017 1862.37 305.054Z" fill="#98D73C" fill-opacity="0.969"/>
<path d="M1947.72 314.73C1947.72 320.587 1956.25 322.878 1964.43 319.314C1970.48 316.767 1970.48 316.767 1963.72 316.513C1959.45 316.513 1954.48 315.239 1951.99 313.457C1948.79 311.165 1947.72 311.42 1947.72 314.73Z" fill="#98D73C" fill-opacity="0.969"/>
<path d="M1802.27 316.767C1801.91 323.388 1810.09 329.499 1816.14 326.698C1820.76 324.661 1820.76 324.152 1815.78 324.152C1812.58 324.152 1808.31 321.605 1806.18 318.295C1803.69 314.73 1802.27 313.966 1802.27 316.767Z" fill="#98D73C" fill-opacity="0.969"/>
<path d="M2050.85 321.605C2050.85 329.244 2056.54 332.555 2064.72 329.499C2073.97 325.68 2074.68 323.388 2065.43 325.425C2060.81 326.443 2057.25 325.425 2054.76 322.369C2051.92 318.804 2051.21 318.55 2050.85 321.605Z" fill="#98D73C" fill-opacity="0.969"/>
<path d="M1887.62 335.61C1887.26 344.522 1892.24 348.087 1901.49 344.522C1905.75 342.994 1908.24 340.957 1907.18 339.939C1905.75 339.175 1902.91 339.939 1900.78 341.467C1897.58 343.758 1895.44 342.994 1892.24 337.393C1888.68 331.791 1887.97 331.536 1887.62 335.61Z" fill="#98D73C" fill-opacity="0.969"/>
<path d="M2156.83 342.485C2152.91 349.615 2162.52 353.18 2174.25 348.596L2184.21 344.777L2172.83 346.05C2163.94 347.323 2161.45 346.814 2160.38 342.994C2159.32 338.666 2158.96 338.666 2156.83 342.485Z" fill="#98D73C" fill-opacity="0.969"/>
<path d="M1991.1 347.323C1992.17 353.943 2002.84 356.999 2009.24 352.416C2011.73 350.633 2010.31 350.379 2004.97 351.397C1999.64 352.416 1997.51 351.652 1997.51 348.851C1997.51 346.559 1995.73 344.013 1993.59 342.994C1991.1 341.976 1990.39 343.503 1991.1 347.323Z" fill="#98D73C" fill-opacity="0.969"/>
<path d="M2083.57 362.856C2085.7 367.184 2100.28 368.712 2105.26 365.147C2107.75 363.365 2106.33 363.11 2101.7 363.874C2097.44 364.638 2093.17 364.129 2092.1 362.601C2088.55 358.782 2081.79 359.036 2083.57 362.856Z" fill="#98D73C" fill-opacity="0.969"/>
<path d="M1944.87 369.222C1946.3 375.333 1956.61 376.352 1966.21 371.259C1974.39 367.439 1974.39 367.439 1963.01 368.967C1955.19 369.986 1951.28 369.731 1951.28 367.694C1951.28 366.166 1949.5 364.893 1947.36 364.893C1945.23 364.893 1944.16 366.93 1944.87 369.222Z" fill="#98D73C" fill-opacity="0.969"/>
<path d="M2033.42 376.861C2033.07 383.99 2044.8 389.083 2053.7 385.518C2059.03 383.227 2059.03 382.972 2052.27 382.717C2048.01 382.717 2041.96 380.171 2039.11 376.861L2033.42 371.259V376.861Z" fill="#98D73C" fill-opacity="0.969"/>
<path d="M1881.93 382.717C1882.64 386.282 1883.71 389.847 1883.71 390.611C1883.71 393.921 1894.37 395.194 1902.2 392.903C1909.67 390.865 1909.31 390.611 1899 390.611C1890.11 390.356 1886.91 388.828 1884.06 383.226C1880.51 376.861 1880.15 376.861 1881.93 382.717Z" fill="#98D73C" fill-opacity="0.969"/>
<path d="M2129.8 392.903C2130.51 398.25 2133 399.268 2143.31 399.778C2150.07 399.778 2152.2 399.523 2147.94 398.759C2143.31 398.25 2137.27 395.194 2134.07 392.139L2128.73 386.537L2129.8 392.903Z" fill="#98D73C" fill-opacity="0.969"/>
<path d="M1976.17 408.18C1976.17 417.347 1990.75 421.167 2002.84 415.055C2008.53 411.745 2008.17 411.491 1997.86 412.764C1989.68 413.528 1985.06 412.509 1981.5 409.199C1977.24 405.379 1976.52 405.125 1976.17 408.18Z" fill="#98D73C" fill-opacity="0.969"/>
<path d="M2072.9 415.819C2073.97 421.421 2075.39 422.185 2089.26 421.93C2097.44 421.93 2105.97 420.657 2107.75 419.384C2109.88 417.856 2105.62 417.347 2096.37 417.856C2084.99 418.875 2080.37 417.856 2076.45 414.291C2071.83 409.708 2071.83 409.708 2072.9 415.819Z" fill="#98D73C" fill-opacity="0.969"/>
<path d="M5.2 418V414L30 408.8L137.2 134.8H167.6L273.2 408.8L297.6 414V418H195.6V414.8L224 409.2L133.2 172H128.8L79.2 304C74.4 316 70.6667 327.467 68 338.4C65.6 349.333 64.4 358.933 64.4 367.2C64.4 376.267 66 384.4 69.2 391.6C72.6667 398.8 78.1333 404.4 85.6 408.4C93.0667 412.133 102.8 414 114.8 414V418H5.2ZM74 302.8V298.8L185.6 294.4V302.8H74ZM320.734 418V414L342.734 409.2V230H318.334V225.6L386.734 212V275.6L389.934 278.8C393.934 269.733 397.801 261.6 401.534 254.4C405.268 247.2 409.001 241.2 412.734 236.4C419.401 227.867 426.334 221.733 433.534 218C441.001 214 449.134 212 457.934 212C464.068 212 469.668 213.2 474.734 215.6C480.068 218 484.334 221.6 487.534 226.4C491.001 230.933 492.734 236.8 492.734 244C492.734 249.333 491.268 254.267 488.334 258.8C485.668 263.333 481.801 267.067 476.734 270C471.668 272.667 465.534 274 458.334 274C451.934 274 446.201 272.933 441.134 270.8C436.068 268.4 432.068 265.2 429.134 261.2C426.468 257.2 425.134 252.8 425.134 248C425.134 245.867 425.268 244.133 425.534 242.8C426.068 241.2 426.468 239.733 426.734 238.4C427.001 236.8 427.134 235.6 427.134 234.8C427.134 232.933 426.468 232 425.134 232C422.468 232 419.268 234.4 415.534 239.2C412.068 243.733 408.068 250.533 403.534 259.6C400.601 264.933 397.668 271.333 394.734 278.8C391.801 286.267 389.134 294 386.734 302V409.2L409.134 414V418H320.734ZM616.866 424C597.132 424 579.532 419.6 564.066 410.8C548.866 402 536.866 389.733 528.066 374C519.532 358.267 515.266 340.267 515.266 320C515.266 303.733 517.932 289.067 523.266 276C528.866 262.667 536.599 251.2 546.466 241.6C556.599 232 568.599 224.667 582.466 219.6C596.599 214.533 612.332 212 629.666 212C640.066 212 650.199 213.2 660.066 215.6C669.932 217.733 678.866 221.067 686.866 225.6C694.866 229.867 701.132 235.2 705.666 241.6C710.199 247.733 712.466 254.8 712.466 262.8C712.466 268.4 710.866 273.067 707.666 276.8C704.732 280.267 700.599 282.933 695.266 284.8C689.932 286.667 684.066 287.6 677.666 287.6C668.066 287.6 659.666 285.6 652.466 281.6C645.532 277.6 642.066 271.6 642.066 263.6C642.066 258.267 643.799 253.6 647.266 249.6C650.999 245.6 656.199 242.667 662.866 240.8C672.999 237.333 678.066 234.267 678.066 231.6C678.066 229.467 676.332 227.333 672.866 225.2C669.399 222.8 664.466 220.933 658.066 219.6C651.666 218 643.932 217.2 634.866 217.2C623.666 217.2 613.399 219.733 604.066 224.8C594.999 229.6 587.132 236.4 580.466 245.2C573.799 253.733 568.599 263.733 564.866 275.2C561.399 286.667 559.666 299.067 559.666 312.4C559.666 327.067 561.532 340.4 565.266 352.4C568.999 364.133 574.199 374.267 580.866 382.8C587.532 391.067 595.666 397.467 605.266 402C614.866 406.533 625.532 408.8 637.266 408.8C648.199 408.8 658.599 406.933 668.466 403.2C678.332 399.467 687.266 394 695.266 386.8C703.266 379.6 709.799 370.667 714.866 360L718.866 364C712.732 376 705.799 386 698.066 394C690.599 401.733 682.466 407.867 673.666 412.4C664.866 416.667 655.666 419.6 646.066 421.2C636.466 423.067 626.732 424 616.866 424ZM988.803 414V418H902.003V414L922.403 410V276.4C922.403 260.4 919.603 248.4 914.003 240.4C908.403 232.4 900.27 228.4 889.603 228.4C882.403 228.4 875.203 230.667 868.003 235.2C861.07 239.733 854.27 245.6 847.603 252.8C841.203 260 835.336 267.733 830.003 276C824.67 284.267 820.403 292.133 817.203 299.6V410L837.603 414V418H750.803V414L773.203 410V138H748.403V133.6L817.203 120V277.6L820.403 280.4C827.603 266.533 835.736 254.533 844.803 244.4C853.87 234 863.736 226 874.403 220.4C885.07 214.8 896.536 212 908.803 212C919.47 212 928.403 213.733 935.603 217.2C943.07 220.4 948.936 225.067 953.203 231.2C957.736 237.333 961.07 244.667 963.203 253.2C965.336 261.733 966.403 271.467 966.403 282.4V410L988.803 414ZM1058.82 179.6C1051.89 179.6 1045.75 178.533 1040.42 176.4C1035.09 174.267 1030.95 171.333 1028.02 167.6C1025.09 163.867 1023.62 159.6 1023.62 154.8C1023.62 149.733 1025.09 145.467 1028.02 142C1030.95 138.267 1035.09 135.333 1040.42 133.2C1045.75 131.067 1051.89 130 1058.82 130C1065.75 130 1071.89 131.067 1077.22 133.2C1082.55 135.333 1086.69 138.267 1089.62 142C1092.82 145.467 1094.42 149.733 1094.42 154.8C1094.42 159.6 1092.82 163.867 1089.62 167.6C1086.69 171.333 1082.55 174.267 1077.22 176.4C1071.89 178.533 1065.75 179.6 1058.82 179.6ZM1016.82 418V414L1039.22 410V230H1014.42V225.6L1083.22 212V410L1105.22 414V418H1016.82ZM1196.66 424C1182.52 424 1172.26 419.867 1165.86 411.6C1159.72 403.067 1156.66 390.133 1156.66 372.8V226H1128.26V222L1157.06 218L1195.06 152.4H1200.66V215.2L1243.46 222V226H1200.66V386.8C1200.66 396.133 1201.99 402.8 1204.66 406.8C1207.32 410.8 1210.92 412.8 1215.46 412.8C1220.26 412.8 1224.79 411.2 1229.06 408C1233.59 404.533 1238.12 400.267 1242.66 395.2L1244.26 400C1241.59 402.933 1238.39 405.867 1234.66 408.8C1231.19 411.467 1227.32 414 1223.06 416.4C1219.06 418.8 1214.79 420.667 1210.26 422C1205.99 423.333 1201.46 424 1196.66 424ZM1480.96 424C1464.43 424 1450.43 421.333 1438.96 416C1427.49 410.667 1418.69 403.867 1412.56 395.6C1406.69 387.333 1403.76 378.8 1403.76 370C1403.76 364.4 1404.69 359.467 1406.56 355.2C1408.69 350.933 1411.49 347.333 1414.96 344.4C1418.69 341.2 1422.96 338.933 1427.76 337.6C1432.56 336 1437.76 335.2 1443.36 335.2C1448.69 335.2 1453.63 336 1458.16 337.6C1462.96 339.2 1466.83 341.6 1469.76 344.8C1472.69 347.733 1474.16 351.6 1474.16 356.4C1474.16 362 1472.96 366.533 1470.56 370C1468.43 373.467 1465.63 376.133 1462.16 378C1458.69 379.867 1454.96 381.333 1450.96 382.4C1446.96 383.2 1443.09 384.133 1439.36 385.2C1435.89 386.267 1432.96 387.733 1430.56 389.6C1428.43 391.2 1427.36 393.733 1427.36 397.2C1427.36 398.533 1428.83 400.933 1431.76 404.4C1434.96 407.867 1439.49 411.067 1445.36 414C1451.49 416.667 1458.69 418 1466.96 418C1474.69 418 1481.63 416.533 1487.76 413.6C1494.16 410.4 1499.36 405.2 1503.36 398C1507.63 390.8 1510.56 381.067 1512.16 368.8C1513.76 356.533 1513.76 341.067 1512.16 322.4V144L1473.76 138.8V134.8H1557.76V328.8C1558.56 352 1556.16 370.667 1550.56 384.8C1545.23 398.933 1536.69 409.067 1524.96 415.2C1513.49 421.067 1498.83 424 1480.96 424ZM1712.72 212C1728.19 212 1741.39 213.867 1752.32 217.6C1763.52 221.067 1772.72 226.533 1779.92 234C1787.12 241.467 1792.32 250.933 1795.52 262.4C1798.72 273.6 1800.32 286.933 1800.32 302.4V404C1800.32 408 1801.12 410.933 1802.72 412.8C1804.59 414.667 1806.99 415.6 1809.92 415.6C1813.12 415.6 1816.72 414.667 1820.72 412.8C1824.99 410.933 1829.12 408.533 1833.12 405.6V410C1829.92 412.933 1826.05 415.467 1821.52 417.6C1817.25 419.733 1812.72 421.333 1807.92 422.4C1803.12 423.467 1798.45 424 1793.92 424C1782.19 424 1772.99 420.933 1766.32 414.8C1759.65 408.4 1756.32 398.133 1756.32 384C1756.32 378.667 1756.32 374.8 1756.32 372.4C1756.32 369.733 1756.32 367.733 1756.32 366.4C1756.32 365.067 1756.32 363.6 1756.32 362L1753.12 359.6C1748.05 369.733 1741.92 378.8 1734.72 386.8C1727.79 394.8 1719.92 401.6 1711.12 407.2C1702.59 412.533 1693.79 416.667 1684.72 419.6C1675.65 422.533 1666.59 424 1657.52 424C1647.65 424 1638.72 422.267 1630.72 418.8C1622.72 415.6 1616.32 410.8 1611.52 404.4C1606.72 397.733 1604.32 389.6 1604.32 380C1604.32 357.333 1617.25 340.133 1643.12 328.4C1668.99 316.4 1706.72 310.4 1756.32 310.4C1756.32 287.733 1754.59 269.867 1751.12 256.8C1747.65 243.467 1741.65 233.867 1733.12 228C1724.59 222.133 1712.85 219.2 1697.92 219.2C1688.05 219.2 1679.25 220.133 1671.52 222C1664.05 223.6 1658.19 225.6 1653.92 228C1649.92 230.4 1647.92 232.533 1647.92 234.4C1647.92 235.733 1649.12 237.2 1651.52 238.8C1654.19 240.133 1658.85 242.133 1665.52 244.8C1677.79 249.6 1683.92 256.4 1683.92 265.2C1683.92 273.2 1680.45 279.333 1673.52 283.6C1666.59 287.6 1658.19 289.6 1648.32 289.6C1638.72 289.6 1630.45 287.467 1623.52 283.2C1616.85 278.933 1613.52 272.8 1613.52 264.8C1613.52 258.4 1616.19 252.133 1621.52 246C1627.12 239.6 1634.45 233.867 1643.52 228.8C1652.85 223.733 1663.39 219.733 1675.12 216.8C1687.12 213.6 1699.65 212 1712.72 212ZM1756.32 315.2C1730.99 315.2 1710.05 318 1693.52 323.6C1676.99 328.933 1664.72 336.267 1656.72 345.6C1648.72 354.933 1644.72 365.333 1644.72 376.8C1644.72 383.733 1646.05 389.467 1648.72 394C1651.65 398.267 1655.52 401.467 1660.32 403.6C1665.12 405.733 1670.59 406.8 1676.72 406.8C1683.39 406.8 1690.45 405.6 1697.92 403.2C1705.65 400.533 1713.25 396.533 1720.72 391.2C1728.19 385.867 1734.99 379.2 1741.12 371.2C1747.52 362.933 1752.59 353.2 1756.32 342V315.2ZM1900.62 179.6C1893.68 179.6 1887.55 178.533 1882.22 176.4C1876.88 174.267 1872.75 171.333 1869.82 167.6C1866.88 163.867 1865.42 159.6 1865.42 154.8C1865.42 149.733 1866.88 145.467 1869.82 142C1872.75 138.267 1876.88 135.333 1882.22 133.2C1887.55 131.067 1893.68 130 1900.62 130C1907.55 130 1913.68 131.067 1919.02 133.2C1924.35 135.333 1928.48 138.267 1931.42 142C1934.62 145.467 1936.22 149.733 1936.22 154.8C1936.22 159.6 1934.62 163.867 1931.42 167.6C1928.48 171.333 1924.35 174.267 1919.02 176.4C1913.68 178.533 1907.55 179.6 1900.62 179.6ZM1858.62 418V414L1881.02 410V230H1856.22V225.6L1925.02 212V410L1947.02 414V418H1858.62ZM2222.45 414V418H2131.25V414L2154.05 410V276.4C2154.05 260.4 2151.25 248.4 2145.65 240.4C2140.05 232.4 2131.92 228.4 2121.25 228.4C2114.05 228.4 2106.85 230.667 2099.65 235.2C2092.72 239.733 2085.92 245.6 2079.25 252.8C2072.85 260 2066.99 267.733 2061.65 276C2056.32 284.267 2051.92 292.133 2048.45 299.6V410L2071.25 414V418H1982.45V414L2004.45 410V230H1980.05V225.6L2048.45 212V277.6L2051.65 280.4C2059.12 266.533 2067.25 254.533 2076.05 244.4C2085.12 234 2094.99 226 2105.65 220.4C2116.59 214.8 2128.19 212 2140.45 212C2151.12 212 2160.05 213.733 2167.25 217.2C2174.45 220.4 2180.32 225.067 2184.85 231.2C2189.39 237.333 2192.72 244.667 2194.85 253.2C2196.99 261.733 2198.05 271.467 2198.05 282.4V410L2222.45 414Z" fill="#231F20"/>
<path d="M1500.08 502V522.04H1523.64V528.36H1500.08V553H1492.32V495.68H1527.64V502H1500.08ZM1539.2 520.6C1540.48 517.827 1542.05 515.667 1543.92 514.12C1545.78 512.547 1548.06 511.76 1550.76 511.76C1551.61 511.76 1552.42 511.853 1553.2 512.04C1554 512.227 1554.7 512.52 1555.32 512.92L1554.8 518.24C1554.64 518.907 1554.24 519.24 1553.6 519.24C1553.22 519.24 1552.68 519.16 1551.96 519C1551.24 518.84 1550.42 518.76 1549.52 518.76C1548.24 518.76 1547.09 518.947 1546.08 519.32C1545.09 519.693 1544.2 520.253 1543.4 521C1542.62 521.72 1541.92 522.627 1541.28 523.72C1540.66 524.787 1540.1 526.013 1539.6 527.4V553H1532.44V512.48H1536.52C1537.29 512.48 1537.82 512.627 1538.12 512.92C1538.41 513.213 1538.61 513.72 1538.72 514.44L1539.2 520.6ZM1577.02 511.84C1579.98 511.84 1582.64 512.333 1585.02 513.32C1587.39 514.307 1589.42 515.707 1591.1 517.52C1592.78 519.333 1594.06 521.533 1594.94 524.12C1595.84 526.68 1596.3 529.547 1596.3 532.72C1596.3 535.92 1595.84 538.8 1594.94 541.36C1594.06 543.92 1592.78 546.107 1591.1 547.92C1589.42 549.733 1587.39 551.133 1585.02 552.12C1582.64 553.08 1579.98 553.56 1577.02 553.56C1574.03 553.56 1571.34 553.08 1568.94 552.12C1566.56 551.133 1564.54 549.733 1562.86 547.92C1561.18 546.107 1559.88 543.92 1558.98 541.36C1558.1 538.8 1557.66 535.92 1557.66 532.72C1557.66 529.547 1558.1 526.68 1558.98 524.12C1559.88 521.533 1561.18 519.333 1562.86 517.52C1564.54 515.707 1566.56 514.307 1568.94 513.32C1571.34 512.333 1574.03 511.84 1577.02 511.84ZM1577.02 548C1581.02 548 1584 546.667 1585.98 544C1587.95 541.307 1588.94 537.56 1588.94 532.76C1588.94 527.933 1587.95 524.173 1585.98 521.48C1584 518.787 1581.02 517.44 1577.02 517.44C1574.99 517.44 1573.22 517.787 1571.7 518.48C1570.2 519.173 1568.95 520.173 1567.94 521.48C1566.95 522.787 1566.2 524.4 1565.7 526.32C1565.22 528.213 1564.98 530.36 1564.98 532.76C1564.98 537.56 1565.96 541.307 1567.94 544C1569.94 546.667 1572.96 548 1577.02 548ZM1612.05 518.36C1612.93 517.373 1613.86 516.48 1614.85 515.68C1615.83 514.88 1616.87 514.2 1617.97 513.64C1619.09 513.053 1620.26 512.613 1621.49 512.32C1622.74 512 1624.09 511.84 1625.53 511.84C1627.74 511.84 1629.69 512.213 1631.37 512.96C1633.07 513.68 1634.49 514.72 1635.61 516.08C1636.75 517.413 1637.62 519.027 1638.21 520.92C1638.79 522.813 1639.09 524.907 1639.09 527.2V553H1631.93V527.2C1631.93 524.133 1631.22 521.76 1629.81 520.08C1628.42 518.373 1626.3 517.52 1623.45 517.52C1621.34 517.52 1619.37 518.027 1617.53 519.04C1615.71 520.053 1614.03 521.427 1612.49 523.16V553H1605.33V512.48H1609.61C1610.62 512.48 1611.25 512.973 1611.49 513.96L1612.05 518.36ZM1661.83 553.64C1658.63 553.64 1656.16 552.747 1654.43 550.96C1652.72 549.173 1651.87 546.6 1651.87 543.24V518.44H1646.99C1646.56 518.44 1646.2 518.32 1645.91 518.08C1645.62 517.813 1645.47 517.413 1645.47 516.88V514.04L1652.11 513.2L1653.75 500.68C1653.83 500.28 1654 499.96 1654.27 499.72C1654.56 499.453 1654.94 499.32 1655.39 499.32H1658.99V513.28H1670.71V518.44H1658.99V542.76C1658.99 544.467 1659.4 545.733 1660.23 546.56C1661.06 547.387 1662.12 547.8 1663.43 547.8C1664.18 547.8 1664.82 547.707 1665.35 547.52C1665.91 547.307 1666.39 547.08 1666.79 546.84C1667.19 546.6 1667.52 546.387 1667.79 546.2C1668.08 545.987 1668.34 545.88 1668.55 545.88C1668.92 545.88 1669.26 546.107 1669.55 546.56L1671.63 549.96C1670.4 551.107 1668.92 552.013 1667.19 552.68C1665.46 553.32 1663.67 553.64 1661.83 553.64ZM1704.95 528.32C1704.95 526.667 1704.71 525.16 1704.23 523.8C1703.77 522.413 1703.09 521.227 1702.19 520.24C1701.31 519.227 1700.23 518.453 1698.95 517.92C1697.67 517.36 1696.21 517.08 1694.59 517.08C1691.17 517.08 1688.47 518.08 1686.47 520.08C1684.49 522.053 1683.27 524.8 1682.79 528.32H1704.95ZM1710.71 547.32C1709.83 548.387 1708.77 549.32 1707.55 550.12C1706.32 550.893 1705 551.533 1703.59 552.04C1702.2 552.547 1700.76 552.92 1699.27 553.16C1697.77 553.427 1696.29 553.56 1694.83 553.56C1692.03 553.56 1689.44 553.093 1687.07 552.16C1684.72 551.2 1682.68 549.813 1680.95 548C1679.24 546.16 1677.91 543.893 1676.95 541.2C1675.99 538.507 1675.51 535.413 1675.51 531.92C1675.51 529.093 1675.93 526.453 1676.79 524C1677.67 521.547 1678.92 519.427 1680.55 517.64C1682.17 515.827 1684.16 514.413 1686.51 513.4C1688.85 512.36 1691.49 511.84 1694.43 511.84C1696.85 511.84 1699.09 512.253 1701.15 513.08C1703.23 513.88 1705.01 515.053 1706.51 516.6C1708.03 518.12 1709.21 520.013 1710.07 522.28C1710.92 524.52 1711.35 527.08 1711.35 529.96C1711.35 531.08 1711.23 531.827 1710.99 532.2C1710.75 532.573 1710.29 532.76 1709.63 532.76H1682.55C1682.63 535.32 1682.97 537.547 1683.59 539.44C1684.23 541.333 1685.11 542.92 1686.23 544.2C1687.35 545.453 1688.68 546.4 1690.23 547.04C1691.77 547.653 1693.51 547.96 1695.43 547.96C1697.21 547.96 1698.75 547.76 1700.03 547.36C1701.33 546.933 1702.45 546.48 1703.39 546C1704.32 545.52 1705.09 545.08 1705.71 544.68C1706.35 544.253 1706.89 544.04 1707.35 544.04C1707.93 544.04 1708.39 544.267 1708.71 544.72L1710.71 547.32ZM1726.81 518.36C1727.69 517.373 1728.63 516.48 1729.61 515.68C1730.6 514.88 1731.64 514.2 1732.73 513.64C1733.85 513.053 1735.03 512.613 1736.25 512.32C1737.51 512 1738.85 511.84 1740.29 511.84C1742.51 511.84 1744.45 512.213 1746.13 512.96C1747.84 513.68 1749.25 514.72 1750.37 516.08C1751.52 517.413 1752.39 519.027 1752.97 520.92C1753.56 522.813 1753.85 524.907 1753.85 527.2V553H1746.69V527.2C1746.69 524.133 1745.99 521.76 1744.57 520.08C1743.19 518.373 1741.07 517.52 1738.21 517.52C1736.11 517.52 1734.13 518.027 1732.29 519.04C1730.48 520.053 1728.8 521.427 1727.25 523.16V553H1720.09V512.48H1724.37C1725.39 512.48 1726.01 512.973 1726.25 513.96L1726.81 518.36ZM1791.1 522.12C1789.77 520.333 1788.33 519.093 1786.78 518.4C1785.24 517.68 1783.5 517.32 1781.58 517.32C1777.82 517.32 1774.93 518.667 1772.9 521.36C1770.88 524.053 1769.86 527.893 1769.86 532.88C1769.86 535.52 1770.09 537.787 1770.54 539.68C1771 541.547 1771.66 543.093 1772.54 544.32C1773.42 545.52 1774.5 546.4 1775.78 546.96C1777.06 547.52 1778.52 547.8 1780.14 547.8C1782.49 547.8 1784.53 547.267 1786.26 546.2C1788.02 545.133 1789.64 543.627 1791.1 541.68V522.12ZM1798.22 494.08V553H1793.98C1792.97 553 1792.33 552.507 1792.06 551.52L1791.42 546.6C1789.69 548.68 1787.72 550.36 1785.5 551.64C1783.29 552.92 1780.73 553.56 1777.82 553.56C1775.5 553.56 1773.4 553.12 1771.5 552.24C1769.61 551.333 1768 550.013 1766.66 548.28C1765.33 546.547 1764.3 544.387 1763.58 541.8C1762.86 539.213 1762.5 536.24 1762.5 532.88C1762.5 529.893 1762.9 527.12 1763.7 524.56C1764.5 521.973 1765.65 519.733 1767.14 517.84C1768.64 515.947 1770.46 514.467 1772.62 513.4C1774.81 512.307 1777.26 511.76 1779.98 511.76C1782.46 511.76 1784.58 512.187 1786.34 513.04C1788.13 513.867 1789.72 515.027 1791.1 516.52V494.08H1798.22ZM1881.3 524.36C1881.3 528.653 1880.62 532.56 1879.26 536.08C1877.9 539.6 1875.98 542.613 1873.5 545.12C1871.02 547.627 1868.03 549.573 1864.54 550.96C1861.07 552.32 1857.23 553 1853.02 553H1831.62V495.68H1853.02C1857.23 495.68 1861.07 496.373 1864.54 497.76C1868.03 499.12 1871.02 501.067 1873.5 503.6C1875.98 506.107 1877.9 509.12 1879.26 512.64C1880.62 516.16 1881.3 520.067 1881.3 524.36ZM1873.34 524.36C1873.34 520.84 1872.86 517.693 1871.9 514.92C1870.94 512.147 1869.58 509.8 1867.82 507.88C1866.06 505.96 1863.92 504.493 1861.42 503.48C1858.91 502.467 1856.11 501.96 1853.02 501.96H1839.38V546.72H1853.02C1856.11 546.72 1858.91 546.213 1861.42 545.2C1863.92 544.187 1866.06 542.733 1867.82 540.84C1869.58 538.92 1870.94 536.573 1871.9 533.8C1872.86 531.027 1873.34 527.88 1873.34 524.36ZM1917.37 528.32C1917.37 526.667 1917.13 525.16 1916.65 523.8C1916.2 522.413 1915.52 521.227 1914.61 520.24C1913.73 519.227 1912.65 518.453 1911.37 517.92C1910.09 517.36 1908.64 517.08 1907.01 517.08C1903.6 517.08 1900.89 518.08 1898.89 520.08C1896.92 522.053 1895.69 524.8 1895.21 528.32H1917.37ZM1923.13 547.32C1922.25 548.387 1921.2 549.32 1919.97 550.12C1918.74 550.893 1917.42 551.533 1916.01 552.04C1914.62 552.547 1913.18 552.92 1911.69 553.16C1910.2 553.427 1908.72 553.56 1907.25 553.56C1904.45 553.56 1901.86 553.093 1899.49 552.16C1897.14 551.2 1895.1 549.813 1893.37 548C1891.66 546.16 1890.33 543.893 1889.37 541.2C1888.41 538.507 1887.93 535.413 1887.93 531.92C1887.93 529.093 1888.36 526.453 1889.21 524C1890.09 521.547 1891.34 519.427 1892.97 517.64C1894.6 515.827 1896.58 514.413 1898.93 513.4C1901.28 512.36 1903.92 511.84 1906.85 511.84C1909.28 511.84 1911.52 512.253 1913.57 513.08C1915.65 513.88 1917.44 515.053 1918.93 516.6C1920.45 518.12 1921.64 520.013 1922.49 522.28C1923.34 524.52 1923.77 527.08 1923.77 529.96C1923.77 531.08 1923.65 531.827 1923.41 532.2C1923.17 532.573 1922.72 532.76 1922.05 532.76H1894.97C1895.05 535.32 1895.4 537.547 1896.01 539.44C1896.65 541.333 1897.53 542.92 1898.65 544.2C1899.77 545.453 1901.1 546.4 1902.65 547.04C1904.2 547.653 1905.93 547.96 1907.85 547.96C1909.64 547.96 1911.17 547.76 1912.45 547.36C1913.76 546.933 1914.88 546.48 1915.81 546C1916.74 545.52 1917.52 545.08 1918.13 544.68C1918.77 544.253 1919.32 544.04 1919.77 544.04C1920.36 544.04 1920.81 544.267 1921.13 544.72L1923.13 547.32ZM1966.38 512.48L1949.86 553H1943.46L1926.94 512.48H1932.74C1933.32 512.48 1933.8 512.627 1934.18 512.92C1934.55 513.213 1934.8 513.56 1934.94 513.96L1945.22 540.04C1945.54 541.027 1945.82 541.987 1946.06 542.92C1946.3 543.853 1946.52 544.787 1946.74 545.72C1946.95 544.787 1947.18 543.853 1947.42 542.92C1947.66 541.987 1947.95 541.027 1948.3 540.04L1958.7 513.96C1958.86 513.533 1959.12 513.187 1959.5 512.92C1959.87 512.627 1960.31 512.48 1960.82 512.48H1966.38ZM1998.93 528.32C1998.93 526.667 1998.69 525.16 1998.21 523.8C1997.76 522.413 1997.08 521.227 1996.17 520.24C1995.29 519.227 1994.21 518.453 1992.93 517.92C1991.65 517.36 1990.2 517.08 1988.57 517.08C1985.16 517.08 1982.45 518.08 1980.45 520.08C1978.48 522.053 1977.25 524.8 1976.77 528.32H1998.93ZM2004.69 547.32C2003.81 548.387 2002.76 549.32 2001.53 550.12C2000.31 550.893 1998.99 551.533 1997.57 552.04C1996.19 552.547 1994.75 552.92 1993.25 553.16C1991.76 553.427 1990.28 553.56 1988.81 553.56C1986.01 553.56 1983.43 553.093 1981.05 552.16C1978.71 551.2 1976.67 549.813 1974.93 548C1973.23 546.16 1971.89 543.893 1970.93 541.2C1969.97 538.507 1969.49 535.413 1969.49 531.92C1969.49 529.093 1969.92 526.453 1970.77 524C1971.65 521.547 1972.91 519.427 1974.53 517.64C1976.16 515.827 1978.15 514.413 1980.49 513.4C1982.84 512.36 1985.48 511.84 1988.41 511.84C1990.84 511.84 1993.08 512.253 1995.13 513.08C1997.21 513.88 1999 515.053 2000.49 516.6C2002.01 518.12 2003.2 520.013 2004.05 522.28C2004.91 524.52 2005.33 527.08 2005.33 529.96C2005.33 531.08 2005.21 531.827 2004.97 532.2C2004.73 532.573 2004.28 532.76 2003.61 532.76H1976.53C1976.61 535.32 1976.96 537.547 1977.57 539.44C1978.21 541.333 1979.09 542.92 1980.21 544.2C1981.33 545.453 1982.67 546.4 1984.21 547.04C1985.76 547.653 1987.49 547.96 1989.41 547.96C1991.2 547.96 1992.73 547.76 1994.01 547.36C1995.32 546.933 1996.44 546.48 1997.37 546C1998.31 545.52 1999.08 545.08 1999.69 544.68C2000.33 544.253 2000.88 544.04 2001.33 544.04C2001.92 544.04 2002.37 544.267 2002.69 544.72L2004.69 547.32ZM2021.44 494.08V553H2014.32V494.08H2021.44ZM2050.06 511.84C2053.02 511.84 2055.69 512.333 2058.06 513.32C2060.44 514.307 2062.46 515.707 2064.14 517.52C2065.82 519.333 2067.1 521.533 2067.98 524.12C2068.89 526.68 2069.34 529.547 2069.34 532.72C2069.34 535.92 2068.89 538.8 2067.98 541.36C2067.1 543.92 2065.82 546.107 2064.14 547.92C2062.46 549.733 2060.44 551.133 2058.06 552.12C2055.69 553.08 2053.02 553.56 2050.06 553.56C2047.08 553.56 2044.38 553.08 2041.98 552.12C2039.61 551.133 2037.58 549.733 2035.9 547.92C2034.22 546.107 2032.93 543.92 2032.02 541.36C2031.14 538.8 2030.7 535.92 2030.7 532.72C2030.7 529.547 2031.14 526.68 2032.02 524.12C2032.93 521.533 2034.22 519.333 2035.9 517.52C2037.58 515.707 2039.61 514.307 2041.98 513.32C2044.38 512.333 2047.08 511.84 2050.06 511.84ZM2050.06 548C2054.06 548 2057.05 546.667 2059.02 544C2061 541.307 2061.98 537.56 2061.98 532.76C2061.98 527.933 2061 524.173 2059.02 521.48C2057.05 518.787 2054.06 517.44 2050.06 517.44C2048.04 517.44 2046.26 517.787 2044.74 518.48C2043.25 519.173 2042 520.173 2040.98 521.48C2040 522.787 2039.25 524.4 2038.74 526.32C2038.26 528.213 2038.02 530.36 2038.02 532.76C2038.02 537.56 2039.01 541.307 2040.98 544C2042.98 546.667 2046.01 548 2050.06 548ZM2085.53 543.24C2086.84 545 2088.27 546.24 2089.81 546.96C2091.36 547.68 2093.09 548.04 2095.01 548.04C2098.8 548.04 2101.71 546.693 2103.73 544C2105.76 541.307 2106.77 537.467 2106.77 532.48C2106.77 529.84 2106.53 527.573 2106.05 525.68C2105.6 523.787 2104.93 522.24 2104.05 521.04C2103.17 519.813 2102.09 518.92 2100.81 518.36C2099.53 517.8 2098.08 517.52 2096.45 517.52C2094.13 517.52 2092.09 518.053 2090.33 519.12C2088.6 520.187 2087 521.693 2085.53 523.64V543.24ZM2085.17 518.76C2086.88 516.653 2088.85 514.96 2091.09 513.68C2093.33 512.4 2095.89 511.76 2098.77 511.76C2101.12 511.76 2103.24 512.213 2105.13 513.12C2107.03 514 2108.64 515.32 2109.97 517.08C2111.31 518.813 2112.33 520.973 2113.05 523.56C2113.77 526.147 2114.13 529.12 2114.13 532.48C2114.13 535.467 2113.73 538.253 2112.93 540.84C2112.13 543.4 2110.97 545.627 2109.45 547.52C2107.96 549.387 2106.12 550.867 2103.93 551.96C2101.77 553.027 2099.33 553.56 2096.61 553.56C2094.13 553.56 2092 553.147 2090.21 552.32C2088.45 551.467 2086.89 550.293 2085.53 548.8V566.72H2078.37V512.48H2082.65C2083.67 512.48 2084.29 512.973 2084.53 513.96L2085.17 518.76ZM2150.34 528.32C2150.34 526.667 2150.1 525.16 2149.62 523.8C2149.16 522.413 2148.48 521.227 2147.58 520.24C2146.7 519.227 2145.62 518.453 2144.34 517.92C2143.06 517.36 2141.6 517.08 2139.98 517.08C2136.56 517.08 2133.86 518.08 2131.86 520.08C2129.88 522.053 2128.66 524.8 2128.18 528.32H2150.34ZM2156.1 547.32C2155.22 548.387 2154.16 549.32 2152.94 550.12C2151.71 550.893 2150.39 551.533 2148.98 552.04C2147.59 552.547 2146.15 552.92 2144.66 553.16C2143.16 553.427 2141.68 553.56 2140.22 553.56C2137.42 553.56 2134.83 553.093 2132.46 552.16C2130.11 551.2 2128.07 549.813 2126.34 548C2124.63 546.16 2123.3 543.893 2122.34 541.2C2121.38 538.507 2120.9 535.413 2120.9 531.92C2120.9 529.093 2121.32 526.453 2122.18 524C2123.06 521.547 2124.31 519.427 2125.94 517.64C2127.56 515.827 2129.55 514.413 2131.9 513.4C2134.24 512.36 2136.88 511.84 2139.82 511.84C2142.24 511.84 2144.48 512.253 2146.54 513.08C2148.62 513.88 2150.4 515.053 2151.9 516.6C2153.42 518.12 2154.6 520.013 2155.46 522.28C2156.31 524.52 2156.74 527.08 2156.74 529.96C2156.74 531.08 2156.62 531.827 2156.38 532.2C2156.14 532.573 2155.68 532.76 2155.02 532.76H2127.94C2128.02 535.32 2128.36 537.547 2128.98 539.44C2129.62 541.333 2130.5 542.92 2131.62 544.2C2132.74 545.453 2134.07 546.4 2135.62 547.04C2137.16 547.653 2138.9 547.96 2140.82 547.96C2142.6 547.96 2144.14 547.76 2145.42 547.36C2146.72 546.933 2147.84 546.48 2148.78 546C2149.71 545.52 2150.48 545.08 2151.1 544.68C2151.74 544.253 2152.28 544.04 2152.74 544.04C2153.32 544.04 2153.78 544.267 2154.1 544.72L2156.1 547.32ZM2172.24 520.6C2173.52 517.827 2175.1 515.667 2176.96 514.12C2178.83 512.547 2181.11 511.76 2183.8 511.76C2184.66 511.76 2185.47 511.853 2186.24 512.04C2187.04 512.227 2187.75 512.52 2188.36 512.92L2187.84 518.24C2187.68 518.907 2187.28 519.24 2186.64 519.24C2186.27 519.24 2185.72 519.16 2185 519C2184.28 518.84 2183.47 518.76 2182.56 518.76C2181.28 518.76 2180.14 518.947 2179.12 519.32C2178.14 519.693 2177.24 520.253 2176.44 521C2175.67 521.72 2174.96 522.627 2174.32 523.72C2173.71 524.787 2173.15 526.013 2172.64 527.4V553H2165.48V512.48H2169.56C2170.34 512.48 2170.87 512.627 2171.16 512.92C2171.46 513.213 2171.66 513.72 2171.76 514.44L2172.24 520.6Z" fill="#231F20"/>
<ellipse cx="1059" cy="149.5" rx="51" ry="45.5" fill="#EFEFEF"/>
<path d="M1043.4 94.8317C1040.82 95.9094 1037.42 97.7333 1035.93 98.8939C1034.52 99.9716 1030.37 102.21 1026.8 103.868C1004.23 114.314 996.678 139.764 1008.63 165.298C1011.12 170.604 1018.5 180.303 1021.16 181.879C1021.99 182.376 1025.22 184.2 1028.29 186.024C1035.35 190.169 1043.56 192.739 1054.02 194.148C1071.36 196.469 1080.66 194.148 1087.46 185.941C1089.12 183.868 1093.35 178.894 1096.84 174.915C1104.64 166.044 1107.04 161.982 1108.87 155.018C1111.03 146.562 1110.11 138.935 1105.97 130.562C1103.06 124.676 1101.24 122.521 1090.2 111.744C1079.58 101.298 1076.92 99.1426 1071.28 96.4897C1065.3 93.5882 1064.14 93.2566 1056.51 93.0908C1049.21 92.8421 1047.63 93.0079 1043.4 94.8317ZM1064.47 94.9975C1066.96 95.7436 1070.62 97.2359 1072.69 98.3965C1076.92 100.801 1085.39 107.764 1084.81 108.345C1084.64 108.511 1082.32 107.184 1079.58 105.443C1068.96 98.1478 1057.01 95.9923 1046.3 99.3913C1043.15 100.469 1039.33 101.132 1037.75 100.966L1034.93 100.718L1038.92 98.3136C1046.8 93.6711 1055.76 92.4276 1064.47 94.9975ZM1069.62 101.547C1074.52 103.288 1074.76 104.531 1070.03 103.453C1068.04 103.039 1063.48 102.873 1059.83 103.205C1052.69 103.785 1044.48 102.459 1045.97 100.966C1048.29 98.6452 1062.32 98.9768 1069.62 101.547ZM1037.75 103.122C1034.85 105.775 1026.72 111.827 1026.39 111.495C1025.89 110.998 1027.88 108.013 1030.62 105.029C1032.11 103.536 1033.61 102.79 1035.43 102.79C1036.92 102.79 1037.92 102.956 1037.75 103.122ZM1047.38 103.619C1048.71 104.117 1048.79 104.365 1047.8 104.697C1047.13 104.946 1044.72 105.775 1042.48 106.521C1037.26 108.428 1032.86 109.422 1032.86 108.676C1032.86 108.428 1034.6 106.935 1036.84 105.526C1040.74 102.873 1044.14 102.21 1047.38 103.619ZM1026.39 108.759C1024.73 111.163 1020.83 115.474 1017.84 118.376C1011.45 124.428 1007.8 130.728 1005.56 139.433L1003.98 145.485L1003.9 140.925C1003.73 131.391 1007.88 121.194 1014.93 113.733C1018.92 109.505 1026.22 104.448 1028.46 104.448C1029.04 104.448 1028.13 106.438 1026.39 108.759ZM1056.92 107.018C1056.92 107.433 1055.68 107.764 1054.1 107.764C1052.53 107.764 1050.7 108.013 1049.95 108.262C1049.21 108.511 1048.63 108.428 1048.63 108.013C1048.63 106.935 1053.6 105.443 1055.51 105.941C1056.26 106.106 1056.92 106.604 1056.92 107.018ZM1064.81 106.438C1071.45 108.179 1078.17 111.827 1083.48 116.718C1087.88 120.614 1093.44 127.495 1093.44 128.821C1093.44 129.153 1090.95 126.666 1087.88 123.433C1081.24 116.386 1076.42 113.153 1067.05 109.422C1063.31 107.93 1059.99 106.355 1059.74 106.023C1059.16 105.029 1059.91 105.112 1064.81 106.438ZM1080.57 107.847C1081.82 109.008 1079.99 108.676 1077.67 107.267L1075.59 106.023L1077.67 106.604C1078.83 106.852 1080.08 107.433 1080.57 107.847ZM1088.12 115.723C1091.28 119.785 1090.45 119.868 1086.13 115.972C1083.98 113.982 1081.07 111.495 1079.74 110.417C1077.59 108.759 1077.83 108.842 1081.73 110.832C1084.14 112.075 1087.05 114.314 1088.12 115.723ZM1038.17 110.915C1034.27 113.485 1028.71 118.956 1025.22 123.682C1022.9 126.749 1020.83 129.319 1020.66 129.319C1020.49 129.319 1021.32 127.495 1022.57 125.174C1025.72 119.371 1037.17 108.428 1038.58 109.92C1038.83 110.169 1038.67 110.583 1038.17 110.915ZM1062.48 110.666C1064.81 111.329 1067.63 112.656 1068.71 113.65L1070.62 115.308L1067.3 114.811C1063.89 114.231 1056.34 111.412 1054.93 110.086C1053.6 109.008 1057.92 109.34 1062.48 110.666ZM1029.46 114.977C1026.88 117.63 1023.98 121.029 1022.9 122.521C1020.25 126.5 1019.91 125.174 1022.57 120.863C1025.64 115.972 1028.54 112.49 1030.7 111.329C1034.27 109.257 1033.94 110.417 1029.46 114.977ZM1053.85 111.578C1056.01 112.324 1057.75 113.153 1057.75 113.568C1057.75 113.899 1055.93 114.397 1053.77 114.645C1048.21 115.308 1039.5 117.961 1039.5 118.956C1039.5 119.454 1037.67 121.194 1035.51 122.935C1033.36 124.676 1030.87 127.163 1029.95 128.573C1027.22 132.552 1026.8 131.308 1029.21 126.749C1030.54 124.428 1032.61 122.023 1033.85 121.36C1036.43 120.034 1037.01 119.122 1034.77 119.951C1032.36 120.78 1040.49 112.738 1043.23 111.495C1046.63 110.003 1049.29 110.003 1053.85 111.578ZM1024.73 115.391C1024.15 115.972 1023.73 116.055 1023.73 115.557C1023.73 114.397 1024.73 113.402 1025.31 113.982C1025.47 114.231 1025.22 114.894 1024.73 115.391ZM1077.75 116.552C1079.66 117.713 1080.99 118.873 1080.74 119.039C1080.32 119.454 1073.52 115.308 1073.52 114.728C1073.52 114.065 1074.52 114.479 1077.75 116.552ZM1019.33 124.013C1017.76 128.075 1016.18 132.303 1015.85 133.381C1015.52 134.459 1013.94 136.448 1012.36 137.858C1010.79 139.184 1008.63 142.086 1007.47 144.158L1005.39 147.972L1005.89 143.495C1006.55 137.526 1008.46 132.303 1011.78 127.08C1014.52 122.77 1021.16 115.723 1021.82 116.386C1021.99 116.552 1020.91 120.034 1019.33 124.013ZM1063.98 117.795C1066.47 118.707 1068.54 119.785 1068.54 120.117C1068.54 120.448 1067.21 121.194 1065.64 121.775C1063.06 122.687 1062.4 122.604 1060.57 121.443C1057.42 119.454 1051.7 117.547 1051.2 118.459C1050.95 118.79 1049.37 119.371 1047.8 119.536C1046.22 119.785 1044.14 120.2 1043.23 120.531C1041.82 121.112 1041.82 120.946 1043.56 119.454C1044.64 118.459 1046.55 117.713 1047.88 117.713C1049.21 117.713 1050.28 117.298 1050.28 116.884C1050.28 115.391 1059.16 115.972 1063.98 117.795ZM1075.18 119.039C1076.18 120.034 1076.01 120.2 1073.93 120.2C1071.78 120.117 1067.71 117.795 1067.71 116.635C1067.71 115.806 1073.93 117.878 1075.18 119.039ZM1098.83 121.609C1108.95 133.878 1111.44 145.899 1106.55 158.998C1104.55 164.386 1103.56 164.138 1105.3 158.583C1109.45 145.733 1106.88 132.884 1098.17 122.935C1092.94 117.049 1092.27 116.055 1093.35 116.055C1093.85 116.055 1096.34 118.542 1098.83 121.609ZM1057.59 121.858C1060.91 123.35 1061.9 124.593 1060.41 125.505C1059.99 125.754 1057.92 125.008 1055.6 124.013C1053.36 122.935 1050.62 121.692 1049.45 121.194C1047.55 120.365 1047.63 120.283 1050.7 120.283C1052.53 120.283 1055.6 120.946 1057.59 121.858ZM1081.15 125.505C1083.98 129.402 1087.88 136.78 1087.38 137.277C1087.21 137.443 1085.72 135.619 1084.06 133.298C1082.4 130.894 1079.58 127.412 1077.67 125.588C1073.77 121.775 1073.6 121.112 1076.51 121.692C1077.75 121.941 1079.66 123.433 1081.15 125.505ZM1048.63 122.77C1053.77 123.847 1054.02 125.174 1049.04 125.174C1044.72 125.174 1040.74 126.666 1038.09 129.236C1033.69 133.381 1035.51 129.236 1040 124.759C1043.23 121.443 1042.98 121.526 1048.63 122.77ZM1074.68 125.34C1076.26 127.329 1077.5 128.987 1077.34 129.07C1077.17 129.319 1069.12 126.998 1066.3 125.92C1065.22 125.505 1064.39 124.925 1064.39 124.511C1064.39 123.516 1067.71 122.023 1069.95 121.941C1071.03 121.858 1072.77 123.101 1074.68 125.34ZM1099 125.422C1104.97 133.381 1107.38 142.915 1105.8 152.366C1104.8 158.169 1101.48 166.542 1098.41 170.77C1095.1 175.412 1095.18 173.257 1098.66 165.132C1101.9 157.423 1102.07 156.759 1102.07 148.386C1102.07 140.676 1101.82 139.018 1099.74 134.293C1096.84 127.412 1095.01 121.858 1095.76 121.858C1096.09 121.858 1097.58 123.516 1099 125.422ZM1026.63 125.091C1025.47 127.495 1023.73 129.153 1023.73 128.075C1023.73 127.329 1027.05 122.687 1027.55 122.687C1027.71 122.687 1027.38 123.764 1026.63 125.091ZM1036.01 127.744C1033.11 132.303 1032.03 133.381 1032.03 131.557C1032.03 130.065 1036.76 123.516 1037.84 123.516C1038.25 123.516 1037.42 125.422 1036.01 127.744ZM1047.8 126.417C1047.8 127.578 1040.41 133.464 1038.92 133.464C1036.51 133.464 1036.51 132.552 1038.92 130.314C1041.32 127.992 1047.8 125.174 1047.8 126.417ZM1088.71 128.241C1092.11 131.889 1094.51 138.106 1093.93 141.837C1093.27 145.899 1091.86 149.547 1091.19 148.967C1090.95 148.635 1090.45 145.485 1090.12 141.92C1089.78 137.692 1088.79 133.796 1087.38 130.728C1084.97 125.505 1085.39 124.842 1088.71 128.241ZM1053.36 127.329C1053.11 127.578 1052.36 127.661 1051.78 127.412C1051.11 127.163 1051.36 126.915 1052.28 126.915C1053.19 126.832 1053.69 127.08 1053.36 127.329ZM1065.8 128.158C1065.55 128.407 1064.81 128.49 1064.23 128.241C1063.56 127.992 1063.81 127.744 1064.72 127.744C1065.64 127.661 1066.13 127.91 1065.8 128.158ZM1075.68 130.397C1079.41 132.303 1080.66 134.21 1082.32 140.676C1084.56 149.713 1082.4 150.21 1079.83 141.34C1078.58 137.195 1075.59 133.63 1070.86 130.728C1065.89 127.578 1069.79 127.329 1075.68 130.397ZM1053.6 128.821C1053.6 128.987 1051.36 130.562 1048.71 132.22C1045.47 134.293 1043.56 136.117 1043.15 137.526C1042.9 138.687 1042.4 139.184 1042.24 138.604C1041.74 137.36 1043.98 132.386 1045.47 131.226C1047.38 129.733 1053.6 127.91 1053.6 128.821ZM1080.57 130.728L1082.07 133.049L1080.32 131.474C1079.33 130.562 1078.5 129.568 1078.5 129.153C1078.5 127.992 1079.08 128.407 1080.57 130.728ZM1018 132.718C1017.59 133.796 1017.17 134.293 1017.17 133.713C1017.09 132.469 1018 129.982 1018.42 130.397C1018.67 130.562 1018.42 131.64 1018 132.718ZM1023.07 131.972C1022.49 132.552 1022.07 132.635 1022.07 132.138C1022.07 130.977 1023.07 129.982 1023.65 130.562C1023.81 130.811 1023.56 131.474 1023.07 131.972ZM1068.62 132.386C1069.7 133.63 1069.62 133.63 1067.96 132.718C1065.97 131.723 1065.55 130.977 1066.8 130.977C1067.21 130.977 1068.04 131.557 1068.62 132.386ZM1056.34 135.288C1056.09 137.277 1055.76 138.935 1055.68 139.101C1055.51 139.267 1054.27 138.77 1052.86 138.024L1050.2 136.697L1051.94 134.293C1052.94 132.884 1054.43 131.806 1055.26 131.806C1056.59 131.806 1056.67 132.303 1056.34 135.288ZM1063.73 132.801C1064.47 133.381 1065.64 134.873 1066.47 136.117C1067.88 138.355 1067.88 138.355 1065.47 138.853C1064.23 139.184 1062.15 139.764 1060.91 140.262C1057.67 141.505 1056.67 140.511 1057.34 136.448C1057.67 134.625 1058.09 132.801 1058.33 132.386C1058.91 131.474 1062.32 131.723 1063.73 132.801ZM1025.97 138.024C1025.22 141.174 1024.98 141.671 1024.73 140.013C1024.48 137.941 1025.97 132.884 1026.63 133.547C1026.8 133.713 1026.47 135.785 1025.97 138.024ZM1032.53 134.79C1031.45 137.692 1031.03 147.474 1031.86 150.044C1032.69 152.366 1032.61 152.614 1031.36 152.366C1030.2 152.117 1029.87 150.873 1029.54 144.904C1029.29 141.008 1029.37 137.941 1029.79 138.189C1030.12 138.355 1030.37 137.609 1030.37 136.531C1030.37 134.459 1030.95 133.464 1032.28 133.464C1032.69 133.464 1032.78 134.044 1032.53 134.79ZM1049.45 134.21C1049.45 135.205 1047.8 136.283 1047.21 135.702C1046.63 135.122 1047.71 133.464 1048.71 133.464C1049.12 133.464 1049.45 133.796 1049.45 134.21ZM1100.16 138.604C1101.57 144.158 1101.57 155.682 1100.16 157.92C1099.33 159.329 1099.24 158.832 1099.66 154.935C1099.99 152.2 1099.66 147.06 1098.91 142.334C1097.34 132.884 1097.42 133.215 1098.33 133.796C1098.75 134.044 1099.58 136.283 1100.16 138.604ZM1022.4 137.443C1022.07 138.935 1021.57 140.096 1021.16 140.096C1020.16 140.096 1020.25 139.018 1021.24 136.283C1022.4 133.381 1023.07 134.127 1022.4 137.443ZM1039.5 135.122C1039.5 135.536 1039.17 135.951 1038.75 135.951C1038.25 135.951 1037.67 135.536 1037.42 135.122C1037.17 134.625 1037.51 134.293 1038.17 134.293C1038.92 134.293 1039.5 134.625 1039.5 135.122ZM1037.01 135.951C1038.42 136.697 1038.42 137.029 1037.26 140.925C1036.59 143.246 1036.18 147.226 1036.34 149.713C1036.59 154.77 1035.51 155.267 1033.94 150.79C1032.69 147.226 1032.61 141.091 1033.77 137.692C1034.77 134.79 1034.85 134.79 1037.01 135.951ZM1016.35 141.754L1015.52 143.827V141.754C1015.43 140.593 1015.76 138.77 1016.1 137.609L1016.68 135.536L1016.93 137.609C1017.09 138.77 1016.76 140.676 1016.35 141.754ZM1047.55 136.863C1048.13 137.443 1048.29 139.516 1048.04 142.252C1047.71 145.236 1048.04 147.972 1048.96 150.956C1049.79 153.277 1050.2 155.35 1050.04 155.516C1049.87 155.765 1048.54 154.604 1047.21 153.112C1045.22 150.79 1044.64 149.215 1044.14 144.739C1043.48 137.775 1044.97 134.293 1047.55 136.863ZM1083.89 140.096L1084.31 142.998L1083.15 140.096C1081.65 136.614 1081.49 135.288 1082.65 136.448C1083.06 136.863 1083.64 138.521 1083.89 140.096ZM1014.1 145.236C1013.69 151.785 1013.86 153.775 1015.35 158.252C1016.26 161.153 1016.93 163.723 1016.76 163.889C1016.59 164.055 1015.02 163.557 1013.27 162.728C1007.13 159.827 1004.98 153.775 1007.55 147.06C1008.79 143.827 1013.19 137.609 1014.27 137.609C1014.52 137.609 1014.44 141.091 1014.1 145.236ZM1077.34 141.588C1076.59 142.252 1073.52 139.93 1073.52 138.687C1073.52 137.609 1073.93 137.692 1075.59 139.267C1076.76 140.345 1077.5 141.34 1077.34 141.588ZM1040.58 142.334C1040.82 144.573 1041.32 147.806 1041.57 149.63C1041.9 151.868 1041.65 153.443 1040.82 154.521C1039.17 156.594 1038 155.599 1037.42 151.371C1036.84 147.64 1038.25 138.438 1039.41 138.438C1039.83 138.438 1040.33 140.179 1040.58 142.334ZM1054.02 139.764C1056.51 141.34 1056.67 143.495 1054.52 145.402C1053.36 146.48 1052.86 146.562 1052.19 145.733C1051.45 144.821 1049.45 139.599 1049.45 138.77C1049.45 137.941 1052.19 138.604 1054.02 139.764ZM1088.12 144.49C1089.87 149.878 1089.12 153.609 1085.8 155.93L1083.23 157.837L1083.81 153.692C1084.14 151.454 1084.64 147.06 1084.89 143.992C1085.39 137.858 1085.88 137.941 1088.12 144.49ZM1028.54 148.138C1028.29 150.542 1028.05 150.956 1027.55 149.796C1027.13 149.049 1027.13 146.231 1027.55 143.578C1028.21 139.267 1028.29 139.101 1028.54 141.92C1028.71 143.661 1028.71 146.48 1028.54 148.138ZM1019.58 144.739C1019.58 146.811 1020.16 151.039 1020.91 154.272C1022.57 161.651 1021.99 163.64 1020 157.091C1018.17 150.956 1017.26 139.599 1018.67 140.428C1019.17 140.759 1019.58 142.666 1019.58 144.739ZM1067.55 141.091C1067.3 141.671 1065.55 142.252 1063.48 142.417C1060.08 142.583 1059.91 142.5 1061.4 141.34C1063.4 139.764 1067.96 139.682 1067.55 141.091ZM1071.86 143.081C1071.86 143.744 1071.53 144.075 1071.03 143.827C1070.62 143.578 1070.2 142.749 1070.2 142.086C1070.2 141.423 1070.62 141.091 1071.03 141.34C1071.53 141.588 1071.86 142.417 1071.86 143.081ZM1077.5 143.578C1078.91 144.987 1078.75 146.728 1077.25 146.728C1076.26 146.728 1074.35 144.407 1074.35 143.081C1074.35 142.169 1076.51 142.583 1077.5 143.578ZM1065.72 144.324C1066.63 145.816 1064.64 147.143 1063.15 145.899C1062.48 145.319 1061.9 144.573 1061.9 144.158C1061.9 143.081 1065.06 143.246 1065.72 144.324ZM1051.11 146.645C1051.61 147.972 1051.94 150.127 1051.78 151.371L1051.45 153.775L1050.53 151.702C1049.29 148.552 1048.54 144.241 1049.37 144.241C1049.79 144.241 1050.53 145.319 1051.11 146.645ZM1062.32 145.899C1063.73 147.474 1063.73 147.64 1062.32 149.215L1060.74 150.956L1059.66 149.049C1057.34 144.821 1059.25 142.5 1062.32 145.899ZM1068.71 150.625C1068.21 153.195 1067.38 155.682 1067.05 156.013C1066.22 156.842 1061.9 153.692 1061.9 152.117C1061.9 151.537 1062.48 150.625 1063.15 150.044C1064.14 149.215 1064.56 149.381 1065.22 150.956C1066.05 152.78 1066.05 152.78 1065.64 150.542C1065.06 147.64 1067.38 143.578 1068.79 144.987C1069.45 145.65 1069.45 147.143 1068.71 150.625ZM1072.27 150.376C1071.78 154.438 1070.7 156.676 1069.29 156.676C1068.87 156.676 1068.96 155.682 1069.37 154.521C1069.87 153.36 1070.2 151.039 1070.2 149.298C1070.2 145.982 1070.78 144.821 1072.11 145.65C1072.52 145.899 1072.61 147.889 1072.27 150.376ZM1058.33 148.801C1060.08 152.448 1059.16 153.443 1056.43 150.79C1055.1 149.464 1054.52 148.22 1054.93 147.309C1055.76 145.153 1056.84 145.65 1058.33 148.801ZM1097.34 151.205C1096.75 157.008 1094.76 162.977 1091.28 168.863C1088.29 174.003 1087.96 172.511 1090.45 165.298C1096.09 148.967 1097.17 145.899 1097.5 145.899C1097.67 145.899 1097.58 148.303 1097.34 151.205ZM1076.67 149.381C1076.51 150.376 1076.01 151.288 1075.51 151.454C1074.93 151.619 1074.68 150.956 1074.93 149.63C1075.43 147.143 1077.09 146.811 1076.67 149.381ZM1025.64 153.029C1026.47 155.599 1026.88 157.92 1026.63 158.169C1026.14 158.749 1022.98 151.702 1022.9 149.796C1022.9 146.894 1024.23 148.552 1025.64 153.029ZM1079.33 150.542C1079.33 151.951 1076.59 156.428 1075.18 157.34C1072.69 158.832 1073.02 156.759 1075.84 153.112C1077.92 150.376 1079.33 149.298 1079.33 150.542ZM1056.43 153.526C1055.6 154.853 1053.6 154.106 1053.6 152.531C1053.6 151.122 1053.85 150.956 1055.18 151.868C1056.09 152.448 1056.59 153.195 1056.43 153.526ZM1029.62 154.438C1029.62 156.179 1029.71 156.179 1030.29 154.604C1030.95 153.029 1031.12 153.112 1033.61 155.765C1036.68 158.998 1036.76 159.661 1034.44 160.904C1032.44 161.899 1031.2 160.822 1031.2 158.086C1031.2 157.257 1030.87 156.759 1030.45 157.091C1029.54 157.588 1027.88 154.935 1027.88 152.946C1027.88 150.956 1029.54 152.366 1029.62 154.438ZM1044.89 155.93C1044.39 156.676 1041.99 156.013 1041.99 155.101C1041.99 154.77 1042.24 154.189 1042.57 153.941C1043.23 153.195 1045.39 155.018 1044.89 155.93ZM1019.91 159.495C1021.49 164.303 1021.49 164.138 1020.49 164.138C1019.75 164.138 1018.59 161.153 1017.51 156.262C1016.68 152.531 1018.34 154.687 1019.91 159.495ZM1047.38 155.018C1047.63 155.433 1047.46 155.847 1047.05 155.847C1046.55 155.847 1046.14 155.433 1046.14 155.018C1046.14 154.521 1046.3 154.189 1046.47 154.189C1046.72 154.189 1047.13 154.521 1047.38 155.018ZM1061.4 156.179C1065.3 158.5 1064.31 159.578 1059 158.749C1054.68 158.169 1053.69 157.008 1055.76 155.433C1057.75 153.858 1057.67 153.858 1061.4 156.179ZM1081.32 156.013C1080.74 157.837 1079.58 159.163 1078.33 159.163C1077.34 159.163 1077.5 158.5 1079 156.262C1080.66 153.692 1082.15 153.526 1081.32 156.013ZM1050.2 160.573C1052.53 162.314 1054.1 163.806 1053.6 163.972C1052.44 164.386 1043.73 161.733 1041.49 160.241C1038.58 158.417 1039.08 157.505 1042.73 157.505C1045.22 157.505 1047.05 158.252 1050.2 160.573ZM1052.86 159.246C1053.77 160.158 1054.35 161.153 1054.1 161.402C1053.69 161.816 1048.63 158.583 1048.63 157.837C1048.63 156.842 1051.36 157.754 1052.86 159.246ZM1086.38 159.081C1086.13 159.578 1085.14 160.407 1084.22 160.822C1083.06 161.485 1082.65 161.402 1082.65 160.573C1082.65 159.91 1083.48 158.998 1084.56 158.583C1086.63 157.588 1087.21 157.754 1086.38 159.081ZM1063.31 161.402C1062.07 162.728 1061.74 162.728 1059.25 161.485L1056.51 160.075H1060.66C1064.47 159.993 1064.64 160.075 1063.31 161.402ZM1068.54 160.739C1068.54 161.153 1067.96 161.733 1067.21 161.982C1065.22 162.728 1064.89 162.562 1066.05 161.236C1067.21 159.827 1068.54 159.578 1068.54 160.739ZM1078.42 161.651C1077.92 162.065 1076.84 162.148 1076.18 161.816C1075.1 161.485 1075.18 161.236 1076.51 160.822C1078.42 160.075 1079.91 160.739 1078.42 161.651ZM1042.48 166.293C1047.63 172.179 1047.05 172.759 1039.91 168.697C1035.02 165.879 1033.19 163.64 1034.52 162.065C1036.26 159.993 1037.42 160.573 1042.48 166.293ZM1094.85 168.034C1093.68 170.189 1092.02 172.759 1091.03 173.588C1088.71 175.744 1088.79 174.583 1091.28 171.35C1092.36 169.858 1093.93 167.039 1094.76 164.967C1095.68 162.728 1096.42 161.816 1096.59 162.645C1096.75 163.391 1095.92 165.796 1094.85 168.034ZM1012.94 165.63C1012.94 166.708 1013.11 166.79 1013.69 165.961C1014.93 163.889 1017.34 165.298 1019.83 169.526C1021.16 171.847 1023.9 175.329 1025.89 177.402C1027.88 179.474 1029.54 181.464 1029.54 181.796C1029.54 182.708 1022.32 177.651 1018.17 173.837C1016.18 172.013 1014.6 170.024 1014.6 169.443C1014.6 168.78 1014.1 168.283 1013.52 168.283C1012.53 168.283 1011.62 166.956 1009.79 163.06C1009.54 162.645 1010.2 162.728 1011.2 163.226C1012.11 163.806 1012.94 164.801 1012.94 165.63ZM1045.72 163.723C1047.55 164.386 1050.45 164.884 1052.11 164.967C1053.77 164.967 1055.43 165.298 1055.68 165.796C1056.59 167.288 1049.21 166.708 1045.55 164.967C1043.56 164.138 1041.99 163.226 1041.99 162.894C1041.99 162.314 1041.9 162.314 1045.72 163.723ZM1075.51 163.226C1076.92 163.806 1076.92 163.972 1074.76 165.63C1072.61 167.371 1068.54 168.117 1068.54 166.873C1068.54 165.879 1072.11 162.48 1073.02 162.562C1073.52 162.562 1074.68 162.894 1075.51 163.226ZM1084.31 163.226C1084.31 164.552 1077.09 172.013 1074.27 173.588C1071.61 175.081 1071.69 174.915 1075.43 171.184C1077.59 168.946 1079.33 166.873 1079.33 166.459C1079.33 165.547 1082.48 162.48 1083.48 162.48C1083.98 162.48 1084.31 162.811 1084.31 163.226ZM1083.15 169.443C1081.4 172.262 1078.17 175.578 1075.1 177.816C1070.62 181.132 1069.54 181.547 1065.72 181.464C1063.4 181.464 1060.74 181.132 1059.83 180.801C1058.5 180.221 1059.08 179.889 1062.65 179.143C1071.78 177.153 1079.74 172.179 1083.56 166.044C1084.64 164.386 1085.64 163.474 1085.8 163.972C1085.97 164.469 1084.72 166.956 1083.15 169.443ZM1039.5 177.816C1046.55 182.956 1051.94 185.029 1058.33 185.195C1060.74 185.195 1062.73 185.443 1062.73 185.775C1062.73 186.687 1057.84 187.35 1050.95 187.35C1045.06 187.35 1043.98 187.101 1040.91 184.946C1034.02 180.221 1025.39 169.443 1025.39 165.63C1025.39 165.132 1027.13 166.625 1029.37 168.946C1031.53 171.35 1036.09 175.329 1039.5 177.816ZM1033.69 167.039C1034.77 168.2 1035.43 169.112 1035.18 169.112C1035.02 169.112 1033.94 168.2 1032.86 167.039C1031.78 165.879 1031.12 164.967 1031.36 164.967C1031.53 164.967 1032.61 165.879 1033.69 167.039ZM1025.81 170.936C1030.78 178.645 1030.78 178.811 1028.29 176.573C1025.97 174.5 1021.24 167.702 1021.24 166.459C1021.24 164.718 1022.73 166.21 1025.81 170.936ZM1074.6 170.77C1069.2 175.744 1062.9 178.231 1055.84 178.231C1050.2 178.231 1045.89 176.656 1051.11 176.49C1052.69 176.49 1054.77 176.158 1055.68 175.744C1056.76 175.329 1055.76 175.246 1053.11 175.495C1049.87 175.827 1047.96 175.495 1044.89 174.169C1040.33 172.179 1039 172.428 1042.73 174.583C1044.14 175.412 1045.31 176.407 1045.31 176.822C1045.31 177.816 1042.73 176.241 1039.41 173.091C1037.84 171.599 1037.09 170.853 1037.84 171.35C1039.66 172.759 1040.74 172.676 1039.58 171.267C1038.83 170.355 1039.66 170.438 1042.73 171.682C1045.47 172.676 1049.04 173.257 1052.86 173.257C1056.51 173.257 1058.5 173.588 1058.17 174.086C1057.26 175.661 1059.16 174.915 1062.4 172.594C1064.23 171.267 1067.55 169.775 1069.79 169.195C1072.11 168.614 1074.85 167.702 1076.01 167.039C1079.66 165.05 1079.08 166.708 1074.6 170.77ZM1055.68 167.702C1058 167.205 1059.74 167.205 1060.74 167.702C1061.99 168.448 1061.82 168.697 1059.33 170.024C1055.43 172.096 1051.36 172.013 1048.04 169.692C1044.39 167.205 1044.56 166.625 1048.71 167.702C1050.95 168.283 1053.27 168.283 1055.68 167.702ZM1085.97 173.505C1083.89 177.982 1082.23 179.557 1078.91 180.386C1076.59 180.967 1076.76 180.635 1081.65 175.329C1084.47 172.262 1086.8 169.278 1086.88 168.78C1086.88 168.2 1087.05 168.2 1087.29 168.863C1087.54 169.36 1086.88 171.433 1085.97 173.505ZM1024.73 180.635C1026.88 182.044 1031.53 184.366 1035.1 185.775C1043.15 189.008 1046.38 190.666 1045.89 191.246C1045.22 191.91 1037.34 189.174 1031.61 186.272C1026.14 183.537 1016.26 176.075 1016.26 174.666C1016.26 174.169 1017.26 174.749 1018.59 175.91C1019.83 177.07 1022.57 179.143 1024.73 180.635ZM1048.29 180.469C1050.95 181.63 1052.69 182.791 1052.19 182.956C1051.28 183.288 1042.82 179.392 1042.82 178.645C1042.82 177.982 1043.15 178.148 1048.29 180.469ZM1083.15 183.702C1078.91 187.35 1077.92 186.438 1082.07 182.625C1083.81 181.05 1085.55 179.972 1085.8 180.303C1086.13 180.635 1084.89 182.127 1083.15 183.702ZM1078.5 184.449C1075.51 187.599 1070.37 189.588 1064.23 190.086C1061.07 190.335 1058.58 190.252 1058.58 189.92C1058.58 189.506 1077.75 182.708 1079.66 182.459C1080.08 182.376 1079.58 183.288 1078.5 184.449ZM1084.22 187.018C1081.15 190.335 1074.68 193.236 1069.45 193.651L1064.81 194.065L1069.37 192.49C1071.86 191.661 1076.59 189.588 1079.74 187.93C1086.8 184.283 1086.8 184.283 1084.22 187.018ZM1061.82 191.993C1061.99 192.158 1060.24 192.324 1057.92 192.324C1055.6 192.324 1053.52 191.993 1053.19 191.495C1052.77 190.832 1060.99 191.246 1061.82 191.993Z" fill="#98D73C" fill-opacity="0.969"/>
</svg>
