<svg width="726" height="257" viewBox="0 0 726 257" fill="none" xmlns="http://www.w3.org/2000/svg">
<path d="M247.573 5.3957C246.087 8.07527 245.097 15.157 245.097 21.0903C245.097 38.6989 232.218 143.011 229.989 144.925C229.494 145.308 209.433 151.432 185.657 158.514C161.881 165.596 123.988 177.462 101.45 185.118C78.9123 192.774 54.3933 200.43 46.9633 202.344C39.5333 204.258 25.6639 208.277 16.5003 211.531C1.39259 216.699 -0.341075 217.847 0.401925 222.249C0.897258 224.929 2.87859 227.417 5.10759 227.8C7.33659 227.991 24.9209 223.589 44.2389 217.656C63.5569 211.914 88.8189 205.215 100.459 203.11C131.418 197.368 183.923 191.817 206.461 191.817H225.779L224.293 205.789C223.302 213.254 220.825 225.695 218.596 233.351C214.881 246.174 214.881 247.514 218.844 252.108C221.073 254.787 225.036 256.892 227.512 256.892C236.924 256.892 302.555 237.37 337.229 224.355C356.547 216.89 372.15 210.957 371.407 210.957C370.664 210.957 359.271 214.019 345.649 217.656C332.275 221.484 320.635 224.163 320.14 223.589C316.92 221.101 430.599 185.118 482.857 172.295C569.292 150.858 577.713 147.413 577.713 132.292C577.713 123.871 577.961 123.68 584.648 124.445C592.078 125.211 607.433 119.086 611.396 113.727C613.377 111.047 614.615 110.856 618.826 112.77C626.256 116.406 634.924 115.832 640.125 111.43C642.602 109.325 647.803 107.602 651.765 107.602C661.424 107.602 662.415 104.348 656.223 93.4387C652.013 86.357 649.784 84.443 645.821 85.0172C640.62 85.5914 639.134 87.1226 634.181 96.6925C630.714 103.583 626.503 101.669 626.503 93.2473C626.503 87.6968 625.513 86.357 619.816 85.4C615.854 84.6344 610.653 82.9118 607.928 81.572C596.536 75.4473 580.19 81.9548 571.274 96.3097L565.33 105.88L557.652 90.9505C553.442 82.529 547.002 67.2172 543.287 56.6903C539.82 46.3548 535.857 35.828 534.619 33.3398C531.152 26.4495 523.226 27.9806 517.53 36.7849C514.806 40.9957 506.633 49.9914 499.45 56.4989C480.132 73.9161 475.674 87.314 485.086 98.9893C492.02 107.794 512.577 124.828 516.292 124.828C518.025 124.828 520.75 123.488 522.731 121.766C525.208 119.277 524.465 116.981 518.025 107.028C513.567 100.52 508.366 90.5677 506.137 85.0172L502.422 74.6817L509.357 67.9828C525.455 52.0968 523.226 52.0968 529.666 69.3226C532.885 77.9355 541.554 94.5871 548.736 106.262C556.166 117.938 562.11 129.613 562.11 132.101C562.11 138.034 549.231 142.245 489.048 156.217C419.702 172.486 350.107 194.305 271.597 224.738C239.153 237.179 232.466 239.092 233.952 235.839C234.942 233.733 236.924 222.632 238.41 211.34L241.382 190.86L273.578 189.903C307.013 188.946 316.92 186.841 316.92 180.525C316.92 178.611 311.967 165.596 306.023 151.432C286.209 104.54 259.461 15.157 263.919 9.79785C264.662 8.84086 263.919 6.35269 262.433 4.24731C258.718 -1.11183 250.545 -0.537636 247.573 5.3957ZM265.901 86.5484C273.331 108.559 292.649 155.452 301.565 172.869C303.794 177.462 303.546 178.228 298.84 179.185C295.868 179.759 281.999 180.333 268.13 180.333H242.62V173.826C242.62 170.381 243.363 162.151 244.106 155.643L245.84 143.776L259.709 138.226C276.055 131.718 275.56 130.761 258.718 136.503C252.527 138.609 246.83 140.14 246.335 139.757C245.84 139.566 247.573 123.297 250.298 103.774C252.774 84.2516 254.756 66.2602 255.003 63.772C255.003 55.9247 256.985 59.9441 265.901 86.5484ZM603.718 92.6731C605.452 94.0129 606.69 96.3097 606.69 97.8409C606.69 101.86 591.83 113.344 586.381 113.344C579.447 113.344 580.685 103.391 588.363 96.3097C595.297 89.9936 599.012 89.0366 603.718 92.6731ZM229.246 157.557C228.503 160.811 227.76 167.318 227.76 171.72V179.759L201.26 181.099C186.4 181.673 167.329 182.822 158.413 183.396L142.315 184.735L183.18 168.467C205.718 159.471 225.531 152.006 227.512 151.815C229.989 151.624 230.484 153.155 229.246 157.557Z" fill="#A1A1A1"/>
<path d="M458.338 56.4989C454.375 60.1355 452.394 70.2796 454.127 75.8301C455.861 80.9978 464.777 88.4624 468.987 88.4624C470.473 88.4624 471.712 85.5914 471.959 82.1462C472.207 78.8925 472.702 71.8107 473.198 66.8344C473.693 60.1355 472.95 57.0731 470.473 55.9247C465.272 53.4365 461.557 53.6279 458.338 56.4989Z" fill="#A1A1A1"/>
<path d="M392.953 58.9871C390.229 61.0925 390.972 79.2753 394.192 97.8409C396.668 113.153 396.421 115.449 391.467 127.125C382.304 148.37 369.673 156.217 363.729 144.351C359.766 136.695 364.719 115.258 371.406 111.047C380.57 105.305 374.874 98.4151 364.719 103.391C359.518 105.88 351.841 121.766 350.355 132.675C346.392 161.002 377.598 170.381 395.678 146.073L402.86 136.312L405.832 143.776C408.804 151.815 416.234 155.452 421.93 151.815C423.664 150.667 426.636 144.351 428.37 138.034L431.589 126.359L435.304 131.718C442.487 143.011 452.393 145.116 461.805 137.077C466.758 133.058 468.492 132.484 472.702 134.398C483.847 138.8 495.983 126.742 493.506 113.727L492.268 107.411L487.562 113.153C481.866 120.617 477.903 120.809 477.903 113.727C477.903 106.645 472.702 101.286 466.51 102.243C463.291 102.626 460.566 106.071 457.347 113.918C454.87 119.852 451.898 124.828 450.66 124.828C449.669 124.828 447.192 120.234 445.706 114.684C439.019 93.2473 427.379 92.4817 418.215 113.153L414.253 121.957L411.033 107.985C409.547 100.138 407.318 85.9742 406.327 76.4043C405.089 60.7097 404.346 58.7957 399.888 58.2215C396.916 57.8387 393.944 58.2215 392.953 58.9871Z" fill="#A1A1A1"/>
<path d="M621.55 61.4753C618.082 66.643 618.33 70.471 623.036 73.9161C627.246 77.3613 641.858 77.9355 648.793 75.0645C652.756 73.5333 653.746 74.1075 656.223 80.4237C660.929 91.5247 665.634 96.1183 672.569 96.1183C676.779 96.1183 679.999 94.3957 682.971 90.3764C687.677 83.8688 689.163 83.486 693.373 87.5054C698.574 92.2903 710.214 90.9505 718.387 84.8258C730.275 75.4473 725.817 67.9828 711.7 73.7247C705.013 76.4043 704.766 76.2129 701.051 70.471C695.354 61.8581 688.172 61.8581 679.256 70.2796L671.826 77.1699L667.863 69.514C665.634 65.4946 662.662 61.4753 661.176 60.7097C657.461 58.9871 651.27 63.1979 651.27 67.7914C651.27 72.5764 645.326 74.1075 639.134 70.8538C635.914 69.1312 634.924 67.2172 636.41 65.4946C637.4 64.1548 637.896 61.8581 637.153 60.3269C635.171 56.4989 624.522 57.2645 621.55 61.4753Z" fill="#A1A1A1"/>
<path d="M343.916 104.731C337.476 107.219 329.303 112.196 325.588 115.449C320.883 120.043 316.672 121.766 311.224 121.766C305.032 121.957 303.051 122.914 302.555 126.168C302.06 128.847 303.546 131.335 306.766 132.867C310.233 134.398 311.967 137.269 311.967 141.097C311.967 150.475 316.425 159.471 323.607 165.404C331.037 171.529 336.981 172.103 342.925 167.701C347.631 163.873 346.392 156.983 337.724 142.819C334.504 137.46 331.78 132.484 331.78 131.718C331.78 131.144 337.476 123.68 344.163 115.258C351.098 106.837 356.299 99.9462 356.051 99.9462C355.556 100.138 350.107 102.243 343.916 104.731Z" fill="#A1A1A1"/>
</svg>
