<svg width="164" height="46" viewBox="0 0 164 46" fill="none" xmlns="http://www.w3.org/2000/svg">
<path d="M0 3.06667C0 2.07215 0 1.57489 0.172909 1.18653C0.373934 0.735018 0.735018 0.373934 1.18653 0.172909C1.57489 0 2.07215 0 3.06667 0H141C153.703 0 164 10.2975 164 23V23C164 35.7025 153.703 46 141 46H42.9333C29.0101 46 22.0484 46 16.6114 43.5793C10.2903 40.7649 5.23507 35.7097 2.42073 29.3886C0 23.9516 0 16.9899 0 3.06667V3.06667Z" fill="#98D73C" fill-opacity="0.969"/>
<path d="M30.96 22.132C31.632 22.132 32.224 22.052 32.736 21.892C33.256 21.724 33.688 21.492 34.032 21.196C34.384 20.892 34.648 20.532 34.824 20.116C35 19.7 35.088 19.24 35.088 18.736C35.088 17.712 34.752 16.94 34.08 16.42C33.408 15.9 32.4 15.64 31.056 15.64H28.512V22.132H30.96ZM38.904 31H36.84C36.416 31 36.104 30.836 35.904 30.508L31.44 24.364C31.304 24.172 31.156 24.036 30.996 23.956C30.844 23.868 30.604 23.824 30.276 23.824H28.512V31H26.196V13.804H31.056C32.144 13.804 33.084 13.916 33.876 14.14C34.668 14.356 35.32 14.672 35.832 15.088C36.352 15.504 36.736 16.008 36.984 16.6C37.232 17.184 37.356 17.84 37.356 18.568C37.356 19.176 37.26 19.744 37.068 20.272C36.876 20.8 36.596 21.276 36.228 21.7C35.868 22.116 35.424 22.472 34.896 22.768C34.376 23.064 33.784 23.288 33.12 23.44C33.416 23.608 33.672 23.852 33.888 24.172L38.904 31ZM48.1014 23.596C48.1014 23.1 48.0294 22.648 47.8854 22.24C47.7494 21.824 47.5454 21.468 47.2734 21.172C47.0094 20.868 46.6854 20.636 46.3014 20.476C45.9174 20.308 45.4814 20.224 44.9934 20.224C43.9694 20.224 43.1574 20.524 42.5574 21.124C41.9654 21.716 41.5974 22.54 41.4534 23.596H48.1014ZM49.8294 29.296C49.5654 29.616 49.2494 29.896 48.8814 30.136C48.5134 30.368 48.1174 30.56 47.6934 30.712C47.2774 30.864 46.8454 30.976 46.3974 31.048C45.9494 31.128 45.5054 31.168 45.0654 31.168C44.2254 31.168 43.4494 31.028 42.7374 30.748C42.0334 30.46 41.4214 30.044 40.9014 29.5C40.3894 28.948 39.9894 28.268 39.7014 27.46C39.4134 26.652 39.2694 25.724 39.2694 24.676C39.2694 23.828 39.3974 23.036 39.6534 22.3C39.9174 21.564 40.2934 20.928 40.7814 20.392C41.2694 19.848 41.8654 19.424 42.5694 19.12C43.2734 18.808 44.0654 18.652 44.9454 18.652C45.6734 18.652 46.3454 18.776 46.9614 19.024C47.5854 19.264 48.1214 19.616 48.5694 20.08C49.0254 20.536 49.3814 21.104 49.6374 21.784C49.8934 22.456 50.0214 23.224 50.0214 24.088C50.0214 24.424 49.9854 24.648 49.9134 24.76C49.8414 24.872 49.7054 24.928 49.5054 24.928H41.3814C41.4054 25.696 41.5094 26.364 41.6934 26.932C41.8854 27.5 42.1494 27.976 42.4854 28.36C42.8214 28.736 43.2214 29.02 43.6854 29.212C44.1494 29.396 44.6694 29.488 45.2454 29.488C45.7814 29.488 46.2414 29.428 46.6254 29.308C47.0174 29.18 47.3534 29.044 47.6334 28.9C47.9134 28.756 48.1454 28.624 48.3294 28.504C48.5214 28.376 48.6854 28.312 48.8214 28.312C48.9974 28.312 49.1334 28.38 49.2294 28.516L49.8294 29.296ZM59.7251 20.848C59.6291 21.024 59.4811 21.112 59.2811 21.112C59.1611 21.112 59.0251 21.068 58.8731 20.98C58.7211 20.892 58.5331 20.796 58.3091 20.692C58.0931 20.58 57.8331 20.48 57.5291 20.392C57.2251 20.296 56.8651 20.248 56.4491 20.248C56.0891 20.248 55.7651 20.296 55.4771 20.392C55.1891 20.48 54.9411 20.604 54.7331 20.764C54.5331 20.924 54.3771 21.112 54.2651 21.328C54.1611 21.536 54.1091 21.764 54.1091 22.012C54.1091 22.324 54.1971 22.584 54.3731 22.792C54.5571 23 54.7971 23.18 55.0931 23.332C55.3891 23.484 55.7251 23.62 56.1011 23.74C56.4771 23.852 56.8611 23.976 57.2531 24.112C57.6531 24.24 58.0411 24.384 58.4171 24.544C58.7931 24.704 59.1291 24.904 59.4251 25.144C59.7211 25.384 59.9571 25.68 60.1331 26.032C60.3171 26.376 60.4091 26.792 60.4091 27.28C60.4091 27.84 60.3091 28.36 60.1091 28.84C59.9091 29.312 59.6131 29.724 59.2211 30.076C58.8291 30.42 58.3491 30.692 57.7811 30.892C57.2131 31.092 56.5571 31.192 55.8131 31.192C54.9651 31.192 54.1971 31.056 53.5091 30.784C52.8211 30.504 52.2371 30.148 51.7571 29.716L52.2611 28.9C52.3251 28.796 52.4011 28.716 52.4891 28.66C52.5771 28.604 52.6891 28.576 52.8251 28.576C52.9691 28.576 53.1211 28.632 53.2811 28.744C53.4411 28.856 53.6331 28.98 53.8571 29.116C54.0891 29.252 54.3691 29.376 54.6971 29.488C55.0251 29.6 55.4331 29.656 55.9211 29.656C56.3371 29.656 56.7011 29.604 57.0131 29.5C57.3251 29.388 57.5851 29.24 57.7931 29.056C58.0011 28.872 58.1531 28.66 58.2491 28.42C58.3531 28.18 58.4051 27.924 58.4051 27.652C58.4051 27.316 58.3131 27.04 58.1291 26.824C57.9531 26.6 57.7171 26.412 57.4211 26.26C57.1251 26.1 56.7851 25.964 56.4011 25.852C56.0251 25.732 55.6371 25.608 55.2371 25.48C54.8451 25.352 54.4571 25.208 54.0731 25.048C53.6971 24.88 53.3611 24.672 53.0651 24.424C52.7691 24.176 52.5291 23.872 52.3451 23.512C52.1691 23.144 52.0811 22.7 52.0811 22.18C52.0811 21.716 52.1771 21.272 52.3691 20.848C52.5611 20.416 52.8411 20.04 53.2091 19.72C53.5771 19.392 54.0291 19.132 54.5651 18.94C55.1011 18.748 55.7131 18.652 56.4011 18.652C57.2011 18.652 57.9171 18.78 58.5491 19.036C59.1891 19.284 59.7411 19.628 60.2051 20.068L59.7251 20.848ZM73.0239 18.844V31H71.7519C71.4479 31 71.2559 30.852 71.1759 30.556L71.0079 29.248C70.4799 29.832 69.8879 30.304 69.2319 30.664C68.5759 31.016 67.8239 31.192 66.9759 31.192C66.3119 31.192 65.7239 31.084 65.2119 30.868C64.7079 30.644 64.2839 30.332 63.9399 29.932C63.5959 29.532 63.3359 29.048 63.1599 28.48C62.9919 27.912 62.9079 27.284 62.9079 26.596V18.844H65.0439V26.596C65.0439 27.516 65.2519 28.228 65.6679 28.732C66.0919 29.236 66.7359 29.488 67.5999 29.488C68.2319 29.488 68.8199 29.34 69.3639 29.044C69.9159 28.74 70.4239 28.324 70.8879 27.796V18.844H73.0239ZM76.4108 31V18.844H77.6948C77.9988 18.844 78.1868 18.992 78.2588 19.288L78.4148 20.536C78.8628 19.984 79.3668 19.532 79.9268 19.18C80.4868 18.828 81.1348 18.652 81.8708 18.652C82.6868 18.652 83.3468 18.88 83.8508 19.336C84.3628 19.792 84.7308 20.408 84.9548 21.184C85.1308 20.744 85.3548 20.364 85.6268 20.044C85.9068 19.724 86.2188 19.46 86.5628 19.252C86.9068 19.044 87.2708 18.892 87.6548 18.796C88.0468 18.7 88.4428 18.652 88.8428 18.652C89.4828 18.652 90.0508 18.756 90.5468 18.964C91.0508 19.164 91.4748 19.46 91.8188 19.852C92.1708 20.244 92.4388 20.728 92.6228 21.304C92.8068 21.872 92.8988 22.524 92.8988 23.26V31H90.7508V23.26C90.7508 22.308 90.5428 21.588 90.1268 21.1C89.7108 20.604 89.1108 20.356 88.3268 20.356C87.9748 20.356 87.6388 20.42 87.3188 20.548C87.0068 20.668 86.7308 20.848 86.4908 21.088C86.2508 21.328 86.0588 21.632 85.9148 22C85.7788 22.36 85.7108 22.78 85.7108 23.26V31H83.5628V23.26C83.5628 22.284 83.3668 21.556 82.9748 21.076C82.5828 20.596 82.0108 20.356 81.2588 20.356C80.7308 20.356 80.2428 20.5 79.7948 20.788C79.3468 21.068 78.9348 21.452 78.5588 21.94V31H76.4108ZM104.281 23.596C104.281 23.1 104.209 22.648 104.065 22.24C103.929 21.824 103.725 21.468 103.453 21.172C103.189 20.868 102.865 20.636 102.481 20.476C102.097 20.308 101.661 20.224 101.173 20.224C100.149 20.224 99.3371 20.524 98.7371 21.124C98.1451 21.716 97.7771 22.54 97.6331 23.596H104.281ZM106.009 29.296C105.745 29.616 105.429 29.896 105.061 30.136C104.693 30.368 104.297 30.56 103.873 30.712C103.457 30.864 103.025 30.976 102.577 31.048C102.129 31.128 101.685 31.168 101.245 31.168C100.405 31.168 99.6291 31.028 98.9171 30.748C98.2131 30.46 97.6011 30.044 97.0811 29.5C96.5691 28.948 96.1691 28.268 95.8811 27.46C95.5931 26.652 95.4491 25.724 95.4491 24.676C95.4491 23.828 95.5771 23.036 95.8331 22.3C96.0971 21.564 96.4731 20.928 96.9611 20.392C97.4491 19.848 98.0451 19.424 98.7491 19.12C99.4531 18.808 100.245 18.652 101.125 18.652C101.853 18.652 102.525 18.776 103.141 19.024C103.765 19.264 104.301 19.616 104.749 20.08C105.205 20.536 105.561 21.104 105.817 21.784C106.073 22.456 106.201 23.224 106.201 24.088C106.201 24.424 106.165 24.648 106.093 24.76C106.021 24.872 105.885 24.928 105.685 24.928H97.5611C97.5851 25.696 97.6891 26.364 97.8731 26.932C98.0651 27.5 98.3291 27.976 98.6651 28.36C99.0011 28.736 99.4011 29.02 99.8651 29.212C100.329 29.396 100.849 29.488 101.425 29.488C101.961 29.488 102.421 29.428 102.805 29.308C103.197 29.18 103.533 29.044 103.813 28.9C104.093 28.756 104.325 28.624 104.509 28.504C104.701 28.376 104.865 28.312 105.001 28.312C105.177 28.312 105.313 28.38 105.409 28.516L106.009 29.296Z" fill="#EFEFEF"/>
<g clip-path="url(#clip0_344_11)">
<path d="M121 11.625C121 9.62559 122.57 8 124.5 8H133.25V15.25C133.25 16.2525 134.032 17.0625 135 17.0625H142V33.375C142 35.3744 140.43 37 138.5 37H124.5C122.57 37 121 35.3744 121 33.375V11.625ZM142 15.25H135V8L142 15.25Z" fill="#EFEFEF"/>
<g clip-path="url(#clip1_344_11)">
<path d="M131.319 18.4102C129.83 18.4102 128.403 19.0174 127.351 20.0981C126.298 21.1789 125.707 22.6447 125.707 24.1731C125.707 25.7015 126.298 27.1673 127.351 28.248C128.403 29.3287 129.83 29.9359 131.319 29.9359C132.807 29.9359 134.235 29.3287 135.287 28.248C136.34 27.1673 136.931 25.7015 136.931 24.1731C136.931 22.6447 136.34 21.1789 135.287 20.0981C134.235 19.0174 132.807 18.4102 131.319 18.4102ZM131.071 27.3089L128.616 24.7876C128.515 24.6841 128.487 24.5287 128.539 24.3959C128.592 24.2631 128.721 24.1731 128.864 24.1731H130.267V22.012C130.267 21.6136 130.58 21.2917 130.968 21.2917H131.67C132.058 21.2917 132.371 21.6136 132.371 22.012V24.1731H133.774C133.917 24.1731 134.044 24.2609 134.099 24.3959C134.153 24.531 134.123 24.6863 134.022 24.7876L131.567 27.3089C131.431 27.4484 131.207 27.4484 131.071 27.3089Z" fill="#98D73C" fill-opacity="0.969"/>
</g>
</g>
<defs>
<clipPath id="clip0_344_11">
<rect width="21" height="29" fill="white" transform="translate(121 8)"/>
</clipPath>
<clipPath id="clip1_344_11">
<rect width="11.2241" height="11.5256" fill="white" transform="translate(125.707 18.4102)"/>
</clipPath>
</defs>
</svg>
