<svg xmlns="http://www.w3.org/2000/svg" viewBox="0 0 100 100" width="100" height="100">
  <title>Particle Pattern</title>
    <line x1="88.7" y1="24.4" x2="94.2" y2="41.2" stroke="#9AD741" stroke-width="0.5" opacity="0.12"/>
  <line x1="88.7" y1="24.4" x2="85.8" y2="13.8" stroke="#9AD741" stroke-width="0.5" opacity="0.45"/>
  <line x1="88.7" y1="24.4" x2="88.0" y2="8.8" stroke="#9AD741" stroke-width="0.5" opacity="0.22"/>
  <line x1="88.7" y1="24.4" x2="89.9" y2="5.8" stroke="#9AD741" stroke-width="0.5" opacity="0.07"/>
  <line x1="88.7" y1="24.4" x2="92.9" y2="18.5" stroke="#9AD741" stroke-width="0.5" opacity="0.64"/>
  <line x1="31.4" y1="86.9" x2="17.3" y2="83.6" stroke="#9AD741" stroke-width="0.5" opacity="0.27"/>
  <line x1="31.4" y1="86.9" x2="32.3" y2="76.5" stroke="#9AD741" stroke-width="0.5" opacity="0.48"/>
  <line x1="31.4" y1="86.9" x2="26.4" y2="76.4" stroke="#9AD741" stroke-width="0.5" opacity="0.42"/>
  <line x1="31.4" y1="86.9" x2="24.3" y2="84.9" stroke="#9AD741" stroke-width="0.5" opacity="0.63"/>
  <line x1="31.4" y1="86.9" x2="27.7" y2="80.5" stroke="#9AD741" stroke-width="0.5" opacity="0.63"/>
  <line x1="31.4" y1="86.9" x2="28.0" y2="71.1" stroke="#9AD741" stroke-width="0.5" opacity="0.20"/>
  <line x1="31.4" y1="86.9" x2="15.4" y2="89.9" stroke="#9AD741" stroke-width="0.5" opacity="0.18"/>
  <line x1="31.4" y1="86.9" x2="15.6" y2="89.5" stroke="#9AD741" stroke-width="0.5" opacity="0.20"/>
  <line x1="69.6" y1="71.9" x2="58.4" y2="61.1" stroke="#9AD741" stroke-width="0.5" opacity="0.22"/>
  <line x1="69.6" y1="71.9" x2="85.9" y2="75.5" stroke="#9AD741" stroke-width="0.5" opacity="0.17"/>
  <line x1="69.6" y1="71.9" x2="84.4" y2="82.6" stroke="#9AD741" stroke-width="0.5" opacity="0.09"/>
  <line x1="69.6" y1="71.9" x2="54.6" y2="64.5" stroke="#9AD741" stroke-width="0.5" opacity="0.16"/>
  <line x1="69.6" y1="71.9" x2="82.3" y2="76.9" stroke="#9AD741" stroke-width="0.5" opacity="0.32"/>
  <line x1="69.6" y1="71.9" x2="69.5" y2="87.8" stroke="#9AD741" stroke-width="0.5" opacity="0.21"/>
  <line x1="69.6" y1="71.9" x2="80.6" y2="81.3" stroke="#9AD741" stroke-width="0.5" opacity="0.27"/>
  <line x1="69.6" y1="71.9" x2="57.2" y2="68.0" stroke="#9AD741" stroke-width="0.5" opacity="0.35"/>
  <line x1="69.6" y1="71.9" x2="67.9" y2="52.3" stroke="#9AD741" stroke-width="0.5" opacity="0.02"/>
  <line x1="58.4" y1="61.1" x2="46.1" y2="47.8" stroke="#9AD741" stroke-width="0.5" opacity="0.09"/>
  <line x1="58.4" y1="61.1" x2="43.2" y2="53.5" stroke="#9AD741" stroke-width="0.5" opacity="0.15"/>
  <line x1="58.4" y1="61.1" x2="50.1" y2="49.6" stroke="#9AD741" stroke-width="0.5" opacity="0.29"/>
  <line x1="58.4" y1="61.1" x2="54.6" y2="64.5" stroke="#9AD741" stroke-width="0.5" opacity="0.75"/>
  <line x1="58.4" y1="61.1" x2="50.0" y2="52.4" stroke="#9AD741" stroke-width="0.5" opacity="0.39"/>
  <line x1="58.4" y1="61.1" x2="57.2" y2="68.0" stroke="#9AD741" stroke-width="0.5" opacity="0.65"/>
  <line x1="58.4" y1="61.1" x2="67.9" y2="52.3" stroke="#9AD741" stroke-width="0.5" opacity="0.35"/>
  <line x1="85.9" y1="75.5" x2="84.4" y2="82.6" stroke="#9AD741" stroke-width="0.5" opacity="0.64"/>
  <line x1="85.9" y1="75.5" x2="82.3" y2="76.9" stroke="#9AD741" stroke-width="0.5" opacity="0.81"/>
  <line x1="85.9" y1="75.5" x2="76.7" y2="90.8" stroke="#9AD741" stroke-width="0.5" opacity="0.11"/>
  <line x1="85.9" y1="75.5" x2="91.5" y2="57.7" stroke="#9AD741" stroke-width="0.5" opacity="0.07"/>
  <line x1="85.9" y1="75.5" x2="80.6" y2="81.3" stroke="#9AD741" stroke-width="0.5" opacity="0.61"/>
  <line x1="17.3" y1="83.6" x2="32.3" y2="76.5" stroke="#9AD741" stroke-width="0.5" opacity="0.17"/>
  <line x1="17.3" y1="83.6" x2="26.4" y2="76.4" stroke="#9AD741" stroke-width="0.5" opacity="0.42"/>
  <line x1="17.3" y1="83.6" x2="24.3" y2="84.9" stroke="#9AD741" stroke-width="0.5" opacity="0.64"/>
  <line x1="17.3" y1="83.6" x2="13.5" y2="71.9" stroke="#9AD741" stroke-width="0.5" opacity="0.38"/>
  <line x1="17.3" y1="83.6" x2="27.7" y2="80.5" stroke="#9AD741" stroke-width="0.5" opacity="0.46"/>
  <line x1="17.3" y1="83.6" x2="28.0" y2="71.1" stroke="#9AD741" stroke-width="0.5" opacity="0.18"/>
  <line x1="17.3" y1="83.6" x2="12.4" y2="75.0" stroke="#9AD741" stroke-width="0.5" opacity="0.51"/>
  <line x1="17.3" y1="83.6" x2="15.4" y2="89.9" stroke="#9AD741" stroke-width="0.5" opacity="0.67"/>
  <line x1="17.3" y1="83.6" x2="15.6" y2="89.5" stroke="#9AD741" stroke-width="0.5" opacity="0.69"/>
  <line x1="17.3" y1="83.6" x2="9.2" y2="67.1" stroke="#9AD741" stroke-width="0.5" opacity="0.08"/>
  <line x1="32.3" y1="76.5" x2="26.4" y2="76.4" stroke="#9AD741" stroke-width="0.5" opacity="0.71"/>
  <line x1="32.3" y1="76.5" x2="24.3" y2="84.9" stroke="#9AD741" stroke-width="0.5" opacity="0.42"/>
  <line x1="32.3" y1="76.5" x2="13.5" y2="71.9" stroke="#9AD741" stroke-width="0.5" opacity="0.03"/>
  <line x1="32.3" y1="76.5" x2="27.7" y2="80.5" stroke="#9AD741" stroke-width="0.5" opacity="0.69"/>
  <line x1="32.3" y1="76.5" x2="28.0" y2="71.1" stroke="#9AD741" stroke-width="0.5" opacity="0.66"/>
  <line x1="32.3" y1="76.5" x2="12.4" y2="75.0" stroke="#9AD741" stroke-width="0.5" opacity="0.00"/>
  <line x1="36.6" y1="17.1" x2="33.5" y2="9.9" stroke="#9AD741" stroke-width="0.5" opacity="0.61"/>
  <line x1="36.6" y1="17.1" x2="44.5" y2="21.4" stroke="#9AD741" stroke-width="0.5" opacity="0.55"/>
  <line x1="36.6" y1="17.1" x2="29.9" y2="25.2" stroke="#9AD741" stroke-width="0.5" opacity="0.48"/>
  <line x1="36.6" y1="17.1" x2="34.8" y2="21.6" stroke="#9AD741" stroke-width="0.5" opacity="0.76"/>
  <line x1="36.6" y1="17.1" x2="53.0" y2="28.0" stroke="#9AD741" stroke-width="0.5" opacity="0.01"/>
  <line x1="36.6" y1="17.1" x2="36.2" y2="14.1" stroke="#9AD741" stroke-width="0.5" opacity="0.85"/>
  <line x1="12.4" y1="21.2" x2="29.9" y2="25.2" stroke="#9AD741" stroke-width="0.5" opacity="0.10"/>
  <line x1="26.4" y1="76.4" x2="24.3" y2="84.9" stroke="#9AD741" stroke-width="0.5" opacity="0.56"/>
  <line x1="26.4" y1="76.4" x2="13.5" y2="71.9" stroke="#9AD741" stroke-width="0.5" opacity="0.31"/>
  <line x1="26.4" y1="76.4" x2="27.7" y2="80.5" stroke="#9AD741" stroke-width="0.5" opacity="0.79"/>
  <line x1="26.4" y1="76.4" x2="28.0" y2="71.1" stroke="#9AD741" stroke-width="0.5" opacity="0.72"/>
  <line x1="26.4" y1="76.4" x2="12.4" y2="75.0" stroke="#9AD741" stroke-width="0.5" opacity="0.29"/>
  <line x1="26.4" y1="76.4" x2="15.4" y2="89.9" stroke="#9AD741" stroke-width="0.5" opacity="0.13"/>
  <line x1="26.4" y1="76.4" x2="15.6" y2="89.5" stroke="#9AD741" stroke-width="0.5" opacity="0.15"/>
  <line x1="26.4" y1="76.4" x2="9.2" y2="67.1" stroke="#9AD741" stroke-width="0.5" opacity="0.02"/>
  <line x1="46.1" y1="47.8" x2="43.2" y2="53.5" stroke="#9AD741" stroke-width="0.5" opacity="0.68"/>
  <line x1="46.1" y1="47.8" x2="50.1" y2="49.6" stroke="#9AD741" stroke-width="0.5" opacity="0.78"/>
  <line x1="46.1" y1="47.8" x2="26.7" y2="49.8" stroke="#9AD741" stroke-width="0.5" opacity="0.03"/>
  <line x1="46.1" y1="47.8" x2="54.6" y2="64.5" stroke="#9AD741" stroke-width="0.5" opacity="0.06"/>
  <line x1="46.1" y1="47.8" x2="63.8" y2="41.3" stroke="#9AD741" stroke-width="0.5" opacity="0.06"/>
  <line x1="46.1" y1="47.8" x2="27.3" y2="50.4" stroke="#9AD741" stroke-width="0.5" opacity="0.05"/>
  <line x1="46.1" y1="47.8" x2="50.0" y2="52.4" stroke="#9AD741" stroke-width="0.5" opacity="0.70"/>
  <line x1="94.2" y1="41.2" x2="85.2" y2="54.8" stroke="#9AD741" stroke-width="0.5" opacity="0.19"/>
  <line x1="94.2" y1="41.2" x2="91.5" y2="57.7" stroke="#9AD741" stroke-width="0.5" opacity="0.16"/>
  <line x1="24.3" y1="84.9" x2="13.5" y2="71.9" stroke="#9AD741" stroke-width="0.5" opacity="0.16"/>
  <line x1="24.3" y1="84.9" x2="27.7" y2="80.5" stroke="#9AD741" stroke-width="0.5" opacity="0.72"/>
  <line x1="24.3" y1="84.9" x2="28.0" y2="71.1" stroke="#9AD741" stroke-width="0.5" opacity="0.29"/>
  <line x1="24.3" y1="84.9" x2="12.4" y2="75.0" stroke="#9AD741" stroke-width="0.5" opacity="0.23"/>
  <line x1="24.3" y1="84.9" x2="15.4" y2="89.9" stroke="#9AD741" stroke-width="0.5" opacity="0.49"/>
  <line x1="24.3" y1="84.9" x2="15.6" y2="89.5" stroke="#9AD741" stroke-width="0.5" opacity="0.51"/>
  <line x1="84.4" y1="82.6" x2="82.3" y2="76.9" stroke="#9AD741" stroke-width="0.5" opacity="0.70"/>
  <line x1="84.4" y1="82.6" x2="76.7" y2="90.8" stroke="#9AD741" stroke-width="0.5" opacity="0.44"/>
  <line x1="84.4" y1="82.6" x2="69.5" y2="87.8" stroke="#9AD741" stroke-width="0.5" opacity="0.21"/>
  <line x1="84.4" y1="82.6" x2="80.6" y2="81.3" stroke="#9AD741" stroke-width="0.5" opacity="0.80"/>
  <line x1="85.8" y1="13.8" x2="88.0" y2="8.8" stroke="#9AD741" stroke-width="0.5" opacity="0.73"/>
  <line x1="85.8" y1="13.8" x2="89.9" y2="5.8" stroke="#9AD741" stroke-width="0.5" opacity="0.55"/>
  <line x1="85.8" y1="13.8" x2="72.2" y2="12.8" stroke="#9AD741" stroke-width="0.5" opacity="0.32"/>
  <line x1="85.8" y1="13.8" x2="92.9" y2="18.5" stroke="#9AD741" stroke-width="0.5" opacity="0.58"/>
  <line x1="13.5" y1="71.9" x2="27.7" y2="80.5" stroke="#9AD741" stroke-width="0.5" opacity="0.17"/>
  <line x1="13.5" y1="71.9" x2="28.0" y2="71.1" stroke="#9AD741" stroke-width="0.5" opacity="0.27"/>
  <line x1="13.5" y1="71.9" x2="12.4" y2="75.0" stroke="#9AD741" stroke-width="0.5" opacity="0.83"/>
  <line x1="13.5" y1="71.9" x2="15.4" y2="89.9" stroke="#9AD741" stroke-width="0.5" opacity="0.10"/>
  <line x1="13.5" y1="71.9" x2="10.7" y2="52.7" stroke="#9AD741" stroke-width="0.5" opacity="0.03"/>
  <line x1="13.5" y1="71.9" x2="15.6" y2="89.5" stroke="#9AD741" stroke-width="0.5" opacity="0.11"/>
  <line x1="13.5" y1="71.9" x2="9.2" y2="67.1" stroke="#9AD741" stroke-width="0.5" opacity="0.68"/>
  <line x1="33.5" y1="9.9" x2="44.5" y2="21.4" stroke="#9AD741" stroke-width="0.5" opacity="0.20"/>
  <line x1="33.5" y1="9.9" x2="29.9" y2="25.2" stroke="#9AD741" stroke-width="0.5" opacity="0.21"/>
  <line x1="33.5" y1="9.9" x2="34.8" y2="21.6" stroke="#9AD741" stroke-width="0.5" opacity="0.41"/>
  <line x1="33.5" y1="9.9" x2="36.2" y2="14.1" stroke="#9AD741" stroke-width="0.5" opacity="0.75"/>
  <line x1="27.7" y1="80.5" x2="28.0" y2="71.1" stroke="#9AD741" stroke-width="0.5" opacity="0.53"/>
  <line x1="27.7" y1="80.5" x2="12.4" y2="75.0" stroke="#9AD741" stroke-width="0.5" opacity="0.19"/>
  <line x1="27.7" y1="80.5" x2="15.4" y2="89.9" stroke="#9AD741" stroke-width="0.5" opacity="0.23"/>
  <line x1="27.7" y1="80.5" x2="15.6" y2="89.5" stroke="#9AD741" stroke-width="0.5" opacity="0.25"/>
  <line x1="43.2" y1="53.5" x2="50.1" y2="49.6" stroke="#9AD741" stroke-width="0.5" opacity="0.60"/>
  <line x1="43.2" y1="53.5" x2="26.7" y2="49.8" stroke="#9AD741" stroke-width="0.5" opacity="0.16"/>
  <line x1="43.2" y1="53.5" x2="54.6" y2="64.5" stroke="#9AD741" stroke-width="0.5" opacity="0.21"/>
  <line x1="43.2" y1="53.5" x2="27.3" y2="50.4" stroke="#9AD741" stroke-width="0.5" opacity="0.19"/>
  <line x1="43.2" y1="53.5" x2="50.0" y2="52.4" stroke="#9AD741" stroke-width="0.5" opacity="0.66"/>
  <line x1="28.0" y1="71.1" x2="12.4" y2="75.0" stroke="#9AD741" stroke-width="0.5" opacity="0.19"/>
  <line x1="28.0" y1="71.1" x2="9.2" y2="67.1" stroke="#9AD741" stroke-width="0.5" opacity="0.04"/>
  <line x1="85.2" y1="54.8" x2="91.5" y2="57.7" stroke="#9AD741" stroke-width="0.5" opacity="0.66"/>
  <line x1="85.2" y1="54.8" x2="67.9" y2="52.3" stroke="#9AD741" stroke-width="0.5" opacity="0.12"/>
  <line x1="12.4" y1="75.0" x2="15.4" y2="89.9" stroke="#9AD741" stroke-width="0.5" opacity="0.24"/>
  <line x1="12.4" y1="75.0" x2="15.6" y2="89.5" stroke="#9AD741" stroke-width="0.5" opacity="0.26"/>
  <line x1="12.4" y1="75.0" x2="9.2" y2="67.1" stroke="#9AD741" stroke-width="0.5" opacity="0.57"/>
  <line x1="88.0" y1="8.8" x2="89.9" y2="5.8" stroke="#9AD741" stroke-width="0.5" opacity="0.82"/>
  <line x1="88.0" y1="8.8" x2="72.2" y2="12.8" stroke="#9AD741" stroke-width="0.5" opacity="0.19"/>
  <line x1="88.0" y1="8.8" x2="92.9" y2="18.5" stroke="#9AD741" stroke-width="0.5" opacity="0.46"/>
  <line x1="50.1" y1="49.6" x2="54.6" y2="64.5" stroke="#9AD741" stroke-width="0.5" opacity="0.22"/>
  <line x1="50.1" y1="49.6" x2="63.8" y2="41.3" stroke="#9AD741" stroke-width="0.5" opacity="0.20"/>
  <line x1="50.1" y1="49.6" x2="50.0" y2="52.4" stroke="#9AD741" stroke-width="0.5" opacity="0.86"/>
  <line x1="50.1" y1="49.6" x2="57.2" y2="68.0" stroke="#9AD741" stroke-width="0.5" opacity="0.02"/>
  <line x1="50.1" y1="49.6" x2="67.9" y2="52.3" stroke="#9AD741" stroke-width="0.5" opacity="0.10"/>
  <line x1="26.7" y1="49.8" x2="10.7" y2="52.7" stroke="#9AD741" stroke-width="0.5" opacity="0.19"/>
  <line x1="26.7" y1="49.8" x2="27.3" y2="50.4" stroke="#9AD741" stroke-width="0.5" opacity="0.96"/>
  <line x1="54.6" y1="64.5" x2="50.0" y2="52.4" stroke="#9AD741" stroke-width="0.5" opacity="0.36"/>
  <line x1="54.6" y1="64.5" x2="57.2" y2="68.0" stroke="#9AD741" stroke-width="0.5" opacity="0.78"/>
  <line x1="54.6" y1="64.5" x2="67.9" y2="52.3" stroke="#9AD741" stroke-width="0.5" opacity="0.10"/>
  <line x1="63.8" y1="41.3" x2="53.0" y2="28.0" stroke="#9AD741" stroke-width="0.5" opacity="0.14"/>
  <line x1="63.8" y1="41.3" x2="50.0" y2="52.4" stroke="#9AD741" stroke-width="0.5" opacity="0.11"/>
  <line x1="63.8" y1="41.3" x2="67.9" y2="52.3" stroke="#9AD741" stroke-width="0.5" opacity="0.41"/>
  <line x1="89.9" y1="5.8" x2="72.2" y2="12.8" stroke="#9AD741" stroke-width="0.5" opacity="0.05"/>
  <line x1="89.9" y1="5.8" x2="92.9" y2="18.5" stroke="#9AD741" stroke-width="0.5" opacity="0.35"/>
  <line x1="82.3" y1="76.9" x2="76.7" y2="90.8" stroke="#9AD741" stroke-width="0.5" opacity="0.25"/>
  <line x1="82.3" y1="76.9" x2="69.5" y2="87.8" stroke="#9AD741" stroke-width="0.5" opacity="0.16"/>
  <line x1="82.3" y1="76.9" x2="80.6" y2="81.3" stroke="#9AD741" stroke-width="0.5" opacity="0.76"/>
  <line x1="44.5" y1="21.4" x2="29.9" y2="25.2" stroke="#9AD741" stroke-width="0.5" opacity="0.25"/>
  <line x1="44.5" y1="21.4" x2="34.8" y2="21.6" stroke="#9AD741" stroke-width="0.5" opacity="0.51"/>
  <line x1="44.5" y1="21.4" x2="53.0" y2="28.0" stroke="#9AD741" stroke-width="0.5" opacity="0.46"/>
  <line x1="44.5" y1="21.4" x2="36.2" y2="14.1" stroke="#9AD741" stroke-width="0.5" opacity="0.45"/>
  <line x1="44.5" y1="21.4" x2="57.1" y2="12.2" stroke="#9AD741" stroke-width="0.5" opacity="0.22"/>
  <line x1="15.4" y1="89.9" x2="15.6" y2="89.5" stroke="#9AD741" stroke-width="0.5" opacity="0.98"/>
  <line x1="72.2" y1="12.8" x2="57.1" y2="12.2" stroke="#9AD741" stroke-width="0.5" opacity="0.24"/>
  <line x1="29.9" y1="25.2" x2="34.8" y2="21.6" stroke="#9AD741" stroke-width="0.5" opacity="0.70"/>
  <line x1="29.9" y1="25.2" x2="36.2" y2="14.1" stroke="#9AD741" stroke-width="0.5" opacity="0.36"/>
  <line x1="34.8" y1="21.6" x2="53.0" y2="28.0" stroke="#9AD741" stroke-width="0.5" opacity="0.03"/>
  <line x1="34.8" y1="21.6" x2="36.2" y2="14.1" stroke="#9AD741" stroke-width="0.5" opacity="0.62"/>
  <line x1="10.7" y1="52.7" x2="27.3" y2="50.4" stroke="#9AD741" stroke-width="0.5" opacity="0.16"/>
  <line x1="10.7" y1="52.7" x2="9.2" y2="67.1" stroke="#9AD741" stroke-width="0.5" opacity="0.27"/>
  <line x1="76.7" y1="90.8" x2="69.5" y2="87.8" stroke="#9AD741" stroke-width="0.5" opacity="0.61"/>
  <line x1="76.7" y1="90.8" x2="80.6" y2="81.3" stroke="#9AD741" stroke-width="0.5" opacity="0.49"/>
  <line x1="76.7" y1="90.8" x2="65.4" y2="93.8" stroke="#9AD741" stroke-width="0.5" opacity="0.42"/>
  <line x1="69.5" y1="87.8" x2="80.6" y2="81.3" stroke="#9AD741" stroke-width="0.5" opacity="0.36"/>
  <line x1="69.5" y1="87.8" x2="65.4" y2="93.8" stroke="#9AD741" stroke-width="0.5" opacity="0.64"/>
  <line x1="53.0" y1="28.0" x2="57.1" y2="12.2" stroke="#9AD741" stroke-width="0.5" opacity="0.18"/>
  <line x1="50.0" y1="52.4" x2="57.2" y2="68.0" stroke="#9AD741" stroke-width="0.5" opacity="0.14"/>
  <line x1="50.0" y1="52.4" x2="67.9" y2="52.3" stroke="#9AD741" stroke-width="0.5" opacity="0.10"/>
  <line x1="80.6" y1="81.3" x2="65.4" y2="93.8" stroke="#9AD741" stroke-width="0.5" opacity="0.02"/>
  <line x1="57.2" y1="68.0" x2="67.9" y2="52.3" stroke="#9AD741" stroke-width="0.5" opacity="0.05"/>
  <circle cx="88.7" cy="24.4" r="2" fill="#9AD741"/>
  <circle cx="31.4" cy="86.9" r="2" fill="#9AD741"/>
  <circle cx="69.6" cy="71.9" r="2" fill="#9AD741"/>
  <circle cx="58.4" cy="61.1" r="2" fill="#9AD741"/>
  <circle cx="85.9" cy="75.5" r="2" fill="#9AD741"/>
  <circle cx="17.3" cy="83.6" r="2" fill="#9AD741"/>
  <circle cx="32.3" cy="76.5" r="2" fill="#9AD741"/>
  <circle cx="36.6" cy="17.1" r="2" fill="#9AD741"/>
  <circle cx="12.4" cy="21.2" r="2" fill="#9AD741"/>
  <circle cx="26.4" cy="76.4" r="2" fill="#9AD741"/>
  <circle cx="46.1" cy="47.8" r="2" fill="#9AD741"/>
  <circle cx="94.2" cy="41.2" r="2" fill="#9AD741"/>
  <circle cx="24.3" cy="84.9" r="2" fill="#9AD741"/>
  <circle cx="84.4" cy="82.6" r="2" fill="#9AD741"/>
  <circle cx="85.8" cy="13.8" r="2" fill="#9AD741"/>
  <circle cx="13.5" cy="71.9" r="2" fill="#9AD741"/>
  <circle cx="33.5" cy="9.9" r="2" fill="#9AD741"/>
  <circle cx="27.7" cy="80.5" r="2" fill="#9AD741"/>
  <circle cx="43.2" cy="53.5" r="2" fill="#9AD741"/>
  <circle cx="28.0" cy="71.1" r="2" fill="#9AD741"/>
  <circle cx="85.2" cy="54.8" r="2" fill="#9AD741"/>
  <circle cx="12.4" cy="75.0" r="2" fill="#9AD741"/>
  <circle cx="88.0" cy="8.8" r="2" fill="#9AD741"/>
  <circle cx="50.1" cy="49.6" r="2" fill="#9AD741"/>
  <circle cx="26.7" cy="49.8" r="2" fill="#9AD741"/>
  <circle cx="54.6" cy="64.5" r="2" fill="#9AD741"/>
  <circle cx="63.8" cy="41.3" r="2" fill="#9AD741"/>
  <circle cx="89.9" cy="5.8" r="2" fill="#9AD741"/>
  <circle cx="82.3" cy="76.9" r="2" fill="#9AD741"/>
  <circle cx="44.5" cy="21.4" r="2" fill="#9AD741"/>
  <circle cx="15.4" cy="89.9" r="2" fill="#9AD741"/>
  <circle cx="72.2" cy="12.8" r="2" fill="#9AD741"/>
  <circle cx="29.9" cy="25.2" r="2" fill="#9AD741"/>
  <circle cx="34.8" cy="21.6" r="2" fill="#9AD741"/>
  <circle cx="10.7" cy="52.7" r="2" fill="#9AD741"/>
  <circle cx="76.7" cy="90.8" r="2" fill="#9AD741"/>
  <circle cx="69.5" cy="87.8" r="2" fill="#9AD741"/>
  <circle cx="92.9" cy="18.5" r="2" fill="#9AD741"/>
  <circle cx="53.0" cy="28.0" r="2" fill="#9AD741"/>
  <circle cx="15.6" cy="89.5" r="2" fill="#9AD741"/>
  <circle cx="27.3" cy="50.4" r="2" fill="#9AD741"/>
  <circle cx="50.0" cy="52.4" r="2" fill="#9AD741"/>
  <circle cx="9.2" cy="67.1" r="2" fill="#9AD741"/>
  <circle cx="91.5" cy="57.7" r="2" fill="#9AD741"/>
  <circle cx="80.6" cy="81.3" r="2" fill="#9AD741"/>
  <circle cx="65.4" cy="93.8" r="2" fill="#9AD741"/>
  <circle cx="57.2" cy="68.0" r="2" fill="#9AD741"/>
  <circle cx="67.9" cy="52.3" r="2" fill="#9AD741"/>
  <circle cx="36.2" cy="14.1" r="2" fill="#9AD741"/>
  <circle cx="57.1" cy="12.2" r="2" fill="#9AD741"/>
</svg>