<svg xmlns="http://www.w3.org/2000/svg" viewBox="0 0 82.0 58.0" width="82" height="58">
  <title>Grid Pattern</title>
    <rect x="1.4" y="1.4" width="7.1" height="7.1" fill="#9AD741" opacity="0.52"/>
  <rect x="12.9" y="0.9" width="8.2" height="8.2" fill="#9AD741" opacity="0.37"/>
  <rect x="24.8" y="0.8" width="8.3" height="8.3" fill="#9AD741" opacity="0.34"/>
  <rect x="37.4" y="1.4" width="7.2" height="7.2" fill="#9AD741" opacity="0.89"/>
  <rect x="48.7" y="0.7" width="8.6" height="8.6" fill="#9AD741" opacity="0.53"/>
  <rect x="61.9" y="1.9" width="6.2" height="6.2" fill="#9AD741" opacity="0.51"/>
  <rect x="72.9" y="0.9" width="8.1" height="8.1" fill="#9AD741" opacity="0.83"/>
  <rect x="1.7" y="13.7" width="6.7" height="6.7" fill="#9AD741" opacity="0.49"/>
  <rect x="13.5" y="13.5" width="7.0" height="7.0" fill="#9AD741" opacity="0.71"/>
  <rect x="25.2" y="13.2" width="7.6" height="7.6" fill="#9AD741" opacity="0.61"/>
  <rect x="36.1" y="12.1" width="9.9" height="9.9" fill="#9AD741" opacity="0.73"/>
  <rect x="50.1" y="14.1" width="5.9" height="5.9" fill="#9AD741" opacity="0.43"/>
  <rect x="60.6" y="12.6" width="8.7" height="8.7" fill="#9AD741" opacity="0.95"/>
  <rect x="74.0" y="14.0" width="6.1" height="6.1" fill="#9AD741" opacity="0.51"/>
  <rect x="0.2" y="24.2" width="9.5" height="9.5" fill="#9AD741" opacity="0.80"/>
  <rect x="12.6" y="24.6" width="8.7" height="8.7" fill="#9AD741" opacity="0.72"/>
  <rect x="24.9" y="24.9" width="8.1" height="8.1" fill="#9AD741" opacity="0.93"/>
  <rect x="36.5" y="24.5" width="8.9" height="8.9" fill="#9AD741" opacity="0.40"/>
  <rect x="48.3" y="24.3" width="9.4" height="9.4" fill="#9AD741" opacity="0.51"/>
  <rect x="60.5" y="24.5" width="9.0" height="9.0" fill="#9AD741" opacity="0.55"/>
  <rect x="74.2" y="26.2" width="5.7" height="5.7" fill="#9AD741" opacity="0.36"/>
  <rect x="2.1" y="38.1" width="5.9" height="5.9" fill="#9AD741" opacity="0.47"/>
  <rect x="12.5" y="36.5" width="9.0" height="9.0" fill="#9AD741" opacity="0.62"/>
  <rect x="25.3" y="37.3" width="7.4" height="7.4" fill="#9AD741" opacity="0.99"/>
  <rect x="37.5" y="37.5" width="7.0" height="7.0" fill="#9AD741" opacity="0.45"/>
  <rect x="48.3" y="36.3" width="9.4" height="9.4" fill="#9AD741" opacity="0.92"/>
  <rect x="60.3" y="36.3" width="9.3" height="9.3" fill="#9AD741" opacity="0.93"/>
  <rect x="74.3" y="38.3" width="5.5" height="5.5" fill="#9AD741" opacity="0.37"/>
  <rect x="0.6" y="48.6" width="8.7" height="8.7" fill="#9AD741" opacity="0.52"/>
  <rect x="14.4" y="50.4" width="5.3" height="5.3" fill="#9AD741" opacity="0.48"/>
  <rect x="24.4" y="48.4" width="9.2" height="9.2" fill="#9AD741" opacity="0.60"/>
  <rect x="37.2" y="49.2" width="7.7" height="7.7" fill="#9AD741" opacity="0.48"/>
  <rect x="48.7" y="48.7" width="8.7" height="8.7" fill="#9AD741" opacity="0.92"/>
  <rect x="61.1" y="49.1" width="7.8" height="7.8" fill="#9AD741" opacity="0.36"/>
  <rect x="72.6" y="48.6" width="8.9" height="8.9" fill="#9AD741" opacity="0.95"/>
</svg>