<svg xmlns="http://www.w3.org/2000/svg" viewBox="0 0 100 100" width="100" height="100">
  <title>Fractal Tree</title>
  <desc>A fractal tree with depth 8</desc>
    <line x1="50.0" y1="90.0" x2="50.0" y2="66.0" stroke="#9AD741" stroke-width="6.4" stroke-linecap="round"/>
  <line x1="50.0" y1="66.0" x2="42.4" y2="51.0" stroke="#9AD741" stroke-width="5.6" stroke-linecap="round"/>
  <line x1="42.4" y1="51.0" x2="32.1" y2="45.3" stroke="#9AD741" stroke-width="4.8" stroke-linecap="round"/>
  <line x1="32.1" y1="45.3" x2="23.9" y2="45.9" stroke="#9AD741" stroke-width="4.0" stroke-linecap="round"/>
  <line x1="23.9" y1="45.9" x2="19.0" y2="49.0" stroke="#9AD741" stroke-width="3.2" stroke-linecap="round"/>
  <line x1="19.0" y1="49.0" x2="16.9" y2="52.4" stroke="#9AD741" stroke-width="2.4" stroke-linecap="round"/>
  <line x1="16.9" y1="52.4" x2="16.7" y2="55.2" stroke="#9AD741" stroke-width="1.6" stroke-linecap="round"/>
  <line x1="16.7" y1="55.2" x2="17.4" y2="57.1" stroke="#9AD741" stroke-width="0.8" stroke-linecap="round"/>
  <line x1="16.7" y1="55.2" x2="15.5" y2="56.9" stroke="#9AD741" stroke-width="0.8" stroke-linecap="round"/>
  <line x1="16.9" y1="52.4" x2="14.4" y2="53.6" stroke="#9AD741" stroke-width="1.6" stroke-linecap="round"/>
  <line x1="14.4" y1="53.6" x2="13.2" y2="55.2" stroke="#9AD741" stroke-width="0.8" stroke-linecap="round"/>
  <line x1="14.4" y1="53.6" x2="12.4" y2="53.6" stroke="#9AD741" stroke-width="0.8" stroke-linecap="round"/>
  <line x1="19.0" y1="49.0" x2="15.0" y2="49.4" stroke="#9AD741" stroke-width="2.4" stroke-linecap="round"/>
  <line x1="15.0" y1="49.4" x2="12.9" y2="51.2" stroke="#9AD741" stroke-width="1.6" stroke-linecap="round"/>
  <line x1="12.9" y1="51.2" x2="12.1" y2="53.1" stroke="#9AD741" stroke-width="0.8" stroke-linecap="round"/>
  <line x1="12.9" y1="51.2" x2="10.9" y2="51.7" stroke="#9AD741" stroke-width="0.8" stroke-linecap="round"/>
  <line x1="15.0" y1="49.4" x2="12.4" y2="48.3" stroke="#9AD741" stroke-width="1.6" stroke-linecap="round"/>
  <line x1="12.4" y1="48.3" x2="10.4" y2="48.4" stroke="#9AD741" stroke-width="0.8" stroke-linecap="round"/>
  <line x1="12.4" y1="48.3" x2="11.3" y2="46.7" stroke="#9AD741" stroke-width="0.8" stroke-linecap="round"/>
  <line x1="23.9" y1="45.9" x2="18.5" y2="44.0" stroke="#9AD741" stroke-width="3.2" stroke-linecap="round"/>
  <line x1="18.5" y1="44.0" x2="14.5" y2="44.5" stroke="#9AD741" stroke-width="2.4" stroke-linecap="round"/>
  <line x1="14.5" y1="44.5" x2="12.3" y2="46.4" stroke="#9AD741" stroke-width="1.6" stroke-linecap="round"/>
  <line x1="12.3" y1="46.4" x2="11.7" y2="48.2" stroke="#9AD741" stroke-width="0.8" stroke-linecap="round"/>
  <line x1="12.3" y1="46.4" x2="10.4" y2="46.9" stroke="#9AD741" stroke-width="0.8" stroke-linecap="round"/>
  <line x1="14.5" y1="44.5" x2="11.8" y2="43.5" stroke="#9AD741" stroke-width="1.6" stroke-linecap="round"/>
  <line x1="11.8" y1="43.5" x2="9.9" y2="43.6" stroke="#9AD741" stroke-width="0.8" stroke-linecap="round"/>
  <line x1="11.8" y1="43.5" x2="10.6" y2="41.9" stroke="#9AD741" stroke-width="0.8" stroke-linecap="round"/>
  <line x1="18.5" y1="44.0" x2="16.0" y2="40.8" stroke="#9AD741" stroke-width="2.4" stroke-linecap="round"/>
  <line x1="16.0" y1="40.8" x2="13.4" y2="39.7" stroke="#9AD741" stroke-width="1.6" stroke-linecap="round"/>
  <line x1="13.4" y1="39.7" x2="11.4" y2="39.7" stroke="#9AD741" stroke-width="0.8" stroke-linecap="round"/>
  <line x1="13.4" y1="39.7" x2="12.3" y2="38.1" stroke="#9AD741" stroke-width="0.8" stroke-linecap="round"/>
  <line x1="16.0" y1="40.8" x2="15.4" y2="38.0" stroke="#9AD741" stroke-width="1.6" stroke-linecap="round"/>
  <line x1="15.4" y1="38.0" x2="14.1" y2="36.6" stroke="#9AD741" stroke-width="0.8" stroke-linecap="round"/>
  <line x1="15.4" y1="38.0" x2="15.9" y2="36.1" stroke="#9AD741" stroke-width="0.8" stroke-linecap="round"/>
  <line x1="32.1" y1="45.3" x2="27.9" y2="38.2" stroke="#9AD741" stroke-width="4.0" stroke-linecap="round"/>
  <line x1="27.9" y1="38.2" x2="23.3" y2="34.8" stroke="#9AD741" stroke-width="3.2" stroke-linecap="round"/>
  <line x1="23.3" y1="34.8" x2="19.3" y2="34.2" stroke="#9AD741" stroke-width="2.4" stroke-linecap="round"/>
  <line x1="19.3" y1="34.2" x2="16.7" y2="35.3" stroke="#9AD741" stroke-width="1.6" stroke-linecap="round"/>
  <line x1="16.7" y1="35.3" x2="15.5" y2="36.9" stroke="#9AD741" stroke-width="0.8" stroke-linecap="round"/>
  <line x1="16.7" y1="35.3" x2="14.7" y2="35.3" stroke="#9AD741" stroke-width="0.8" stroke-linecap="round"/>
  <line x1="19.3" y1="34.2" x2="17.1" y2="32.4" stroke="#9AD741" stroke-width="1.6" stroke-linecap="round"/>
  <line x1="17.1" y1="32.4" x2="15.2" y2="31.9" stroke="#9AD741" stroke-width="0.8" stroke-linecap="round"/>
  <line x1="17.1" y1="32.4" x2="16.4" y2="30.5" stroke="#9AD741" stroke-width="0.8" stroke-linecap="round"/>
  <line x1="23.3" y1="34.8" x2="21.9" y2="31.1" stroke="#9AD741" stroke-width="2.4" stroke-linecap="round"/>
  <line x1="21.9" y1="31.1" x2="19.7" y2="29.2" stroke="#9AD741" stroke-width="1.6" stroke-linecap="round"/>
  <line x1="19.7" y1="29.2" x2="17.8" y2="28.7" stroke="#9AD741" stroke-width="0.8" stroke-linecap="round"/>
  <line x1="19.7" y1="29.2" x2="19.1" y2="27.4" stroke="#9AD741" stroke-width="0.8" stroke-linecap="round"/>
  <line x1="21.9" y1="31.1" x2="22.1" y2="28.3" stroke="#9AD741" stroke-width="1.6" stroke-linecap="round"/>
  <line x1="22.1" y1="28.3" x2="21.3" y2="26.5" stroke="#9AD741" stroke-width="0.8" stroke-linecap="round"/>
  <line x1="22.1" y1="28.3" x2="23.1" y2="26.5" stroke="#9AD741" stroke-width="0.8" stroke-linecap="round"/>
  <line x1="27.9" y1="38.2" x2="28.1" y2="32.5" stroke="#9AD741" stroke-width="3.2" stroke-linecap="round"/>
  <line x1="28.1" y1="32.5" x2="26.0" y2="29.0" stroke="#9AD741" stroke-width="2.4" stroke-linecap="round"/>
  <line x1="26.0" y1="29.0" x2="23.5" y2="27.7" stroke="#9AD741" stroke-width="1.6" stroke-linecap="round"/>
  <line x1="23.5" y1="27.7" x2="21.6" y2="27.5" stroke="#9AD741" stroke-width="0.8" stroke-linecap="round"/>
  <line x1="23.5" y1="27.7" x2="22.6" y2="25.9" stroke="#9AD741" stroke-width="0.8" stroke-linecap="round"/>
  <line x1="26.0" y1="29.0" x2="25.7" y2="26.2" stroke="#9AD741" stroke-width="1.6" stroke-linecap="round"/>
  <line x1="25.7" y1="26.2" x2="24.6" y2="24.6" stroke="#9AD741" stroke-width="0.8" stroke-linecap="round"/>
  <line x1="25.7" y1="26.2" x2="26.3" y2="24.4" stroke="#9AD741" stroke-width="0.8" stroke-linecap="round"/>
  <line x1="28.1" y1="32.5" x2="30.0" y2="28.9" stroke="#9AD741" stroke-width="2.4" stroke-linecap="round"/>
  <line x1="30.0" y1="28.9" x2="30.1" y2="26.1" stroke="#9AD741" stroke-width="1.6" stroke-linecap="round"/>
  <line x1="30.1" y1="26.1" x2="29.1" y2="24.4" stroke="#9AD741" stroke-width="0.8" stroke-linecap="round"/>
  <line x1="30.1" y1="26.1" x2="30.9" y2="24.3" stroke="#9AD741" stroke-width="0.8" stroke-linecap="round"/>
  <line x1="30.0" y1="28.9" x2="32.2" y2="27.2" stroke="#9AD741" stroke-width="1.6" stroke-linecap="round"/>
  <line x1="32.2" y1="27.2" x2="33.1" y2="25.4" stroke="#9AD741" stroke-width="0.8" stroke-linecap="round"/>
  <line x1="32.2" y1="27.2" x2="34.1" y2="26.7" stroke="#9AD741" stroke-width="0.8" stroke-linecap="round"/>
  <line x1="42.4" y1="51.0" x2="42.6" y2="39.3" stroke="#9AD741" stroke-width="4.8" stroke-linecap="round"/>
  <line x1="42.6" y1="39.3" x2="38.5" y2="32.1" stroke="#9AD741" stroke-width="4.0" stroke-linecap="round"/>
  <line x1="38.5" y1="32.1" x2="33.9" y2="28.6" stroke="#9AD741" stroke-width="3.2" stroke-linecap="round"/>
  <line x1="33.9" y1="28.6" x2="30.0" y2="27.9" stroke="#9AD741" stroke-width="2.4" stroke-linecap="round"/>
  <line x1="30.0" y1="27.9" x2="27.4" y2="29.0" stroke="#9AD741" stroke-width="1.6" stroke-linecap="round"/>
  <line x1="27.4" y1="29.0" x2="26.2" y2="30.5" stroke="#9AD741" stroke-width="0.8" stroke-linecap="round"/>
  <line x1="27.4" y1="29.0" x2="25.4" y2="28.9" stroke="#9AD741" stroke-width="0.8" stroke-linecap="round"/>
  <line x1="30.0" y1="27.9" x2="27.8" y2="26.1" stroke="#9AD741" stroke-width="1.6" stroke-linecap="round"/>
  <line x1="27.8" y1="26.1" x2="25.9" y2="25.6" stroke="#9AD741" stroke-width="0.8" stroke-linecap="round"/>
  <line x1="27.8" y1="26.1" x2="27.2" y2="24.2" stroke="#9AD741" stroke-width="0.8" stroke-linecap="round"/>
  <line x1="33.9" y1="28.6" x2="32.6" y2="24.8" stroke="#9AD741" stroke-width="2.4" stroke-linecap="round"/>
  <line x1="32.6" y1="24.8" x2="30.5" y2="22.9" stroke="#9AD741" stroke-width="1.6" stroke-linecap="round"/>
  <line x1="30.5" y1="22.9" x2="28.6" y2="22.4" stroke="#9AD741" stroke-width="0.8" stroke-linecap="round"/>
  <line x1="30.5" y1="22.9" x2="29.9" y2="21.1" stroke="#9AD741" stroke-width="0.8" stroke-linecap="round"/>
  <line x1="32.6" y1="24.8" x2="32.9" y2="22.0" stroke="#9AD741" stroke-width="1.6" stroke-linecap="round"/>
  <line x1="32.9" y1="22.0" x2="32.1" y2="20.2" stroke="#9AD741" stroke-width="0.8" stroke-linecap="round"/>
  <line x1="32.9" y1="22.0" x2="33.9" y2="20.3" stroke="#9AD741" stroke-width="0.8" stroke-linecap="round"/>
  <line x1="38.5" y1="32.1" x2="38.8" y2="26.3" stroke="#9AD741" stroke-width="3.2" stroke-linecap="round"/>
  <line x1="38.8" y1="26.3" x2="36.8" y2="22.9" stroke="#9AD741" stroke-width="2.4" stroke-linecap="round"/>
  <line x1="36.8" y1="22.9" x2="34.3" y2="21.4" stroke="#9AD741" stroke-width="1.6" stroke-linecap="round"/>
  <line x1="34.3" y1="21.4" x2="32.4" y2="21.2" stroke="#9AD741" stroke-width="0.8" stroke-linecap="round"/>
  <line x1="34.3" y1="21.4" x2="33.4" y2="19.7" stroke="#9AD741" stroke-width="0.8" stroke-linecap="round"/>
  <line x1="36.8" y1="22.9" x2="36.5" y2="20.1" stroke="#9AD741" stroke-width="1.6" stroke-linecap="round"/>
  <line x1="36.5" y1="20.1" x2="35.4" y2="18.4" stroke="#9AD741" stroke-width="0.8" stroke-linecap="round"/>
  <line x1="36.5" y1="20.1" x2="37.2" y2="18.2" stroke="#9AD741" stroke-width="0.8" stroke-linecap="round"/>
  <line x1="38.8" y1="26.3" x2="40.8" y2="22.8" stroke="#9AD741" stroke-width="2.4" stroke-linecap="round"/>
  <line x1="40.8" y1="22.8" x2="40.9" y2="20.0" stroke="#9AD741" stroke-width="1.6" stroke-linecap="round"/>
  <line x1="40.9" y1="20.0" x2="40.0" y2="18.3" stroke="#9AD741" stroke-width="0.8" stroke-linecap="round"/>
  <line x1="40.9" y1="20.0" x2="41.8" y2="18.2" stroke="#9AD741" stroke-width="0.8" stroke-linecap="round"/>
  <line x1="40.8" y1="22.8" x2="43.0" y2="21.1" stroke="#9AD741" stroke-width="1.6" stroke-linecap="round"/>
  <line x1="43.0" y1="21.1" x2="43.9" y2="19.4" stroke="#9AD741" stroke-width="0.8" stroke-linecap="round"/>
  <line x1="43.0" y1="21.1" x2="44.9" y2="20.7" stroke="#9AD741" stroke-width="0.8" stroke-linecap="round"/>
  <line x1="42.6" y1="39.3" x2="46.9" y2="32.3" stroke="#9AD741" stroke-width="4.0" stroke-linecap="round"/>
  <line x1="46.9" y1="32.3" x2="46.9" y2="26.5" stroke="#9AD741" stroke-width="3.2" stroke-linecap="round"/>
  <line x1="46.9" y1="26.5" x2="44.6" y2="23.1" stroke="#9AD741" stroke-width="2.4" stroke-linecap="round"/>
  <line x1="44.6" y1="23.1" x2="42.1" y2="21.9" stroke="#9AD741" stroke-width="1.6" stroke-linecap="round"/>
  <line x1="42.1" y1="21.9" x2="40.1" y2="21.8" stroke="#9AD741" stroke-width="0.8" stroke-linecap="round"/>
  <line x1="42.1" y1="21.9" x2="41.1" y2="20.2" stroke="#9AD741" stroke-width="0.8" stroke-linecap="round"/>
  <line x1="44.6" y1="23.1" x2="44.2" y2="20.3" stroke="#9AD741" stroke-width="1.6" stroke-linecap="round"/>
  <line x1="44.2" y1="20.3" x2="43.0" y2="18.8" stroke="#9AD741" stroke-width="0.8" stroke-linecap="round"/>
  <line x1="44.2" y1="20.3" x2="44.8" y2="18.4" stroke="#9AD741" stroke-width="0.8" stroke-linecap="round"/>
  <line x1="46.9" y1="26.5" x2="48.6" y2="22.9" stroke="#9AD741" stroke-width="2.4" stroke-linecap="round"/>
  <line x1="48.6" y1="22.9" x2="48.6" y2="20.0" stroke="#9AD741" stroke-width="1.6" stroke-linecap="round"/>
  <line x1="48.6" y1="20.0" x2="47.5" y2="18.4" stroke="#9AD741" stroke-width="0.8" stroke-linecap="round"/>
  <line x1="48.6" y1="20.0" x2="49.4" y2="18.2" stroke="#9AD741" stroke-width="0.8" stroke-linecap="round"/>
  <line x1="48.6" y1="22.9" x2="50.7" y2="21.0" stroke="#9AD741" stroke-width="1.6" stroke-linecap="round"/>
  <line x1="50.7" y1="21.0" x2="51.6" y2="19.2" stroke="#9AD741" stroke-width="0.8" stroke-linecap="round"/>
  <line x1="50.7" y1="21.0" x2="52.6" y2="20.5" stroke="#9AD741" stroke-width="0.8" stroke-linecap="round"/>
  <line x1="46.9" y1="32.3" x2="51.6" y2="29.0" stroke="#9AD741" stroke-width="3.2" stroke-linecap="round"/>
  <line x1="51.6" y1="29.0" x2="53.6" y2="25.4" stroke="#9AD741" stroke-width="2.4" stroke-linecap="round"/>
  <line x1="53.6" y1="25.4" x2="53.7" y2="22.6" stroke="#9AD741" stroke-width="1.6" stroke-linecap="round"/>
  <line x1="53.7" y1="22.6" x2="52.8" y2="20.9" stroke="#9AD741" stroke-width="0.8" stroke-linecap="round"/>
  <line x1="53.7" y1="22.6" x2="54.6" y2="20.8" stroke="#9AD741" stroke-width="0.8" stroke-linecap="round"/>
  <line x1="53.6" y1="25.4" x2="55.8" y2="23.7" stroke="#9AD741" stroke-width="1.6" stroke-linecap="round"/>
  <line x1="55.8" y1="23.7" x2="56.8" y2="22.0" stroke="#9AD741" stroke-width="0.8" stroke-linecap="round"/>
  <line x1="55.8" y1="23.7" x2="57.8" y2="23.3" stroke="#9AD741" stroke-width="0.8" stroke-linecap="round"/>
  <line x1="51.6" y1="29.0" x2="55.7" y2="28.7" stroke="#9AD741" stroke-width="2.4" stroke-linecap="round"/>
  <line x1="55.7" y1="28.7" x2="58.2" y2="27.4" stroke="#9AD741" stroke-width="1.6" stroke-linecap="round"/>
  <line x1="58.2" y1="27.4" x2="59.4" y2="25.9" stroke="#9AD741" stroke-width="0.8" stroke-linecap="round"/>
  <line x1="58.2" y1="27.4" x2="60.2" y2="27.3" stroke="#9AD741" stroke-width="0.8" stroke-linecap="round"/>
  <line x1="55.7" y1="28.7" x2="58.2" y2="30.0" stroke="#9AD741" stroke-width="1.6" stroke-linecap="round"/>
  <line x1="58.2" y1="30.0" x2="60.1" y2="30.2" stroke="#9AD741" stroke-width="0.8" stroke-linecap="round"/>
  <line x1="58.2" y1="30.0" x2="59.3" y2="31.7" stroke="#9AD741" stroke-width="0.8" stroke-linecap="round"/>
  <line x1="50.0" y1="66.0" x2="59.3" y2="52.0" stroke="#9AD741" stroke-width="5.6" stroke-linecap="round"/>
  <line x1="59.3" y1="52.0" x2="60.6" y2="40.3" stroke="#9AD741" stroke-width="4.8" stroke-linecap="round"/>
  <line x1="60.6" y1="40.3" x2="57.1" y2="32.8" stroke="#9AD741" stroke-width="4.0" stroke-linecap="round"/>
  <line x1="57.1" y1="32.8" x2="52.9" y2="29.0" stroke="#9AD741" stroke-width="3.2" stroke-linecap="round"/>
  <line x1="52.9" y1="29.0" x2="49.0" y2="27.9" stroke="#9AD741" stroke-width="2.4" stroke-linecap="round"/>
  <line x1="49.0" y1="27.9" x2="46.3" y2="28.7" stroke="#9AD741" stroke-width="1.6" stroke-linecap="round"/>
  <line x1="46.3" y1="28.7" x2="45.0" y2="30.2" stroke="#9AD741" stroke-width="0.8" stroke-linecap="round"/>
  <line x1="46.3" y1="28.7" x2="44.4" y2="28.5" stroke="#9AD741" stroke-width="0.8" stroke-linecap="round"/>
  <line x1="49.0" y1="27.9" x2="47.0" y2="25.9" stroke="#9AD741" stroke-width="1.6" stroke-linecap="round"/>
  <line x1="47.0" y1="25.9" x2="45.1" y2="25.2" stroke="#9AD741" stroke-width="0.8" stroke-linecap="round"/>
  <line x1="47.0" y1="25.9" x2="46.5" y2="24.0" stroke="#9AD741" stroke-width="0.8" stroke-linecap="round"/>
  <line x1="52.9" y1="29.0" x2="51.9" y2="25.1" stroke="#9AD741" stroke-width="2.4" stroke-linecap="round"/>
  <line x1="51.9" y1="25.1" x2="49.9" y2="23.0" stroke="#9AD741" stroke-width="1.6" stroke-linecap="round"/>
  <line x1="49.9" y1="23.0" x2="48.1" y2="22.3" stroke="#9AD741" stroke-width="0.8" stroke-linecap="round"/>
  <line x1="49.9" y1="23.0" x2="49.5" y2="21.1" stroke="#9AD741" stroke-width="0.8" stroke-linecap="round"/>
  <line x1="51.9" y1="25.1" x2="52.4" y2="22.3" stroke="#9AD741" stroke-width="1.6" stroke-linecap="round"/>
  <line x1="52.4" y1="22.3" x2="51.8" y2="20.4" stroke="#9AD741" stroke-width="0.8" stroke-linecap="round"/>
  <line x1="52.4" y1="22.3" x2="53.6" y2="20.7" stroke="#9AD741" stroke-width="0.8" stroke-linecap="round"/>
  <line x1="57.1" y1="32.8" x2="57.9" y2="27.1" stroke="#9AD741" stroke-width="3.2" stroke-linecap="round"/>
  <line x1="57.9" y1="27.1" x2="56.2" y2="23.5" stroke="#9AD741" stroke-width="2.4" stroke-linecap="round"/>
  <line x1="56.2" y1="23.5" x2="53.9" y2="21.9" stroke="#9AD741" stroke-width="1.6" stroke-linecap="round"/>
  <line x1="53.9" y1="21.9" x2="52.0" y2="21.5" stroke="#9AD741" stroke-width="0.8" stroke-linecap="round"/>
  <line x1="53.9" y1="21.9" x2="53.1" y2="20.0" stroke="#9AD741" stroke-width="0.8" stroke-linecap="round"/>
  <line x1="56.2" y1="23.5" x2="56.2" y2="20.7" stroke="#9AD741" stroke-width="1.6" stroke-linecap="round"/>
  <line x1="56.2" y1="20.7" x2="55.2" y2="19.0" stroke="#9AD741" stroke-width="0.8" stroke-linecap="round"/>
  <line x1="56.2" y1="20.7" x2="57.1" y2="18.9" stroke="#9AD741" stroke-width="0.8" stroke-linecap="round"/>
  <line x1="57.9" y1="27.1" x2="60.2" y2="23.8" stroke="#9AD741" stroke-width="2.4" stroke-linecap="round"/>
  <line x1="60.2" y1="23.8" x2="60.6" y2="21.0" stroke="#9AD741" stroke-width="1.6" stroke-linecap="round"/>
  <line x1="60.6" y1="21.0" x2="59.8" y2="19.2" stroke="#9AD741" stroke-width="0.8" stroke-linecap="round"/>
  <line x1="60.6" y1="21.0" x2="61.6" y2="19.3" stroke="#9AD741" stroke-width="0.8" stroke-linecap="round"/>
  <line x1="60.2" y1="23.8" x2="62.6" y2="22.3" stroke="#9AD741" stroke-width="1.6" stroke-linecap="round"/>
  <line x1="62.6" y1="22.3" x2="63.7" y2="20.6" stroke="#9AD741" stroke-width="0.8" stroke-linecap="round"/>
  <line x1="62.6" y1="22.3" x2="64.5" y2="22.0" stroke="#9AD741" stroke-width="0.8" stroke-linecap="round"/>
  <line x1="60.6" y1="40.3" x2="65.5" y2="33.7" stroke="#9AD741" stroke-width="4.0" stroke-linecap="round"/>
  <line x1="65.5" y1="33.7" x2="65.9" y2="28.0" stroke="#9AD741" stroke-width="3.2" stroke-linecap="round"/>
  <line x1="65.9" y1="28.0" x2="64.0" y2="24.5" stroke="#9AD741" stroke-width="2.4" stroke-linecap="round"/>
  <line x1="64.0" y1="24.5" x2="61.6" y2="23.0" stroke="#9AD741" stroke-width="1.6" stroke-linecap="round"/>
  <line x1="61.6" y1="23.0" x2="59.7" y2="22.7" stroke="#9AD741" stroke-width="0.8" stroke-linecap="round"/>
  <line x1="61.6" y1="23.0" x2="60.7" y2="21.2" stroke="#9AD741" stroke-width="0.8" stroke-linecap="round"/>
  <line x1="64.0" y1="24.5" x2="63.9" y2="21.6" stroke="#9AD741" stroke-width="1.6" stroke-linecap="round"/>
  <line x1="63.9" y1="21.6" x2="62.8" y2="20.0" stroke="#9AD741" stroke-width="0.8" stroke-linecap="round"/>
  <line x1="63.9" y1="21.6" x2="64.6" y2="19.8" stroke="#9AD741" stroke-width="0.8" stroke-linecap="round"/>
  <line x1="65.9" y1="28.0" x2="68.0" y2="24.5" stroke="#9AD741" stroke-width="2.4" stroke-linecap="round"/>
  <line x1="68.0" y1="24.5" x2="68.2" y2="21.7" stroke="#9AD741" stroke-width="1.6" stroke-linecap="round"/>
  <line x1="68.2" y1="21.7" x2="67.3" y2="20.0" stroke="#9AD741" stroke-width="0.8" stroke-linecap="round"/>
  <line x1="68.2" y1="21.7" x2="69.2" y2="20.0" stroke="#9AD741" stroke-width="0.8" stroke-linecap="round"/>
  <line x1="68.0" y1="24.5" x2="70.3" y2="22.9" stroke="#9AD741" stroke-width="1.6" stroke-linecap="round"/>
  <line x1="70.3" y1="22.9" x2="71.3" y2="21.2" stroke="#9AD741" stroke-width="0.8" stroke-linecap="round"/>
  <line x1="70.3" y1="22.9" x2="72.2" y2="22.5" stroke="#9AD741" stroke-width="0.8" stroke-linecap="round"/>
  <line x1="65.5" y1="33.7" x2="70.5" y2="30.9" stroke="#9AD741" stroke-width="3.2" stroke-linecap="round"/>
  <line x1="70.5" y1="30.9" x2="72.8" y2="27.5" stroke="#9AD741" stroke-width="2.4" stroke-linecap="round"/>
  <line x1="72.8" y1="27.5" x2="73.1" y2="24.7" stroke="#9AD741" stroke-width="1.6" stroke-linecap="round"/>
  <line x1="73.1" y1="24.7" x2="72.3" y2="22.9" stroke="#9AD741" stroke-width="0.8" stroke-linecap="round"/>
  <line x1="73.1" y1="24.7" x2="74.2" y2="23.1" stroke="#9AD741" stroke-width="0.8" stroke-linecap="round"/>
  <line x1="72.8" y1="27.5" x2="75.1" y2="26.0" stroke="#9AD741" stroke-width="1.6" stroke-linecap="round"/>
  <line x1="75.1" y1="26.0" x2="76.2" y2="24.4" stroke="#9AD741" stroke-width="0.8" stroke-linecap="round"/>
  <line x1="75.1" y1="26.0" x2="77.1" y2="25.7" stroke="#9AD741" stroke-width="0.8" stroke-linecap="round"/>
  <line x1="70.5" y1="30.9" x2="74.5" y2="31.0" stroke="#9AD741" stroke-width="2.4" stroke-linecap="round"/>
  <line x1="74.5" y1="31.0" x2="77.2" y2="29.9" stroke="#9AD741" stroke-width="1.6" stroke-linecap="round"/>
  <line x1="77.2" y1="29.9" x2="78.5" y2="28.5" stroke="#9AD741" stroke-width="0.8" stroke-linecap="round"/>
  <line x1="77.2" y1="29.9" x2="79.1" y2="30.0" stroke="#9AD741" stroke-width="0.8" stroke-linecap="round"/>
  <line x1="74.5" y1="31.0" x2="76.9" y2="32.5" stroke="#9AD741" stroke-width="1.6" stroke-linecap="round"/>
  <line x1="76.9" y1="32.5" x2="78.8" y2="32.8" stroke="#9AD741" stroke-width="0.8" stroke-linecap="round"/>
  <line x1="76.9" y1="32.5" x2="77.8" y2="34.3" stroke="#9AD741" stroke-width="0.8" stroke-linecap="round"/>
  <line x1="59.3" y1="52.0" x2="69.5" y2="46.1" stroke="#9AD741" stroke-width="4.8" stroke-linecap="round"/>
  <line x1="69.5" y1="46.1" x2="73.5" y2="38.9" stroke="#9AD741" stroke-width="4.0" stroke-linecap="round"/>
  <line x1="73.5" y1="38.9" x2="73.2" y2="33.2" stroke="#9AD741" stroke-width="3.2" stroke-linecap="round"/>
  <line x1="73.2" y1="33.2" x2="70.8" y2="30.0" stroke="#9AD741" stroke-width="2.4" stroke-linecap="round"/>
  <line x1="70.8" y1="30.0" x2="68.2" y2="28.8" stroke="#9AD741" stroke-width="1.6" stroke-linecap="round"/>
  <line x1="68.2" y1="28.8" x2="66.2" y2="28.8" stroke="#9AD741" stroke-width="0.8" stroke-linecap="round"/>
  <line x1="68.2" y1="28.8" x2="67.1" y2="27.1" stroke="#9AD741" stroke-width="0.8" stroke-linecap="round"/>
  <line x1="70.8" y1="30.0" x2="70.3" y2="27.2" stroke="#9AD741" stroke-width="1.6" stroke-linecap="round"/>
  <line x1="70.3" y1="27.2" x2="69.0" y2="25.7" stroke="#9AD741" stroke-width="0.8" stroke-linecap="round"/>
  <line x1="70.3" y1="27.2" x2="70.7" y2="25.2" stroke="#9AD741" stroke-width="0.8" stroke-linecap="round"/>
  <line x1="73.2" y1="33.2" x2="74.8" y2="29.5" stroke="#9AD741" stroke-width="2.4" stroke-linecap="round"/>
  <line x1="74.8" y1="29.5" x2="74.6" y2="26.7" stroke="#9AD741" stroke-width="1.6" stroke-linecap="round"/>
  <line x1="74.6" y1="26.7" x2="73.5" y2="25.0" stroke="#9AD741" stroke-width="0.8" stroke-linecap="round"/>
  <line x1="74.6" y1="26.7" x2="75.3" y2="24.8" stroke="#9AD741" stroke-width="0.8" stroke-linecap="round"/>
  <line x1="74.8" y1="29.5" x2="76.8" y2="27.5" stroke="#9AD741" stroke-width="1.6" stroke-linecap="round"/>
  <line x1="76.8" y1="27.5" x2="77.6" y2="25.7" stroke="#9AD741" stroke-width="0.8" stroke-linecap="round"/>
  <line x1="76.8" y1="27.5" x2="78.7" y2="26.9" stroke="#9AD741" stroke-width="0.8" stroke-linecap="round"/>
  <line x1="73.5" y1="38.9" x2="78.1" y2="35.4" stroke="#9AD741" stroke-width="3.2" stroke-linecap="round"/>
  <line x1="78.1" y1="35.4" x2="79.9" y2="31.8" stroke="#9AD741" stroke-width="2.4" stroke-linecap="round"/>
  <line x1="79.9" y1="31.8" x2="79.9" y2="29.0" stroke="#9AD741" stroke-width="1.6" stroke-linecap="round"/>
  <line x1="79.9" y1="29.0" x2="78.8" y2="27.3" stroke="#9AD741" stroke-width="0.8" stroke-linecap="round"/>
  <line x1="79.9" y1="29.0" x2="80.7" y2="27.2" stroke="#9AD741" stroke-width="0.8" stroke-linecap="round"/>
  <line x1="79.9" y1="31.8" x2="82.0" y2="30.0" stroke="#9AD741" stroke-width="1.6" stroke-linecap="round"/>
  <line x1="82.0" y1="30.0" x2="82.9" y2="28.2" stroke="#9AD741" stroke-width="0.8" stroke-linecap="round"/>
  <line x1="82.0" y1="30.0" x2="83.9" y2="29.5" stroke="#9AD741" stroke-width="0.8" stroke-linecap="round"/>
  <line x1="78.1" y1="35.4" x2="82.1" y2="35.0" stroke="#9AD741" stroke-width="2.4" stroke-linecap="round"/>
  <line x1="82.1" y1="35.0" x2="84.5" y2="33.6" stroke="#9AD741" stroke-width="1.6" stroke-linecap="round"/>
  <line x1="84.5" y1="33.6" x2="85.7" y2="32.0" stroke="#9AD741" stroke-width="0.8" stroke-linecap="round"/>
  <line x1="84.5" y1="33.6" x2="86.5" y2="33.4" stroke="#9AD741" stroke-width="0.8" stroke-linecap="round"/>
  <line x1="82.1" y1="35.0" x2="84.6" y2="36.2" stroke="#9AD741" stroke-width="1.6" stroke-linecap="round"/>
  <line x1="84.6" y1="36.2" x2="86.6" y2="36.2" stroke="#9AD741" stroke-width="0.8" stroke-linecap="round"/>
  <line x1="84.6" y1="36.2" x2="85.8" y2="37.8" stroke="#9AD741" stroke-width="0.8" stroke-linecap="round"/>
  <line x1="69.5" y1="46.1" x2="77.7" y2="45.9" stroke="#9AD741" stroke-width="4.0" stroke-linecap="round"/>
  <line x1="77.7" y1="45.9" x2="83.0" y2="43.5" stroke="#9AD741" stroke-width="3.2" stroke-linecap="round"/>
  <line x1="83.0" y1="43.5" x2="85.5" y2="40.4" stroke="#9AD741" stroke-width="2.4" stroke-linecap="round"/>
  <line x1="85.5" y1="40.4" x2="86.1" y2="37.6" stroke="#9AD741" stroke-width="1.6" stroke-linecap="round"/>
  <line x1="86.1" y1="37.6" x2="85.5" y2="35.8" stroke="#9AD741" stroke-width="0.8" stroke-linecap="round"/>
  <line x1="86.1" y1="37.6" x2="87.3" y2="36.0" stroke="#9AD741" stroke-width="0.8" stroke-linecap="round"/>
  <line x1="85.5" y1="40.4" x2="88.0" y2="39.1" stroke="#9AD741" stroke-width="1.6" stroke-linecap="round"/>
  <line x1="88.0" y1="39.1" x2="89.2" y2="37.5" stroke="#9AD741" stroke-width="0.8" stroke-linecap="round"/>
  <line x1="88.0" y1="39.1" x2="90.0" y2="39.0" stroke="#9AD741" stroke-width="0.8" stroke-linecap="round"/>
  <line x1="83.0" y1="43.5" x2="87.0" y2="43.9" stroke="#9AD741" stroke-width="2.4" stroke-linecap="round"/>
  <line x1="87.0" y1="43.9" x2="89.7" y2="43.1" stroke="#9AD741" stroke-width="1.6" stroke-linecap="round"/>
  <line x1="89.7" y1="43.1" x2="91.2" y2="41.8" stroke="#9AD741" stroke-width="0.8" stroke-linecap="round"/>
  <line x1="89.7" y1="43.1" x2="91.6" y2="43.4" stroke="#9AD741" stroke-width="0.8" stroke-linecap="round"/>
  <line x1="87.0" y1="43.9" x2="89.2" y2="45.7" stroke="#9AD741" stroke-width="1.6" stroke-linecap="round"/>
  <line x1="89.2" y1="45.7" x2="91.1" y2="46.2" stroke="#9AD741" stroke-width="0.8" stroke-linecap="round"/>
  <line x1="89.2" y1="45.7" x2="90.0" y2="47.5" stroke="#9AD741" stroke-width="0.8" stroke-linecap="round"/>
  <line x1="77.7" y1="45.9" x2="83.1" y2="48.1" stroke="#9AD741" stroke-width="3.2" stroke-linecap="round"/>
  <line x1="83.1" y1="48.1" x2="87.1" y2="47.4" stroke="#9AD741" stroke-width="2.4" stroke-linecap="round"/>
  <line x1="87.1" y1="47.4" x2="89.5" y2="45.9" stroke="#9AD741" stroke-width="1.6" stroke-linecap="round"/>
  <line x1="89.5" y1="45.9" x2="90.6" y2="44.3" stroke="#9AD741" stroke-width="0.8" stroke-linecap="round"/>
  <line x1="89.5" y1="45.9" x2="91.4" y2="45.6" stroke="#9AD741" stroke-width="0.8" stroke-linecap="round"/>
  <line x1="87.1" y1="47.4" x2="89.7" y2="48.5" stroke="#9AD741" stroke-width="1.6" stroke-linecap="round"/>
  <line x1="89.7" y1="48.5" x2="91.7" y2="48.4" stroke="#9AD741" stroke-width="0.8" stroke-linecap="round"/>
  <line x1="89.7" y1="48.5" x2="90.9" y2="50.0" stroke="#9AD741" stroke-width="0.8" stroke-linecap="round"/>
  <line x1="83.1" y1="48.1" x2="86.0" y2="50.9" stroke="#9AD741" stroke-width="2.4" stroke-linecap="round"/>
  <line x1="86.0" y1="50.9" x2="88.7" y2="51.5" stroke="#9AD741" stroke-width="1.6" stroke-linecap="round"/>
  <line x1="88.7" y1="51.5" x2="90.6" y2="51.1" stroke="#9AD741" stroke-width="0.8" stroke-linecap="round"/>
  <line x1="88.7" y1="51.5" x2="90.2" y2="52.8" stroke="#9AD741" stroke-width="0.8" stroke-linecap="round"/>
  <line x1="86.0" y1="50.9" x2="86.9" y2="53.6" stroke="#9AD741" stroke-width="1.6" stroke-linecap="round"/>
  <line x1="86.9" y1="53.6" x2="88.4" y2="54.9" stroke="#9AD741" stroke-width="0.8" stroke-linecap="round"/>
  <line x1="86.9" y1="53.6" x2="86.8" y2="55.5" stroke="#9AD741" stroke-width="0.8" stroke-linecap="round"/>
</svg>