<svg xmlns="http://www.w3.org/2000/svg" viewBox="0 0 100 100" width="100" height="100">
  <title>Radial Pattern</title>
  <desc>A sunburst pattern with 40 rays</desc>
    <line x1="50.0" y1="40.0" x2="50.0" y2="15.8" stroke="#9AD741" stroke-width="0.8" stroke-linecap="round"/>
  <line x1="51.6" y1="40.1" x2="54.0" y2="24.7" stroke="#9AD741" stroke-width="0.8" stroke-linecap="round"/>
  <line x1="53.1" y1="40.5" x2="60.7" y2="17.1" stroke="#9AD741" stroke-width="0.8" stroke-linecap="round"/>
  <line x1="54.5" y1="41.1" x2="61.3" y2="27.8" stroke="#9AD741" stroke-width="0.8" stroke-linecap="round"/>
  <line x1="55.9" y1="41.9" x2="68.2" y2="25.0" stroke="#9AD741" stroke-width="0.8" stroke-linecap="round"/>
  <line x1="57.1" y1="42.9" x2="76.5" y2="23.5" stroke="#9AD741" stroke-width="0.8" stroke-linecap="round"/>
  <line x1="58.1" y1="44.1" x2="78.7" y2="29.1" stroke="#9AD741" stroke-width="0.8" stroke-linecap="round"/>
  <line x1="58.9" y1="45.5" x2="76.1" y2="36.7" stroke="#9AD741" stroke-width="0.8" stroke-linecap="round"/>
  <line x1="59.5" y1="46.9" x2="76.4" y2="41.4" stroke="#9AD741" stroke-width="0.8" stroke-linecap="round"/>
  <line x1="59.9" y1="48.4" x2="78.4" y2="45.5" stroke="#9AD741" stroke-width="0.8" stroke-linecap="round"/>
  <line x1="60.0" y1="50.0" x2="83.9" y2="50.0" stroke="#9AD741" stroke-width="0.8" stroke-linecap="round"/>
  <line x1="59.9" y1="51.6" x2="85.6" y2="55.6" stroke="#9AD741" stroke-width="0.8" stroke-linecap="round"/>
  <line x1="59.5" y1="53.1" x2="77.9" y2="59.1" stroke="#9AD741" stroke-width="0.8" stroke-linecap="round"/>
  <line x1="58.9" y1="54.5" x2="75.2" y2="62.8" stroke="#9AD741" stroke-width="0.8" stroke-linecap="round"/>
  <line x1="58.1" y1="55.9" x2="74.5" y2="67.8" stroke="#9AD741" stroke-width="0.8" stroke-linecap="round"/>
  <line x1="57.1" y1="57.1" x2="73.6" y2="73.6" stroke="#9AD741" stroke-width="0.8" stroke-linecap="round"/>
  <line x1="55.9" y1="58.1" x2="69.0" y2="76.1" stroke="#9AD741" stroke-width="0.8" stroke-linecap="round"/>
  <line x1="54.5" y1="58.9" x2="64.1" y2="77.6" stroke="#9AD741" stroke-width="0.8" stroke-linecap="round"/>
  <line x1="53.1" y1="59.5" x2="62.2" y2="87.6" stroke="#9AD741" stroke-width="0.8" stroke-linecap="round"/>
  <line x1="51.6" y1="59.9" x2="55.3" y2="83.5" stroke="#9AD741" stroke-width="0.8" stroke-linecap="round"/>
  <line x1="50.0" y1="60.0" x2="50.0" y2="76.7" stroke="#9AD741" stroke-width="0.8" stroke-linecap="round"/>
  <line x1="48.4" y1="59.9" x2="45.8" y2="76.5" stroke="#9AD741" stroke-width="0.8" stroke-linecap="round"/>
  <line x1="46.9" y1="59.5" x2="38.9" y2="84.2" stroke="#9AD741" stroke-width="0.8" stroke-linecap="round"/>
  <line x1="45.5" y1="58.9" x2="32.3" y2="84.6" stroke="#9AD741" stroke-width="0.8" stroke-linecap="round"/>
  <line x1="44.1" y1="58.1" x2="33.9" y2="72.2" stroke="#9AD741" stroke-width="0.8" stroke-linecap="round"/>
  <line x1="42.9" y1="57.1" x2="29.7" y2="70.3" stroke="#9AD741" stroke-width="0.8" stroke-linecap="round"/>
  <line x1="41.9" y1="55.9" x2="18.8" y2="72.7" stroke="#9AD741" stroke-width="0.8" stroke-linecap="round"/>
  <line x1="41.1" y1="54.5" x2="18.4" y2="66.1" stroke="#9AD741" stroke-width="0.8" stroke-linecap="round"/>
  <line x1="40.5" y1="53.1" x2="15.9" y2="61.1" stroke="#9AD741" stroke-width="0.8" stroke-linecap="round"/>
  <line x1="40.1" y1="51.6" x2="16.9" y2="55.2" stroke="#9AD741" stroke-width="0.8" stroke-linecap="round"/>
  <line x1="40.0" y1="50.0" x2="16.0" y2="50.0" stroke="#9AD741" stroke-width="0.8" stroke-linecap="round"/>
  <line x1="40.1" y1="48.4" x2="12.1" y2="44.0" stroke="#9AD741" stroke-width="0.8" stroke-linecap="round"/>
  <line x1="40.5" y1="46.9" x2="15.3" y2="38.7" stroke="#9AD741" stroke-width="0.8" stroke-linecap="round"/>
  <line x1="41.1" y1="45.5" x2="26.7" y2="38.1" stroke="#9AD741" stroke-width="0.8" stroke-linecap="round"/>
  <line x1="41.9" y1="44.1" x2="19.3" y2="27.7" stroke="#9AD741" stroke-width="0.8" stroke-linecap="round"/>
  <line x1="42.9" y1="42.9" x2="29.6" y2="29.6" stroke="#9AD741" stroke-width="0.8" stroke-linecap="round"/>
  <line x1="44.1" y1="41.9" x2="28.4" y2="20.3" stroke="#9AD741" stroke-width="0.8" stroke-linecap="round"/>
  <line x1="45.5" y1="41.1" x2="36.6" y2="23.6" stroke="#9AD741" stroke-width="0.8" stroke-linecap="round"/>
  <line x1="46.9" y1="40.5" x2="41.9" y2="25.1" stroke="#9AD741" stroke-width="0.8" stroke-linecap="round"/>
  <line x1="48.4" y1="40.1" x2="46.0" y2="25.0" stroke="#9AD741" stroke-width="0.8" stroke-linecap="round"/>
</svg>